/* XPM */
static char * wall_v2_xpm[] = {
"64 64 579 2",
"  	c #7D7B7A",
". 	c #7D7A79",
"+ 	c #7A7775",
"@ 	c #777472",
"# 	c #747474",
"$ 	c #727271",
"% 	c #7B7976",
"& 	c #7B7978",
"* 	c #747271",
"= 	c #74726F",
"- 	c #727070",
"; 	c #717070",
"> 	c #747373",
", 	c #777776",
"' 	c #757474",
") 	c #787775",
"! 	c #787776",
"~ 	c #7B7977",
"{ 	c #797776",
"] 	c #7B7876",
"^ 	c #737170",
"/ 	c #797778",
"( 	c #777676",
"_ 	c #787778",
": 	c #727272",
"< 	c #6A6A6A",
"[ 	c #706F6E",
"} 	c #757271",
"| 	c #747272",
"1 	c #706E6E",
"2 	c #767473",
"3 	c #7A7776",
"4 	c #6E6C6C",
"5 	c #706E6C",
"6 	c #73716F",
"7 	c #777371",
"8 	c #7A7674",
"9 	c #72706D",
"0 	c #797674",
"a 	c #7A7774",
"b 	c #797673",
"c 	c #6E6B68",
"d 	c #716E6C",
"e 	c #716F6C",
"f 	c #716F6D",
"g 	c #757270",
"h 	c #747270",
"i 	c #6F6C69",
"j 	c #767370",
"k 	c #74716D",
"l 	c #716D6A",
"m 	c #6F6B69",
"n 	c #726F6C",
"o 	c #736F6B",
"p 	c #76736F",
"q 	c #6C6966",
"r 	c #7D7A7A",
"s 	c #787573",
"t 	c #757372",
"u 	c #717171",
"v 	c #6E6D6D",
"w 	c #777674",
"x 	c #797979",
"y 	c #7A797A",
"z 	c #7A7878",
"A 	c #787675",
"B 	c #7A7877",
"C 	c #7E7B7C",
"D 	c #7D7A78",
"E 	c #7C7A7A",
"F 	c #767575",
"G 	c #767676",
"H 	c #7A7979",
"I 	c #757575",
"J 	c #727273",
"K 	c #787674",
"L 	c #6F6E6D",
"M 	c #777675",
"N 	c #6C6A6B",
"O 	c #727171",
"P 	c #797773",
"Q 	c #726F6E",
"R 	c #7A7675",
"S 	c #787473",
"T 	c #7D7B78",
"U 	c #74706E",
"V 	c #736F6D",
"W 	c #797675",
"X 	c #7B7775",
"Y 	c #797774",
"Z 	c #767270",
"` 	c #797573",
" .	c #777370",
"..	c #74706D",
"+.	c #716E6B",
"@.	c #787471",
"#.	c #76726F",
"$.	c #848180",
"%.	c #7E7B7A",
"&.	c #737374",
"*.	c #7B7A7B",
"=.	c #777575",
"-.	c #7D7C7B",
";.	c #7A7A7A",
">.	c #797877",
",.	c #757475",
"'.	c #7B7A7A",
").	c #797777",
"!.	c #7A7879",
"~.	c #7F7D7C",
"{.	c #807D7C",
"].	c #818080",
"^.	c #777677",
"/.	c #767474",
"(.	c #79797A",
"_.	c #747475",
":.	c #6C6B6C",
"<.	c #6E6D6F",
"[.	c #717071",
"}.	c #6F6E6F",
"|.	c #767576",
"1.	c #716F70",
"2.	c #767371",
"3.	c #787472",
"4.	c #716D6C",
"5.	c #7B7776",
"6.	c #7C7876",
"7.	c #777372",
"8.	c #7E7A78",
"9.	c #7F7A78",
"0.	c #7C7875",
"a.	c #75726F",
"b.	c #817D7B",
"c.	c #817D7A",
"d.	c #787572",
"e.	c #787470",
"f.	c #7A7573",
"g.	c #736F6C",
"h.	c #7C7874",
"i.	c #7B7774",
"j.	c #7F7C7D",
"k.	c #817F7E",
"l.	c #7F7D7D",
"m.	c #777778",
"n.	c #6E6E6E",
"o.	c #787878",
"p.	c #7B7A78",
"q.	c #7A7777",
"r.	c #7A7A79",
"s.	c #828080",
"t.	c #787777",
"u.	c #747374",
"v.	c #6F6D6D",
"w.	c #6D6D6D",
"x.	c #767677",
"y.	c #737271",
"z.	c #767373",
"A.	c #737172",
"B.	c #7E7B79",
"C.	c #787575",
"D.	c #7B7874",
"E.	c #827E7B",
"F.	c #797572",
"G.	c #797672",
"H.	c #7A7672",
"I.	c #797571",
"J.	c #74706C",
"K.	c #807D7B",
"L.	c #858484",
"M.	c #717172",
"N.	c #707070",
"O.	c #797878",
"P.	c #787676",
"Q.	c #777474",
"R.	c #7D7B7C",
"S.	c #7F7F7F",
"T.	c #7D7C7C",
"U.	c #737272",
"V.	c #7E7D7D",
"W.	c #717170",
"X.	c #6B6B6C",
"Y.	c #686869",
"Z.	c #727172",
"`.	c #6D6C6B",
" +	c #696868",
".+	c #6E6E6F",
"++	c #727071",
"@+	c #6F6C6C",
"#+	c #767574",
"$+	c #827F7D",
"%+	c #75716F",
"&+	c #726E6B",
"*+	c #736E6B",
"=+	c #6F6C6A",
"-+	c #746F6C",
";+	c #7D7977",
">+	c #7C7C7C",
",+	c #7B7B7B",
"'+	c #707071",
")+	c #787677",
"!+	c #7E7E7E",
"~+	c #7D7D7D",
"{+	c #7E7C7C",
"]+	c #7C7B7B",
"^+	c #797879",
"/+	c #7C7A7B",
"(+	c #7F7E7F",
"_+	c #757576",
":+	c #737274",
"<+	c #626263",
"[+	c #676667",
"}+	c #6F6E6E",
"|+	c #757170",
"1+	c #7C7976",
"2+	c #767271",
"3+	c #767472",
"4+	c #767471",
"5+	c #747170",
"6+	c #7D7B7B",
"7+	c #7F7D7E",
"8+	c #7C7B7C",
"9+	c #757374",
"0+	c #7D7C7D",
"a+	c #7E7C7B",
"b+	c #7B7877",
"c+	c #6D6D6E",
"d+	c #737373",
"e+	c #646465",
"f+	c #6C6C6C",
"g+	c #7C7A79",
"h+	c #777574",
"i+	c #817E7C",
"j+	c #7F7B79",
"k+	c #7C7977",
"l+	c #7F7D7B",
"m+	c #73706E",
"n+	c #746F6E",
"o+	c #878584",
"p+	c #7D7B79",
"q+	c #838383",
"r+	c #7C7C7B",
"s+	c #807E7E",
"t+	c #808080",
"u+	c #6A6969",
"v+	c #737273",
"w+	c #787574",
"x+	c #757371",
"y+	c #807E7C",
"z+	c #797775",
"A+	c #757171",
"B+	c #7C7978",
"C+	c #808081",
"D+	c #818181",
"E+	c #7D7D7E",
"F+	c #7F7E7C",
"G+	c #767372",
"H+	c #848485",
"I+	c #7F7E7E",
"J+	c #7A7A7B",
"K+	c #6A6A6B",
"L+	c #6C6C6D",
"M+	c #7B7878",
"N+	c #706F70",
"O+	c #787879",
"P+	c #777777",
"Q+	c #7A7876",
"R+	c #6C6B6A",
"S+	c #7A7673",
"T+	c #838180",
"U+	c #7B797A",
"V+	c #7E7E7F",
"W+	c #6F6F70",
"X+	c #7B7979",
"Y+	c #807D7D",
"Z+	c #7B7C7B",
"`+	c #838283",
" @	c #7B7B7C",
".@	c #6B6B6B",
"+@	c #777473",
"@@	c #7E7D7E",
"#@	c #82807E",
"$@	c #777576",
"%@	c #7E7C7A",
"&@	c #7F7C7C",
"*@	c #7C7979",
"=@	c #807B7A",
"-@	c #878484",
";@	c #7C7C7D",
">@	c #817E7D",
",@	c #767577",
"'@	c #827F7F",
")@	c #848282",
"!@	c #807F7E",
"~@	c #7E7B7B",
"{@	c #7B7879",
"]@	c #858281",
"^@	c #827F7C",
"/@	c #898785",
"(@	c #807E7F",
"_@	c #7D7D7C",
":@	c #7E7D7C",
"<@	c #838282",
"[@	c #868484",
"}@	c #827E7C",
"|@	c #7F7C7B",
"1@	c #807F7F",
"2@	c #807E7D",
"3@	c #7A7978",
"4@	c #827F7E",
"5@	c #7E7978",
"6@	c #7E7D7B",
"7@	c #868585",
"8@	c #828283",
"9@	c #7B7C7C",
"0@	c #828282",
"a@	c #7D7976",
"b@	c #848383",
"c@	c #848484",
"d@	c #767475",
"e@	c #787576",
"f@	c #807F80",
"g@	c #828182",
"h@	c #81807F",
"i@	c #838181",
"j@	c #797676",
"k@	c #838182",
"l@	c #818081",
"m@	c #7F7F80",
"n@	c #828181",
"o@	c #767777",
"p@	c #7B7B7A",
"q@	c #84817F",
"r@	c #848384",
"s@	c #858282",
"t@	c #817F7F",
"u@	c #838281",
"v@	c #817D7D",
"w@	c #817E7E",
"x@	c #848281",
"y@	c #83807D",
"z@	c #7D7979",
"A@	c #7C7B7D",
"B@	c #757476",
"C@	c #6C6B6D",
"D@	c #757373",
"E@	c #83807F",
"F@	c #818182",
"G@	c #8A8888",
"H@	c #7B7A79",
"I@	c #7E7A7A",
"J@	c #7C7B7A",
"K@	c #737171",
"L@	c #83817F",
"M@	c #757272",
"N@	c #747473",
"O@	c #777678",
"P@	c #8A8989",
"Q@	c #868382",
"R@	c #6F6D6C",
"S@	c #7F7C7A",
"T@	c #757375",
"U@	c #79787A",
"V@	c #706E6F",
"W@	c #828081",
"X@	c #7F7B7B",
"Y@	c #696768",
"Z@	c #7F8080",
"`@	c #868586",
" #	c #827E7D",
".#	c #848181",
"+#	c #807D7E",
"@#	c #858586",
"##	c #7D7978",
"$#	c #7D7877",
"%#	c #7A7676",
"&#	c #838384",
"*#	c #858585",
"=#	c #868687",
"-#	c #706E6D",
";#	c #7B7777",
">#	c #817F80",
",#	c #7D7A7B",
"'#	c #83807E",
")#	c #888888",
"!#	c #8A898A",
"~#	c #777577",
"{#	c #797574",
"]#	c #7C7877",
"^#	c #747476",
"/#	c #817E7F",
"(#	c #878382",
"_#	c #7C7A78",
":#	c #837E7D",
"<#	c #6F6F6F",
"[#	c #858382",
"}#	c #848080",
"|#	c #838080",
"1#	c #878787",
"2#	c #716D6B",
"3#	c #7E7D7A",
"4#	c #868686",
"5#	c #747575",
"6#	c #716D6D",
"7#	c #858383",
"8#	c #797779",
"9#	c #717072",
"0#	c #6B6A6B",
"a#	c #726E6E",
"b#	c #7A797B",
"c#	c #747273",
"d#	c #6C6866",
"e#	c #71706F",
"f#	c #7D7C7A",
"g#	c #797473",
"h#	c #767272",
"i#	c #6F6D6E",
"j#	c #777779",
"k#	c #7E7C7D",
"l#	c #706F71",
"m#	c #7F7E7D",
"n#	c #797A7A",
"o#	c #6E6D6E",
"p#	c #6C6A6A",
"q#	c #7E7A79",
"r#	c #787779",
"s#	c #82807F",
"t#	c #5E5C5D",
"u#	c #737070",
"v#	c #626162",
"w#	c #757273",
"x#	c #686564",
"y#	c #747375",
"z#	c #807C7B",
"A#	c #7E7C7E",
"B#	c #747171",
"C#	c #7C7878",
"D#	c #736F6E",
"E#	c #716F6E",
"F#	c #777475",
"G#	c #818082",
"H#	c #777471",
"I#	c #74706F",
"J#	c #7E7E7D",
"K#	c #767573",
"L#	c #6E6C6E",
"M#	c #6D6C6D",
"N#	c #7F7E80",
"O#	c #767678",
"P#	c #73706F",
"Q#	c #716E6E",
"R#	c #716F6F",
"S#	c #727173",
"T#	c #777573",
"U#	c #706D6E",
"V#	c #747372",
"W#	c #6A6766",
"X#	c #6D6A6A",
"Y#	c #767476",
"Z#	c #6F6E70",
"`#	c #767274",
" $	c #787678",
".$	c #75706E",
"+$	c #6F6E6C",
"@$	c #767675",
"#$	c #7C7B79",
"$$	c #797978",
"%$	c #726F6F",
"&$	c #6B6868",
"*$	c #6C6B6B",
"=$	c #787877",
"-$	c #7C7879",
";$	c #6B6968",
">$	c #757473",
",$	c #706D6C",
"'$	c #74716F",
")$	c #787475",
"!$	c #72706F",
"~$	c #6A696A",
"{$	c #716E6D",
"]$	c #6B696A",
"^$	c #696767",
"/$	c #737173",
"($	c #797875",
"_$	c #696969",
":$	c #727170",
"<$	c #6E6A69",
"[$	c #72706E",
"}$	c #616061",
"|$	c #6D6C6C",
"1$	c #726F70",
"2$	c #717173",
"3$	c #737071",
"4$	c #706F6F",
"5$	c #706D6D",
"6$	c #716E70",
"7$	c #6E6D6C",
"8$	c #757574",
"9$	c #7B7675",
"0$	c #787474",
"a$	c #706C6B",
"b$	c #737270",
"c$	c #6E6D6B",
"d$	c #6D6D6C",
"e$	c #787372",
"f$	c #6A6869",
"g$	c #6D6C6E",
"h$	c #6E6C6B",
"i$	c #6D6B6B",
"j$	c #6D6B6C",
"k$	c #737372",
"l$	c #73706D",
"m$	c #686666",
"n$	c #706F6D",
"o$	c #757370",
"p$	c #706C69",
"q$	c #706D6A",
"r$	c #71706E",
"s$	c #70706F",
"t$	c #706C6C",
"u$	c #6E6C6A",
"v$	c #676666",
"w$	c #6B6A69",
"x$	c #6E6E6D",
"y$	c #6F6F6E",
"z$	c #7B797B",
"A$	c #727270",
"B$	c #767374",
"C$	c #706D6B",
"D$	c #6F6D6B",
"E$	c #6B6A6A",
"F$	c #757471",
"G$	c #6F6C6B",
"H$	c #726F6D",
"I$	c #726E6D",
"J$	c #6F6E6B",
"K$	c #787876",
"L$	c #6B6B6A",
"M$	c #817D7C",
"N$	c #76716F",
"O$	c #676665",
"P$	c #696869",
"Q$	c #6A6868",
"R$	c #6F7070",
"S$	c #686868",
"T$	c #6F6B68",
"U$	c #6C6A69",
"V$	c #686867",
"W$	c #6C6A68",
"X$	c #6C6969",
"Y$	c #757472",
"Z$	c #736F6F",
"`$	c #6F6B6A",
" %	c #686767",
".%	c #656464",
"+%	c #69696A",
"@%	c #817F7D",
"#%	c #726E6C",
"$%	c #6D6B6A",
"%%	c #6D6A69",
"&%	c #717272",
"*%	c #605F60",
"=%	c #686768",
"-%	c #797575",
";%	c #767674",
">%	c #6E6C6D",
",%	c #6A6A69",
"'%	c #707171",
")%	c #6A6765",
"!%	c #696665",
"~%	c #6B6969",
"{%	c #636263",
"]%	c #676565",
"^%	c #656566",
"/%	c #6C696A",
"(%	c #6C6968",
"_%	c #676563",
":%	c #6D6B69",
"<%	c #666566",
"[%	c #6C6C6B",
"  . + @ # $ % & * = - ; > , ' ) ! ~ { ] . ^ / ( > _ : < [ } | 1 2 ^ 3 1 4 5 6 7 8 9 0 a 8 7 b c d e 9 f @ g h i j k l m n o p q ",
"r s s t _ u ! _ > * v w x y z A w B z C D E F G H > I J F K > L v A M N O v * P s Q R 0 S 8 T U V R W X Y 7 Z a `  ...V +.@.k #.",
"$.%.. ( &.*.' &.=.-.;.>.,.;.'.).!.'.( ~.{.].y ^./.M (._.:.t < <.[.> B }.: |.1.W 2.3.4.5.s D 6.7.V 6.] 8.9.0.a.b.c.d.e.f.g.e.h.i.",
"j.k.l.m.J ' n.o.( p.F ).*.m./.=./.q.r.s.-.t.u.t.,._ &.J &.v.w.x.# y.z.L x.&.|.A.] B.C.8.2.0.b ] Q 8 0.7 0.D.E.F.S G.H.8 I.J.#.P ",
"z K.L.M.G J N.^.^.O.v =.o.O.P.Q.R.k.S.~ & T.' , U.V.M.u.J W.X.Y.}.Z.`. +.+M.# ++8 @+#+$+7.f #.F.%+6.b Z &+*+` U 2 } =+7 8 -+i.;+",
"$.. >+,+# '+n.( '.' ( )+!+~+{+;.]+^+{+E - /+(+Z.>.: _+'+G x.:+<+F U.> [+}+J J ^+] ! A . ;+X  .b |+1+d.7 2+V D 2.3+4+5+g 5+#.3.b.",
"6+7+8+;.x M.# M.> 9+R.F 0+( V.!+]+_ a+b+6 ; ~+;.(+;.c+G d+8+N.e+f+t.g+f+Z.J [.=.q.z ( @ 2 7.] h+i+j+k+F.7 j ~ l+2.j %.X A.m+n++ ",
"].o+>+x u.N.d+[.E v.z.p+|.].0+q+^+r+s+{ b+'.8+8+t+|..+M.|.# '+c+u+z * Z.v+N.u.v+w+x+|.1.x+@ 3 C.* %.0 %+3.y+z+k.* 9 a X [ { A+] ",
"B+{+C+D+E+N.w.M.|.{+  K F+T.E+t+S.& {+^+G+]+H+(.I+J+K+x.t.F _.L+; M+s.w.N+o.O+/+B+7.P+M+%.S w+~ Q+} 0.p+b+] a+2 R+1+S+8 Z.( B.] ",
"T+s.U+V+~+J+W+: u.X+& k+Y+N+Z+'.*.! '.& B.`+ @E+0+'+.@.@>+C+_+L+I A +@:.O+x.o.@@#@G+}.  $@%@Y+! & h+;+& M &@*@=@k+0 V 5+/.^ w+] ",
"( -@H ,+!+;@'+m.F B A >@k.,@E+!+I+#+O '@)@(+S.t+q+# X.W+!+>+~+M.M.$@{ ' x &.J+!@~@*@_ U+$@*@l.6+z !@~ B {@] >@]@^@+ s { H A z.*@",
"/@(@8+>+;.~+G _._ & & l.o.,+S._@]+:@<@[@}@D+~+_+,+.+J _.,.*.(.m._ ( |@d+>+>+t+-.]@:@;.T.( s+{+1@2@k+3 3@4@w+E a+5@] $+6+G 6@W W ",
"2@7@8@ @G 9@W+I *.( | X+O.;.@@!+R.7@0@s+a@b@c@_+,+M.m. @P+J+x.P+V.d@e@^.8+,+f@l.%.%.x d@0+g@6+h@H )@& @@B %@i@i+k+a+>@~.T.-.j@2 ",
"$.k@l@P+P+: d+x.@@{+~ g /+m@,+(+I+h@<@n@3.b@o@;@m.'+_+x.T.;.J+I S.8+1@(.]+>+g@I+K.  V.f@8+~+V.I+i@. / '.%.-@T.T+. a+M+& I+X+p@s+",
"q@$+7@0+I x _.I >+U+  B+~+m@q+r@t+s@D+*.r I+P+x 8+N.I O+t@I # P+|.V.X+P+t+m.f@[@l+  f@c@!+D+0+!+u@$.q.O.v@w@t@x@%.2@b+& G '.6+R.",
"y@2@-.!+&. @;.J+r.E z z@u. @A@(+@@t.*.M X+|.m.u B@&.C@J t._ _.G G _ D@,+v+o.J+/+E@t@F@D+F@l@f@0@G@)@H@].I@w@J@K.B   E@K@( # O.++",
"L@t ]+x N. @_+_+^.u.{ M@|.o.V+0+^+N@1@l.w+' x._._+O@:+H V._+m._.^.]++ u.^.G >+).g+b@m@m@F@(+`+^+P@~.X+_+>@a+E |@%.Q@%.z.G P+R@H ",
"'@S@)+E+(.,+J+m.u./.*@]+'.S.(+E+H I+( A B T@t+P+^+O+x.U@(+^+&.o.,.O.B+V@x &.l@{+{.Y+E+l@,+t+f@D+_ '.W@8+-.H@s+B.3 X@2+O.d+# O ^+",
"'@+@^+C+>+# ;@,.*./ M@E ~+;@!+;.I+]+Y@! j@8+x o.|.M.O+m.W@|.J+N.l@z =.>+m.o.,+Y+E@s+;.S.J+E+Z@S.`@t.y _ R.| /+G+ #B.C.> '+[.o.U@",
".#-.(@F@P+;@O+N+A@H Q.~@p@;.E+x ' =.+#$.B+`+E+O+P+c+G O@l@^.o.I I+O.{.^.(.#  @E %.2@,+g@@#!+D+J+t+l.'.{+Q.*@P.##$#M+%#D@'+Z.^.o.",
"7.7+@#&#~+(.O+m.X.F q.>.T.m@l@*#( 6+R.h+b+'._ I J+c+G C+(+f@ @m.I+a+j@E+(.# O+6+$.)@,+C+~+ @@@l@f@/+V.R.%.l.e@p+5.+@2+O P+m.O+ @",
"$#z ].&#>+G &.(.^+A.+ / ( >+=#E+g@n@E 3@& ^+,+o.x.P+^+ @V.8+8+t+(@. ##;.x V+m.6+>@].m@*#F@`+!+~+O.J@H )./ @@D@  ] U 2+-#|.J+m.x ",
";#*.F@;@~+_+I y ,.y.Q.l./+0@0@H+L.n@n@a+*@>+_+_.&.G G *.T.@@,+,+:@3 E@( I J+@@~@k.>#m.0+0@1@(.8+>+M+{+f@#+X@9+h+5.b+X > ;.P+|.,+",
"s.A@(.O@;.E+x y ,#v@'#[@I+;@)#q+`@!#s.x@6+H+o.o.o.f+^+;@t+~#~+(.'.{#3 O.;.I  @i@a+<@;.@@0+0@t+(+V.P.B 6+I@!@E K ;+8 ]#Z.x.m._ O+",
";#Q@g@8@;@;.O+,+O.r M@t.<@H+V.I+8+q+l@5.S@8@_+I (.'+y y @@*@v+_+z v@W !+m.# ;.H &@`+t+7@F@(+,+f@{++@'./.!@;+{+D@2.{.##U.P+J ^#o.",
"/#w@n@F@P+J+O+E+g+3@{+g+(+c@8@!+@#<@H 7+k.0@;.>+_.d+_ (+W@{+(+P+~.E@(#F ,+P+&._ >@n@'.T.>+m@m@1@H q.D@o.~@] _#:#8 5@6.N+_+M.Z._+",
"M+6+(@F@l@x.x.;.v =.} w+P+E+!+ @l@m@q+E |@;.;@# N.: &.!+].!+ @<#).[#}#!+O+P+;.J@|#l.~+@@q+8+(+V.#+z Z.1#Q.| M+2#8 ;+$#U.x L+&. @",
"k.3#@@_+(.J+G o.U++@/.Q.> X+8+8+I+m@4#U+P.y 5#J o.X.,.J+].l@O+G L.>#%.m@o.P+ @6+E@(+J+!+t+f@F@0+=.A /.I {#|@5+@ 3.X 3.|.x : ,.x.",
"C b+~+,+P+J+d+t.$@6#%+| U.x ^+D+S.0+6+X+R.E+M._+m.c+_ ^.t@T.;@P+f@7#S@&.x._+m.z Y+@@c@t+0@l@q+8+3@/.' d@5.*@W 2 Q U n+O+V+J+(.(.",
"  8+8#(.0+>+_.9#=.t h *@(+P+8+'.m.V.>+0#y _ ^+,+o.: ^+;@/ 0+(.E+@@[#  _+P+x ^.T.4@E+*# @t+l@l@1@C.j@' | 2@w+Q.` 2+a#4.o.E+*.b#m.",
"P.%.v.J+x V+N+[.c#w+d#g+P.u.f@V.F h@_#  e#^+_._.&.J O+G z t._+o.6+f#p.|.&.m.,+f@.#1@0+m@m.`+@@).g+/ t.( 6+^ F g#i+M@h#^.x ;.o.x.",
"S Q i#*.j#o.^.|.=.A K +@O.t.O+k#7+:@t.[@B G |._.# J l#_ ).t.(.( /+m#{ _. @_+n#1@l.(@g@`+~+,+8+T.H@X+t.>+*@. o#2+w+p#O }.# m.;@J ",
"q#~ /._ *.^+&.H 2.z+| @ *@(+@@*#J@} v.b@T.).P+# :.I y r#R.^+o._.].-@>@'+_.|.: {+s#U+y F@x t+r@_+k#].^+^+A =.- 0 s t#u#v#J _._.y ",
"|@2@k#|.{@' u.#+w#h+2 ^+1.S.C+E+=.x#2 s+).).v+y#&.: J S.R.0+:  @^+>@E ,+M.|.o.).z#H ( n@O.(+;@0+T.A#x ;@P.).#+g } G+M@J+x.(.G P+",
"B#6+C#y#v.- 8+t D#Q E#F#)@3@,+_ ]+A y+z a+I+M.J I x 0@_ 9+O.O+x.3@'@  G o.^+J+0+s+T.^+^+G#;@*.x d@Z.E+u.- P.y.D z } C#r#J+Z.(.<#",
"+@H#! r#x.<.,.M@I#@+b+T.,+J#d@K#L#B#3@C.W@]+(.M#J m.8+( &@_ I ^+O.y+B+P+u.O+x.H . ]+~+N#1@'.T.(+U.^+,.*.B M > P.P.a+C.O#u &.y I ",
"z.K@A.Z.^.(.^.=.P#=+g Q#g+)+' u.' h+)+j@Q._ _+O+_+_.x.).{+R#m._+/.{.a+x.J+S#;.J@).V.).> :@V.=.o.[.0+G [.q.{+z.Q+T#Q.* J+J+,+;@O+",
"2 d@1 ~#U.:+9+2 Q.6#U#v ( V#R._@W#| C.2 X#F G O+N+# o.*.'.M.Z.|.> & {+J+o#: _+~@T#O.X+I+)+X+'.y ^+Y#Z#Z.d@E z.w+w+h+6 v+ @;.r#&.",
"`###i@ $J J m.h+3 .$Q#t O g+_ M@l.& -#% +$*.G _+N.(.;.G > ' u @$w##$P.I y#Z.Z.h+j@g+$$t.]+E I M f@^+&.(.F t x+{#^ { %$m.(.J+O+>+",
"p.K ).z.N+|.!+A K &$|+Q+M 6+2 t.M T |  +2 I+y u.m.G ~+> )+K@F ( 3@A /.m.: *$: ! b+:@P./.{+=$J+: T.@@# I N.X+' w+B @ R@_.x.m. @_+",
"B+X@' | F W+|.g+h -$R#;$O.A H )+& D@/.f u.`+( P+;..+>+'.J@V.o.<#M 6+O.O.; [.Z.h+I+2 h+).P.2 >.u x f@_.*.'.u [.z @ 0 > J+o.v+m.x ",
"m+u#M+$@Z.m.G =.K@G+r >$=.M+J@* b++@O F 1@@@P+c+w.F ^+]+)./ :+> X+& I+_ [.W+o#,$'$R@A 2+j@q.' ^.P+I O+o.y v+[.{ t V#i#: x.m.: G ",
"I#+ |@|.F h+x *@w+s )$>${ O.t.e@D@!$[.z v+l@( u.~$: |.> ).O.T._ * R#> o.}+&.<#G+a.A D@z.z.X+P+> N.x. @t.' o.- g+{$Q#]$<#_+# U@d+",
"B T#M@@@H ^$R#{ /$I#'$B#P.D@^+).($3@^ w#U.=$o.:+'+_$u.! t.|.H / ;#| M v+,.x._+:$@ ++z.Q+z.H@o.: d+N+d+x ]+d+> /.{ v.u u .+v+O+: ",
"8 ~@w+( t v * } <$C#a.[$| ! U+M #+=.M ( ' >$N+.+&.}$|.H O.,.;.U+=.B d@M.|$O G t.Q#{+2 h+1$) # > G }.2$,.N+|.(+* K@/.u J .+M.d+m.",
"{#Q+g+3$4$, %$@ 2+,$5$>$* /.U.O.y.6$A.7$|$8$J N.'+u ,.A |.;._ }+5$Q#- .+}.v+@$! { U.M )+D@( H : d+G o.^.I ]+v u#' =._$: l#X.I u.",
"9$0$K ++,.)+t.^ z+h+a$Q.' b$9+c$| K@; 4$O n.m.x.d+,.'.B 6+#+u.D@h X#1 J [.d$V@3   y.! 3@| /.: N.M.w.'+M.d+D+v ~$- u.}.'+c+.@G f+",
"e$w+B+9+]+;.b+q.{.g M@M V#V#^ o#!$R@^ T#:$$ 9+f$P+# J+^+H G _ N+R#=.> g$Z.: u z Q :$H >.D@y.( c+[..@_+.+d+N+N.-#O #+M#N.n.}..+W+",
"g+C.W z t U.3 G+k+h+W g+; v.N@'.h$a#c#Q 7$Y.V#v ,., T.r.! ' o.N@i$*@u#W+# N+u #+2 ]+z j$R#g+W+m.N.P+J+J+k$U.t.9+| |.N.n.M#}.d+W+",
"B.{+2.A+[.u.s+s 0 8 l$/.>$}+' | - -#p#; }+O ' R@P+# ,+P+{+O.^+F !$4+m$# # N.*$n$o$y.> 6 ; M#d+(.W+<#u v+,+u.P+F :$[.J W+L+,.u P+",
"A %.3 =.H@t K . Z p$q$R#- ++*.^ }.R@/.D@4$F u P+R+L T.H I 8+^+H O 2 # k$N.# : M K ' t L ! r$u # }.> : u s$M#N+,$2 U.x.&.&.# m._+",
"t$3@] /..+> } S X D#h$u$4+~.N.u ( [$Q e#%$* : }.U.n.F @$& ( ;.t.{ z x u : ; O $ 0 R@#+T#=$- U.[.; .+J+u : v$- D@E#u <#n.N+G G I ",
"p+T#{ /.( ^ .$0 W 8 M@1 i$_ ( 3@M 1 7$2 i#o#u s$F <.- M U.r+G V#2.K @$M.u.u v g+J@w$W.H@p.`.x$v+G N.'+y$v L O u#=$^.: W+: X._.G ",
"D 0 z$&@#+U.} G+a.V ^ 5 u.! ]+w ^ !$e#h+V@,.n.; x.o#: M K@;.O.&.($& V#I u N.u ' e#n.`.t.~+A$i#: I > Z.4$N+y$_$U.4$U.&.M.N.'+# ,+",
"s+/.h+B$y.E#g +@- * Q C$>$^ 1.>.O.D$f }+> W.E$s$; f+v+K@>$,+>.N.6 6 -#I L+O V#F$7$n.u ;.x , > ; w.G d+c+U.}.W.E#v n.d+.+'+: Z.&.",
"|@w+D@m+-#] W F.2.G$H$5+I$h E#>$- u$v J$N+}+[.5$> d+d+M K$3@( k$- D$N+: d+[.:.v.[$> d+, V#: }+u+w.d+u v.k$! ; > L$< .+N.M._+# <#",
"M$Y %+R#R@x+} 0.N${$2+m+B#B#,@4$>$#+p#n$O$|$}+/ f+d$; !$U.4$N@s$>$5 >$P$< < R@/.Q$<#t., N@Z.u |$u .@&.> ( *$E#w..@.@d+M.'+d+_+R$",
"] t.z =.`.* |+S j a V {#w+^ ,.O v.f }+O L :$Z.U..+[.@$#+t L E$N+e#P#|$N.S$.+y.{$^$N.y.@$O f+d+w.M.d+w.v y.< R+k$4$y$ +c+<#X.G <#",
". g+A j@5+W 8 j T$C$*+G+g A L U$#+i$*$A 4$[+:.u &.: I ; [ U.E#4$~ * w.n.d+V$}+W$X$#+Y$:$U.x$f+; _.# u O [ > Z.; f+: w..+w.<#I # ",
"0 a+] E q.d.Z$..V '$l$%+C$`$,$X#-#O 7$N+4  +:$<## N@|$ %H@P+U$R@1 6 u+Z.o.>+: G$^ e#7$; N. %}+N..+x$d+Z.4$.%[.O <#Z.+%: d+'+# u ",
"q#@%S h g #%s h+p '$3.2 >$C$$%d %%v i$[ [.:$[.&%> J $ 1.*%U.E#R@%$n$k$G v+*$> [$W$R+O t.u+4$d$=%u w.d+u+M#d+Z.o.> u n.w.n.c+K+'+",
"l+B+-%K @ j 2.d.j j d#6 * R@v.x+L e#W$^$}.E$[.9#$$t.R#u+7$`.;%+$- >%' [.P$}+; 5$h }+7$9+o#f$[.w.P$M.W+,%' ; c+4$J '%# e+f+M#w.w.",
"%+w+z+{ B+6 #.a.j )%d !%R@n 5 ~%} -#t$N N+- F U.F y.{%W$]%U.A V#1.P#e#N+4$}.@+m+$%p#7$M#}+v _$^%<#: X.8$}+U.4$E$u.[.N.n.u u ,+J ",
"]#` k+& =.2.@ p$j h I#>%m+h$P#m+Z @+5$m+[$$%}.,.o#V@$%U$M#`.i$/%X#y.X$Q$m$U$p#(%K _%;$:%E$S$f$S$<%X.< E$v 4$N+<#e#[%n.&.k$( z 3@"};
