/* XPM */
static char * wall2_v2_xpm[] = {
"64 64 569 2",
"  	c #BBBBBE",
". 	c #BDBDBF",
"+ 	c #B9B8BB",
"@ 	c #BCBCBE",
"# 	c #B4B4B6",
"$ 	c #BCBBBE",
"% 	c #BEBEC1",
"& 	c #BFBEC1",
"* 	c #C2C2C3",
"= 	c #BFBFC0",
"- 	c #BDBDBE",
"; 	c #C6C6C7",
"> 	c #C4C3C6",
", 	c #BAB9BB",
"' 	c #BABABB",
") 	c #BAB8B8",
"! 	c #B2B0B1",
"~ 	c #BFBEBF",
"{ 	c #B9B9BA",
"] 	c #BEBEC0",
"^ 	c #BFBFC1",
"/ 	c #BEBDBF",
"( 	c #BDBCBE",
"_ 	c #C7C6C8",
": 	c #B8B6B7",
"< 	c #BDBCBF",
"[ 	c #B7B3B5",
"} 	c #BBB9B8",
"| 	c #BEBEBF",
"1 	c #C1C0C1",
"2 	c #B9B7B6",
"3 	c #BBBABB",
"4 	c #C3C2C4",
"5 	c #BEBDBE",
"6 	c #BCBBBD",
"7 	c #BAB9BC",
"8 	c #BBBABD",
"9 	c #B5B5B6",
"0 	c #C0BEC1",
"a 	c #C3C3C5",
"b 	c #B8B7B8",
"c 	c #B4B3B5",
"d 	c #AFADAE",
"e 	c #AEADAF",
"f 	c #AEAEAF",
"g 	c #ADADAF",
"h 	c #ABAAAC",
"i 	c #ADADB0",
"j 	c #AFAEB1",
"k 	c #AAA9AC",
"l 	c #ABABAD",
"m 	c #B1B1B4",
"n 	c #A9A9AA",
"o 	c #A8A8AB",
"p 	c #B8B8BB",
"q 	c #BDBDC0",
"r 	c #C5C5C6",
"s 	c #B9B9BC",
"t 	c #B7B6BA",
"u 	c #C3C2C5",
"v 	c #C1C1C3",
"w 	c #C2C2C4",
"x 	c #C4C4C4",
"y 	c #C4C3C4",
"z 	c #C4C4C5",
"A 	c #B7B6B6",
"B 	c #BDBCBC",
"C 	c #B2AFAE",
"D 	c #BCBCBD",
"E 	c #C1C1C2",
"F 	c #C3C3C4",
"G 	c #BBBABC",
"H 	c #BAB9BA",
"I 	c #C4C3C5",
"J 	c #C0BFBF",
"K 	c #BDBCBB",
"L 	c #C2BFBD",
"M 	c #BFBDBC",
"N 	c #BFBCBB",
"O 	c #BAB8B9",
"P 	c #C0BFC1",
"Q 	c #BFBEBE",
"R 	c #B8B7BA",
"S 	c #C2C1C2",
"T 	c #B9B8BA",
"U 	c #B7B5B7",
"V 	c #B6B5B7",
"W 	c #B8B8BA",
"X 	c #B2B1B4",
"Y 	c #B2B2B4",
"Z 	c #B4B3B4",
"` 	c #B3B3B6",
" .	c #B6B6B7",
"..	c #B2B2B3",
"+.	c #AAAAAB",
"@.	c #B1B1B3",
"#.	c #B6B6B8",
"$.	c #BBBBBD",
"%.	c #C0C0C3",
"&.	c #BCBCBF",
"*.	c #BDBDBD",
"=.	c #B7B5B4",
"-.	c #B5B3B2",
";.	c #B9B9BB",
">.	c #B8B7B9",
",.	c #BBBBBC",
"'.	c #BFBDBE",
").	c #BABABC",
"!.	c #BCBABB",
"~.	c #B6B4B4",
"{.	c #C2C0BF",
"].	c #BEBAB8",
"^.	c #BBB6B4",
"/.	c #BCB7B4",
"(.	c #C1BCB8",
"_.	c #C1BBB8",
":.	c #BFB8B4",
"<.	c #C3C0C0",
"[.	c #C5C5C7",
"}.	c #C4C4C6",
"|.	c #BFBEC0",
"1.	c #B9B8B9",
"2.	c #B7B7B9",
"3.	c #B8B8B9",
"4.	c #A6A6A8",
"5.	c #A9A8AC",
"6.	c #B1B0B3",
"7.	c #BABABD",
"8.	c #C2C2C5",
"9.	c #C0BFC2",
"0.	c #C5C5C5",
"a.	c #BABABA",
"b.	c #B9B7B7",
"c.	c #BBB8B8",
"d.	c #B5B3B4",
"e.	c #B6B4B5",
"f.	c #C1C0C2",
"g.	c #C0C0C1",
"h.	c #C0BFC0",
"i.	c #BDB9B8",
"j.	c #BFBBB8",
"k.	c #C3BCB8",
"l.	c #C2BFBE",
"m.	c #C2BEBD",
"n.	c #C2BEBC",
"o.	c #C3BFBE",
"p.	c #C3C2C3",
"q.	c #C7C7C8",
"r.	c #CACACB",
"s.	c #BEBFBF",
"t.	c #A7A6A9",
"u.	c #AAAAAC",
"v.	c #B0B0B2",
"w.	c #B3B3B5",
"x.	c #C0C0C2",
"y.	c #C5C4C6",
"z.	c #C2C2C2",
"A.	c #B9B8B8",
"B.	c #BFBFBF",
"C.	c #C8C8CA",
"D.	c #B6B4B6",
"E.	c #C9C9CB",
"F.	c #C8C7C7",
"G.	c #C4C1BF",
"H.	c #C1BFC0",
"I.	c #C3C1C2",
"J.	c #CBCBCB",
"K.	c #B7B6B8",
"L.	c #B7B7B8",
"M.	c #AEAEB1",
"N.	c #B5B4B6",
"O.	c #BCBBBC",
"P.	c #C0C0C0",
"Q.	c #C5C4C4",
"R.	c #C8C7C8",
"S.	c #C0BDBD",
"T.	c #CAC9C9",
"U.	c #C9C8C9",
"V.	c #C6C6C8",
"W.	c #C9C9CA",
"X.	c #CAC9CB",
"Y.	c #C7C7C7",
"Z.	c #B1B1B2",
"`.	c #BBBBBB",
" +	c #C8C8C9",
".+	c #CACACA",
"++	c #C6C5C8",
"@+	c #C3C2C2",
"#+	c #C7C6C7",
"$+	c #C4C3C3",
"%+	c #CECDCF",
"&+	c #D0D0D1",
"*+	c #CFCFCF",
"=+	c #B4B4B5",
"-+	c #B5B5B7",
";+	c #B3B3B4",
">+	c #ADACAF",
",+	c #ACABAE",
"'+	c #C8C8C8",
")+	c #C3C3C3",
"!+	c #C9C9C9",
"~+	c #C6C6C6",
"{+	c #CECECF",
"]+	c #CAC9CA",
"^+	c #C6C5C6",
"/+	c #CCCCCD",
"(+	c #CBCBCC",
"_+	c #CACACC",
":+	c #C2C1C3",
"<+	c #CDCDCE",
"[+	c #C8C7C9",
"}+	c #CCCCCC",
"|+	c #CFCFD0",
"1+	c #D4D4D5",
"2+	c #D1D1D2",
"3+	c #AEAEB0",
"4+	c #B2B2B5",
"5+	c #BEBEBE",
"6+	c #D0D0D0",
"7+	c #CECDCE",
"8+	c #C9C8CA",
"9+	c #C5C4C5",
"0+	c #C6C7C8",
"a+	c #B6B5B8",
"b+	c #AFAFB1",
"c+	c #B6B6B9",
"d+	c #B7B6B9",
"e+	c #C2C1C4",
"f+	c #BDBCBD",
"g+	c #B4B3B6",
"h+	c #B5B5B8",
"i+	c #B6B5B6",
"j+	c #B1B0B1",
"k+	c #B4B3B7",
"l+	c #B0AFB2",
"m+	c #ABAAAD",
"n+	c #C6C5C7",
"o+	c #B6B5B9",
"p+	c #B7B7BA",
"q+	c #C3C3C6",
"r+	c #C1C0C0",
"s+	c #B7B6B7",
"t+	c #B2B1B3",
"u+	c #C1C1C4",
"v+	c #C1C0C3",
"w+	c #C7C7C9",
"x+	c #BEBDC0",
"y+	c #BBB9BB",
"z+	c #B4B2B2",
"A+	c #BCBABC",
"B+	c #BCBDBD",
"C+	c #B5B4B7",
"D+	c #AAA9AB",
"E+	c #B4B2B3",
"F+	c #B8B5B5",
"G+	c #B5B2B4",
"H+	c #AEADB0",
"I+	c #ACACAF",
"J+	c #AFAFB0",
"K+	c #B3B2B4",
"L+	c #B0AEB0",
"M+	c #AFAEB0",
"N+	c #B1B0B2",
"O+	c #B8B7BB",
"P+	c #AFAEB2",
"Q+	c #ACACAE",
"R+	c #B0B0B1",
"S+	c #BCBCBC",
"T+	c #BBB8B7",
"U+	c #A7A6A8",
"V+	c #BFBFC2",
"W+	c #B7B4B3",
"X+	c #AEACAF",
"Y+	c #B7B8B9",
"Z+	c #B3B2B3",
"`+	c #B8B7B7",
" @	c #B0AFB1",
".@	c #B0AFB0",
"+@	c #B4B4B7",
"@@	c #B3B2B5",
"#@	c #ADABAE",
"$@	c #B9B7B8",
"%@	c #B5B4B5",
"&@	c #B6B4B7",
"*@	c #BBBABA",
"=@	c #B3B1B2",
"-@	c #ADACAD",
";@	c #AEACAE",
">@	c #ABA8AA",
",@	c #B8B6B8",
"'@	c #AEACAD",
")@	c #B5B4B8",
"!@	c #B0B0B3",
"~@	c #ADABAD",
"{@	c #BBB9BC",
"]@	c #BCB9B8",
"^@	c #B5B3B3",
"/@	c #B2B0B2",
"(@	c #AFACAD",
"_@	c #B1AEB1",
":@	c #ADADAE",
"<@	c #BCBBBB",
"[@	c #BAB7B8",
"}@	c #B3AFAE",
"|@	c #B5B2B2",
"1@	c #AEABA9",
"2@	c #B2B0B0",
"3@	c #AAA8AA",
"4@	c #B2B1B2",
"5@	c #B3B1B4",
"6@	c #ACAAAD",
"7@	c #BAB9B9",
"8@	c #B8B6B5",
"9@	c #BBB9BA",
"0@	c #ACABAD",
"a@	c #AFAEAF",
"b@	c #A9A7A9",
"c@	c #B3B0B1",
"d@	c #B8B4B5",
"e@	c #B0ACAB",
"f@	c #BDBBBB",
"g@	c #B1AFB0",
"h@	c #AFADAF",
"i@	c #C0BEBF",
"j@	c #B9B6B5",
"k@	c #B3AEAC",
"l@	c #B9B6B6",
"m@	c #BBBAB9",
"n@	c #B7B6B5",
"o@	c #B9B7B9",
"p@	c #AEAAAB",
"q@	c #B2AEAC",
"r@	c #ABA9AB",
"s@	c #ADACAE",
"t@	c #ACABAC",
"u@	c #B4B3B3",
"v@	c #BDBCC0",
"w@	c #BCB9BA",
"x@	c #BFBDBD",
"y@	c #B8B5B6",
"z@	c #ABABAC",
"A@	c #B3B1B3",
"B@	c #B5B5B5",
"C@	c #B3B0AF",
"D@	c #BCB9B9",
"E@	c #B4B0B0",
"F@	c #B7B5B6",
"G@	c #B3B1B1",
"H@	c #B9B5B4",
"I@	c #B4B1B2",
"J@	c #B0AEAF",
"K@	c #BFBFBE",
"L@	c #BAB9B8",
"M@	c #C1BFBE",
"N@	c #B4B2B1",
"O@	c #ACAAAC",
"P@	c #B7B3B1",
"Q@	c #AFADAD",
"R@	c #B0AFB3",
"S@	c #ABA9AC",
"T@	c #AEABAB",
"U@	c #AEAAAA",
"V@	c #BDBAB8",
"W@	c #BDBBBA",
"X@	c #B9B4B3",
"Y@	c #BAB7B6",
"Z@	c #B8B6B6",
"`@	c #BAB5B4",
" #	c #B7B4B5",
".#	c #A9A8A9",
"+#	c #A9A9AC",
"@#	c #B6B1B0",
"##	c #B1AEAE",
"$#	c #B6B5B5",
"%#	c #C3C0BF",
"&#	c #BEBAB9",
"*#	c #BFBBBA",
"=#	c #B0ADAD",
"-#	c #B6B6B6",
";#	c #C1BFBF",
">#	c #B7B5B5",
",#	c #B1AFAF",
"'#	c #BDBAB9",
")#	c #BDBABA",
"!#	c #BAB8B7",
"~#	c #BFBCBC",
"{#	c #C3C0BE",
"]#	c #C1BDBB",
"^#	c #B8B3B0",
"/#	c #B5B2B1",
"(#	c #AFACAC",
"_#	c #B0B0B0",
":#	c #C1BEBE",
"<#	c #ACACAD",
"[#	c #ACA7A7",
"}#	c #BFBAB9",
"|#	c #B8B4B3",
"1#	c #B8B6B4",
"2#	c #BEBCBE",
"3#	c #A6A5A8",
"4#	c #A4A3A6",
"5#	c #A7A7AA",
"6#	c #B5B1B0",
"7#	c #B7B4B2",
"8#	c #B2B2B2",
"9#	c #BCB8B5",
"0#	c #B9B4B4",
"a#	c #C0BCB9",
"b#	c #B9B9B9",
"c#	c #A8A8A9",
"d#	c #B3B4B5",
"e#	c #A4A3A5",
"f#	c #B0AAA7",
"g#	c #B2AEAE",
"h#	c #C1BFBD",
"i#	c #BBB6B3",
"j#	c #B7B2AF",
"k#	c #BEBBBB",
"l#	c #B5B4B4",
"m#	c #A8A8AA",
"n#	c #AEA9A5",
"o#	c #B0AEAD",
"p#	c #C1C1C1",
"q#	c #C5C6C6",
"r#	c #BBB7B6",
"s#	c #BEBAB6",
"t#	c #BAB6B5",
"u#	c #B0AFAF",
"v#	c #B3B2B2",
"w#	c #BDBEBF",
"x#	c #B9B8B7",
"y#	c #AFAFB2",
"z#	c #B3AEAE",
"A#	c #B0ACAC",
"B#	c #BBB9B9",
"C#	c #AEADAE",
"D#	c #B7B3B2",
"E#	c #AEABAC",
"F#	c #B7B4B4",
"G#	c #C0C1C1",
"H#	c #B4B2B4",
"I#	c #B1B0B0",
"J#	c #B7B7B7",
"K#	c #C2C0C1",
"L#	c #A2A1A3",
"M#	c #B9BABB",
"N#	c #BAB7B7",
"O#	c #B2B1B1",
"P#	c #BEBDBD",
"Q#	c #BEBCBD",
"R#	c #B4B4B4",
"S#	c #A7A7A9",
"T#	c #B3B3B3",
"U#	c #BEBCBC",
"V#	c #AFAFAF",
"W#	c #B8B8B8",
"X#	c #ACABAB",
"Y#	c #A4A3A4",
"Z#	c #B8B5B3",
"`#	c #A5A5A6",
" $	c #B1B1B1",
".$	c #B6B4B1",
"+$	c #B1B2B3",
"@$	c #B5B2B0",
"#$	c #ABA9A7",
"$$	c #ABABAB",
"%$	c #B5B5B4",
"&$	c #B2AFAC",
"*$	c #B2B3B3",
"=$	c #BABBBB",
"-$	c #A7A7A8",
";$	c #A3A3A4",
">$	c #A9A8AA",
",$	c #ABAAAB",
"'$	c #ACACAC",
")$	c #B4B1AF",
"!$	c #B0AFAE",
"~$	c #BFC0C0",
"{$	c #BCBCBB",
"]$	c #ABACAC",
"^$	c #A4A4A5",
"/$	c #949395",
"($	c #ACABAA",
"_$	c #ACAAAB",
":$	c #AEAEAE",
"<$	c #9B9B9C",
"[$	c #A2A2A2",
"}$	c #959596",
"|$	c #ADACAC",
"1$	c #ADADAD",
"2$	c #B1B2B2",
"3$	c #9F9FA0",
"4$	c #A2A2A3",
"5$	c #AAAAAA",
"6$	c #AAA9AA",
"7$	c #AFAEAE",
"8$	c #A9A9A8",
"9$	c #A3A2A2",
"0$	c #B0B1B1",
"a$	c #A6A6A7",
"b$	c #A4A3A3",
"c$	c #A7A8A8",
"d$	c #A5A6A6",
"e$	c #A6A5A6",
"f$	c #A8A8A8",
"g$	c #A6A5A7",
"h$	c #A8A6A4",
"i$	c #B0AEAC",
"j$	c #B7B7B6",
"k$	c #A8A7A9",
"l$	c #A8A7A8",
"m$	c #A4A4A4",
"n$	c #A5A5A5",
"o$	c #9F9D9D",
"p$	c #A8A7A6",
"q$	c #B5B4B3",
"r$	c #B7B6B4",
"s$	c #A9A9A9",
"t$	c #A2A1A2",
"u$	c #A4A3A2",
"v$	c #A7A7A7",
"w$	c #B2B0AF",
"x$	c #B6B5B3",
"y$	c #B9B6B2",
"z$	c #B6B5B4",
"A$	c #B0B0AF",
"B$	c #A7A6A7",
"C$	c #A3A3A5",
"D$	c #AEAAA7",
"E$	c #ABA8A5",
"F$	c #ABA9A8",
"G$	c #AAA9A8",
"H$	c #9E9D9E",
"I$	c #9E9D9D",
"J$	c #A6A6A6",
"K$	c #A9A9AB",
"L$	c #A5A5A7",
"M$	c #A5A4A5",
"N$	c #ADABAC",
"O$	c #A6A4A2",
"P$	c #ADABAB",
"Q$	c #A6A5A5",
"R$	c #AFACAB",
"S$	c #AAA9A9",
"T$	c #A5A4A4",
"U$	c #ABABAA",
"V$	c #A2A1A1",
"W$	c #9E9E9E",
"X$	c #A1A1A1",
"Y$	c #A5A4A6",
"Z$	c #A09FA0",
"`$	c #9E9B9C",
" %	c #AEADAD",
".%	c #A9A8A8",
"+%	c #A1A0A0",
"@%	c #9C9C9C",
"#%	c #A1A1A2",
"$%	c #9E9E9F",
"%%	c #A9A8A7",
"&%	c #AAAAA9",
"*%	c #A7A5A4",
"=%	c #ACAAAA",
"-%	c #A9A6A6",
";%	c #A1A0A1",
">%	c #ABAAA9",
",%	c #A7A6A6",
"'%	c #A5A4A3",
")%	c #A3A1A0",
"!%	c #A8A7A7",
"  . + @ # $ @ % & . * * = - ; > - , ' ) = ! ~ { ] ^ / . ( _ : < [ } | 1 2 3 4 5 6 7 8 9 0 a b c ! d c e f # g h i j k l m m n o ",
"p | q r s + t u a . v w r r x y z = A B z C / D E F G , H I > J K L M N ) O P Q I I R | S r T U V W X Y c ' Z ` Y  .....+.@.@.#.",
"| | $.8 %.W v q w &.. G F z | S *.3 =.} *.-.;.E D >.G ,.'.% ).!.~.{.].^./.(._.:.<.[.w = }.* |.1.' D ;.Y D f G 2. . .3.# 4.5.6.D ",
"- | @ 7.F @ 8.2.v w E 9.$.z 0.,.{ a.b.c.3 d.e.6 - ,.T f.g.h.$ ( + i.j.k.l.m.n.l.o.p.h.E q.r.E D ( ;.;.;.g.- ;.@.s.).Y @.t.u.v.w.",
"D ' g.% a x.y.}.&.r D . . * E z.1 D B A.B.p.- ( C.P = | D.E.P ~ g.F F.J y G.H.h.I.I J.|.^ r F K.;.V #.K.{ W ).9 { L.w.v.l i M. .",
"6 ' 2.7.x.[.q * ] [.0.| ;.; N.~ O.x.P.3 N.@ * ] | s * r - a v 8.y.Q.R.'.S.T.U.I.V.W.I X.r.Y.E , | = >.+ T G 2.' Z.3.w.w.w.@.@.;.",
"$.;.`.. a v ] V.E q.8 W.$.}.;.a z z F ^ z ] W.G V.*  +F 4 .+P ++g.Q.@+#+$+%+&+C.R.[.[.[.*+~ F = { v T - G =+-+;.G 7 W ;+6.>+,+-+",
"D ^ g.P.g.v r ^ - q.q.'+D B.)+.+F F r r r z !+~+x.r | z q.r {+]+W.1 ^+q./+W.; q.(+_+W.{+ +r.q.( . w 1.x.V ] ] E | c @ w.M.Y v.;.",
"W @ | x.F g.^ a E r r.q.E E g.V.F * :+g. +z ; ; F V.E q.Y.g.r./+/+f. +<+&+[.[+}+|+F 1+W.2+(+E G 6 E.V ).)+- R # #.s 3.v.3+w.4+X ",
"< 3.$.| z g.q.V.a u P ] v (+- E Y.* !+5+q.= ^+r.z F ; v r 1 z f.V.S ^+U.6+z 7+7+8+/+<+r.|+E.|.B.9+' g.g.).-+* 2.$.m -+@.i v.m #.",
";.D *.0+^ [.v v :+[.r :+r.}.g.r ; ; F F V.- E W.x.F [.* v  +v }.r R.; )+r  +* /+X.r r.q.[.v * * y.* g.- ( W }.).#.R @.3.a+b+Y a+",
";.x.g.; & a ] x.a [.x.a  +F ; W.!+; h.. r = / r ;.; -+z  +q.J.}.[.S y r (+[.r {+r..+r q.a E g.|.g.F c+{ g.6 ).L., 6.# -+W d+b+6.",
"x.x.r }.a e+$ a [.F % [.z x.r y q. +; z f+W.^ w ^ E F  +y.&+a z v ~ r '+I _ a x.r z F r 5 >.g.5+H ^ ;.. E W X #.2.+ g+2.h+2.Y u.",
"^ [.W.[.w a d+F  +P v [.; Y.[. +r z.* }.:+6 . e+7 = ' E V.J.F :+V.3 1.r r ; w :+V._+r r [.,.P G i+/ ,.W | =+-+j+k+h+$.3.c g+l+m+",
"= z q. +; 8.;.q }.] r x.E F ; z * :+r F * }.E |  += P e+q.; r n+^ i+1 z f.^ z ; ; ] ; x.9+V.:+G f.. ' L.,.' w.6.o+p+$.@ W # 4+X ",
"p @ q.W.^ O.+ v q+x.x.^ * * ] }.- - r+g.| D E v E @ 7 3.x.q.F x.' 3 * w r a . ; ^ ] | J.E V.( |.b s+N.g.;.,.$.l+l p d++ c g 4+t+",
",.$.z !+* P a u+q v+}.w+$.0.D ; E g.=+g.= ' K.c W 8 x+] w y.r K.( h.>.,.x.F 0+ +@ ).P *.. y+O.z+A+K.+ - B+C+v D+j p+` a+# v.3.# ",
". g.x !+$.. a ] v+% v ( $ g.d+* ;.^ c D 0.- 9 ).).g.f.P g.;.9.z 3.E+6 P - q.. ; R  .,.= @ ( = F+U G+K.).- 2.6 ;.Y Y R p+H+c+6.I+",
"| E * )+x.] $.W & . q.).] ' . 1 v @ J+g.q.#.L.R ).w 6 :+E E D / K+e.T O.$., @ G - =+g.v x.F ~ 1 V G L+M+6.K+).h X @ , # @.m l m+",
". E 5 ^ - u e+).v u 4 E @ + ( ] E #.K.).P K.,.^ T j d+F * R.b >.N.1.v @ K+V 8 6 ' q x.^ z x.!.O.N+/ - 3.R ( w.X =+2.O+4+b+6.P+Q+",
"$.$ = x.x.v = x+. |.F z.| { T ( D R+H D -+/ 9 >.-+#.=+K.^ >.6 $.V c S+$.7 $.T . 3.r w.R @ |.T+:+E+N.6 , V X #.-+K+l+X d+c U+,+@.",
";.;.T D 8   V+7.. ] y. +6 D g.. >.x+C+D = / - . . W R+L.. , $.c O.. / f+ .-+@ @ F ;.7 / ^ ^ W+e.,  .,.v.@ 9 X a+g + b+6.@.3+b+t+",
"C+$.;.v v + ;.x.v+@ E ^ ).g.8 ;.m ] V = # N+X+c 3.Y+c $.T ( >.' Z+`+. c ' g+L.W |.#.6 @ }.D O |.e.K+< 7 L.T R+#.2.#.2.C+` 6.w.V ",
"`...;.x.= 7.$.F   w+x.< $. @#.R D Z 2.@ d+5+# #. ..@V * ~ / D H ).O.1 D 6 ,.E 6 E a + , ).a O.G ..3.! >.K. @V ;.X Y +@2.@@C+4+4+",
"f+=+< ] @ $ T ).g.^ F ' |.R ..@@>.i+#@>.D b j C+3.] ;.L.W w ;.2./ $@x ' %@1.V T P T 8 < 6 ).w $ &@*@b ( R =@-@ @K+#.#.+ Y #.N.H+",
"B 2.( ;.^ x+8 * * @ w G P.$.V ;@K+N.N.T E { V -+& K+^ N.).E ,.2.O.f+E 3 = , * [.x. .$.Z.G N.>@,@, d.1.j+V 1.U ( '@c+)@c !@2.` v.",
"$.| p+q d+] ] 8 x.q.z . 6 a+N.< V ,.K+..K.6 8 W ).F 8 | = . v >.b : d.D ( t+- v ;.8 %@~@N.V D {@H ]@^@|./@V (@_@K+K+c a+W j :@d+",
"@ { W P &.^ & 9.a F r x.-+T ;.T >.| , >.^ 1 ;.P = v #.x.;.|.- i+<@d.E D b @ h.r |.R ] K+;.N.5 H s+[@}@|@1@b 2@t+3@Y 4@< N+b+5@6@",
",.K.p v $.t R a I x.E x+6 H # K+2.%@K.Z+|.z.i+D T , K.K./ |.z 7@e.8@Q Q 9@T s+~ g.W 0@a@b@N.Z %@x.c@d@e@f@b.g@t+=+C+h@V E+e.l+j ",
"2.{ < ^ c+&.x+q . W w g.^ ;.@ 6 ,.i@H i+= ' R ) h.j@k@l@G 5 K.c m@z+n@Q O b o@= E # w 9 # w.t+P =@b.D.p@q@O r@Q+s@g t@C u@T >+Q+",
"( ).c+% s $.^ . + E v p+x+v@6 f+1.s+s+%@L.p.f.r <@E !.: ) b w@, .@x@f@l@O.7@1.| ' =+-+(  .g+{ B | ~.y@h@~.# @@K+z@3+D+! o@e =+l ",
"-+D ^ q ' $ < ).P . F F v E / O. .A@B@B@1 3 B.5 E { @ f+q.5 H Z W+C@D@x@y@E@e.h.g D...! i+, :+F@G@H@I@V N.W N+l N+2.# K+J@;@N+-@",
"$ ] ] w &.).6 E x.T * P f.g.* H S+*@K@r K.b G 1.g.g.P <@S+- s+B O.L@M@]@N@ .1.$.C+/@O@%@j+%@Z H.,@P@Q@i+.@- c +@4+I+R@S@T@2@W+U@",
";.).@ $ @ x+. e+|.2.4  +q.| ' f+~ y 3 3.$@3 5+P.r D S ^ S H.B.2 $+V@W@X@Y@Z@{ { x.3.=+b K.a.a@E %@`@ #j+..#..#..m++#Y D+B@4@@###",
"-+,.2.c+] 7.$.] @ E q.~+!+p.5+i@`+x@$#~ ~ G 1.x | F S g.b g.J } M %#&#X@*#=#G@{ | ;+#.E a+,.-#5 '@;#H ' ' s v.Z.=+t+v.6.>#,#'#.@",
").C+d+v ] u+x.^ r = q.W.r F * 1 f+9@)#|.5+,.| 1 D g.S 5 = * z.!#~#{#]#^#/#(#^@L.| { v._#Y 9 K+K.e.:#2.W Y N.!@3+<#,+p+3+[#q@Z@4@",
"L.+@R ( x.^ x.] ; z r = z )+:+= P.2 3 a 5 ,.. - r S+| p. .* z.<@x@}#|#T+1#d.2#P.F c 3#;+o 6 w. @, b W # w.# 4#0@5#g+K.4.6#7#b 8#",
"#.$.% $.  < G E ; z r ; J.'+D E f+7@f+S 1.] | E g.)+x r E , H B '#9#0#a#~.9@,.b#D c#u.3+<#|.# s V H ` ,.:@# g d#e#b+3+l+f#g#i+K+",
"W . @ ;.| |.= V. +0.r r ~+; z . . ( H ; 1.' * D ~+E x ).x+| 3.r h#i#j#k#) l#b#= E L.{ @ . { @.L.` L.#.M.J+L.3+X <#m#g+6.n#o#Z+s@",
"2.2.#.. w a $.x.r.x z F ; .+F . ,.3 3 )+D ~ p#q#; E = g.,.P.- E Q r#s#t#5+u#Z+l+| W #.3.,.;.#.=+K.=+W l 3.#.>.l+<#l+2.{ (@v# @Q@",
",.#.p w#E . ( . x.z * x.E ; )+* '+H 1.{ B.Y.q.r.; !+~+E * z a D F x#n.1.K+s+2.F | l ,.| g.).| *.,.7 R+-+w.&.Y @@2.y#` g z#A#-+Z ",
"{ | @ E = E z @  +1 E z r ; E 0.)+n+E = F E q. +.+F r 0.= E F f+E { F+B#, { #.B.C#R+9 - . L.w.1.#.N+{ w.c+2.3.3+8 m+# g D#g@t+E#",
"9 D ;.E z.@ z 2.] E q.~+Y.w * 0.z.B.,.z P.x . B.'+Y.Y.B.= h.r ,.b#!.7@) f+K.- z.3.-+-+^ B@= | | -+g+;.Z.2.b+* -+v.a.;.#.F#(#Q+a@",
"9 b#s F ^ | G#).z E q.F E )+x S * ,.4@g.9 * ~+.+'+!+'+F ~+D ^ ,.P./ A+H#D { D ' p#Q+f W ..R+1.L.3.#.c ' 2.-+g.*.@.{ -+' 1.J@-@I#",
";+J#W ,.- @ P.g.E )+B.~+)+Y.B.~+~+B.S+b#P.g.}+r 0. +z 3.z.z.r $.p#K#f@5 G Z.,.9 0.' <#U+D L#;+' $.Q+3.b+-+- ,.;+w.v.K.K+o#r@v.V ",
"z@=+2.;.@ ;.= D M#x ~+g.g.r - g.p#3.O.= *.5+z E !+5+p#B.g.D  .S+s+f+F#N#| B@' =+* $.J+;+..Z.K.=+L.Z.K.w.e #.$.c 1.Y 3. @O#a@e =+",
"I+J#Y $.p #.| ).- r z )+r )+p#`.p#{ -#| ,.B.G#P..+5 S+S+- | 3.S+P#3.Q#E@f+R#- D g.f #.l S#D # 9 9 { 3.;.f Y 3.#.t+' W T#;+.@-.# ",
"R+,. .. ,.6 - | p#~+= )+g.v D g.g.`.x ,.L.D x a.0.x S+,.' x P.- - | z+U#3 n 9 *.;.L.3+ .;+V#z@ .a.Q+3.9 W#| = S+j+T ' 3.}@;+X#X ",
"f  .;+-+-+' . { E r P.5+* P.D B.,... . .5+B.p#a.P.0.b#p#D B.= >.p#O b B { B@- ,.9 E -+L.Y#f g =+b+D+;+s@Z. .3...L.#. .x#Z# .=+Y ",
"R+ .#.W # | ).W P.r { B.P.`.' p#5 B.- P.x S+x S+{ B. .,.L.* `.`.= | 5+A.-#{ *.b#W#=+D 9 a.a.J+, f `# $3.b+5+9 # t@ .%@.$Y@G@T#_#",
"f Y ).3.3.D  .L.= D a.L.* )+p#`.)+E | `.g.p#W#- - E - W#{ B@*.* z.s+A >#H L.z.D `.{ L. .f ,.3++$z@<#`#R#;+W#9 J+z@R+v#O @$#$$$%$",
";+w.=+).D ' T { { ' 3.B.)+z.P.S+z.| 9 = 3.a.5 B.| g.z.O.3.L.5+p#,.f+A.a.*.9 S+R+5+p#:@+.=+f T#v.;+ $8#N+ .a.;+f `# $J#o#&$o#;+b ",
";+*$3.3.3.' L.| ' ' { =+S+R#D D | = D - a.B.*.a.' `.S+{ W#*.g.)+J#Z A.= B@..3.;+;+=$:@-$J+;$>$f J#<#-$<#R+n $$<#,$'$;+_#)$!$-#A ",
"f Z.3.a.,.3.M#B.{ ,.- ' Z `.J#5+b#{ - { *.{ b#p#B@B.' ~$' a.B+P.L.3 {$i+f+' a.u.]$B@^$J+z@m#/$<#-#..+.W#c#z@ $..Q+;+($_$Z@b#.@B@",
":$-# . .{ D { B.Z.3.' 3 ' O.g.*.F 3.=+3.*.S+..=+O.b#b#b#=+L. .- ,.a.J#' *.' =+L.<$-$z@z@[$}$+.;+R+$$n  $Z.-$..'$Z.z@|$s@R#R#1$a@",
"Z.T#f 9 ' ' { =+{ - L.{ 2$ .a.S+B.W#L.{ ,.9 -#9 3.{ B@J#T#-#3.S+W#C#v#;+R#9 { P.{ :$<#..+.3$;$:@n ..z@Z. $4$5$$$Z.6$J+7$!$8$9$<#",
"0$_#R+;+' -+,.- ).' D { Z.-# .L.,.*.H i+;+9 ;+b#5+`.`.S+9 9 z@-#D J#8@1.B.*.*.1.;+T#J#9 R#1$<#z@a$<#R++.f b$c$-$d$:@.@-$I#e$;$f$",
"J+f <#3.Y ,. .' L.J+9 L. .R+-#-#-# ...;+<#S+ .@...L.,.{ Z+J#O.D z.P.l#;+= 3.a.3. .R+l a.8#T#N+:@f -@1$:@g$Y#$$,$-@z@R+:@h$a@:@+.",
"`#8#;+{ =+=+J+3.Z.R#J+=+B@W#9 b+8#:$ $'$c#5+8#'$L.T#3.`.R#J+_#*. . .i$j$B@L.<#{ a$J+R+:@4@:$..c#b#..R+k$l$m$z@5$c#9 Z.n$o$p$t@4@",
"$$# <#%@4@-+=+W#..8#..f B@`.W#J#=+T#f <#..J+9 J#a.R+Z.3.;+9 =+S+T#q$r$`.a.Z.L.3.4@;+T#5+R+ $<#5$Z.V#:@9 Z.1$z@s$z@;$J+:$t$u$v$>$",
"<#K+8#B@<#' R+Z.$$J+1$T#T# .V#R#f  .Z.Z.R#8#4@9 5+ $R#=+ $R+L.a.w$x$y$z$a@..:@ .R#9  .N+2.;+n '$b#A$9 <#$$_#-$'$.@1$Q+5$n$B$b$s$",
"[$ $.#$$$$J+B@J+Z.B@T# $V#_#4@-#_#J+c#f z@R+C$V#=+T#1$z@-#{ =+i+O#8@D$E$<#n B$8#f +.f <#Z.g J+-$V#F$,$Z+.@L.G$9$1$<#-$H$;$I$Y#n$",
"c#+.$$$$_#1$n T#.#J$c# $a$T#a@z@R+J+K$+.t$R+z@L$e M$e$B$T#' V#1$N$C#^@O$P$Q$t$f n z@.#z@`#a$g$-$f z+Z 3.X#R$S$T$,$+.-@Y#U$S$9$V$",
"W$4$m$J$;$X$c#a$+.n$Y$`#l$<#k$-@n 3$h J+Z$h +.>$+.4.f s$R+ $`$ %.%b$+%S$d m$@%Y#v$f$#%$%g$-$S$'$%%&%S$l$*%%%=%-%G$;%>%V$,%'%)%!%"};
