/* XPM */
static char * wall4_v2_xpm[] = {
"64 64 481 2",
"  	c #CAC8C9",
". 	c #CCCCCC",
"+ 	c #D1D1D1",
"@ 	c #CDCCCC",
"# 	c #CECDCD",
"$ 	c #CFCECF",
"% 	c #CCCBCB",
"& 	c #CBC9CA",
"* 	c #D0CFD0",
"= 	c #CECCCC",
"- 	c #C1BFC0",
"; 	c #CFCDCE",
"> 	c #C8C7C8",
", 	c #CBC8C7",
"' 	c #CECECE",
") 	c #D4D2D3",
"! 	c #C6C5C6",
"~ 	c #D2D1D2",
"{ 	c #CFCFD0",
"] 	c #D0CFD1",
"^ 	c #CDCCCD",
"/ 	c #CBC9CB",
"( 	c #D4D2D4",
"_ 	c #D1CFD0",
": 	c #C7C6C7",
"< 	c #CECDCE",
"[ 	c #C4C2C2",
"} 	c #D2D0D2",
"| 	c #CAC9CA",
"1 	c #CECCCD",
"2 	c #D2D0D1",
"3 	c #CFCDCD",
"4 	c #CCCACA",
"5 	c #CAC9C9",
"6 	c #CECDCC",
"7 	c #CBC9C9",
"8 	c #C9C7C7",
"9 	c #C9C6C5",
"0 	c #D0CECD",
"a 	c #D0CECC",
"b 	c #D1CDCA",
"c 	c #CBCACB",
"d 	c #D1D1D2",
"e 	c #D4D3D4",
"f 	c #D1D0D1",
"g 	c #CCCBCC",
"h 	c #D2D1D1",
"i 	c #D2D0D0",
"j 	c #D1CFCF",
"k 	c #CDCBCB",
"l 	c #CCCBCD",
"m 	c #D5D4D5",
"n 	c #D3D2D3",
"o 	c #D7D6D6",
"p 	c #D3D1D2",
"q 	c #D6D3D5",
"r 	c #D5D3D4",
"s 	c #D6D4D5",
"t 	c #D0CECF",
"u 	c #D8D7D8",
"v 	c #D6D5D5",
"w 	c #D0CDCE",
"x 	c #C6C3C5",
"y 	c #D1D0D0",
"z 	c #D3D2D2",
"A 	c #D3D1D1",
"B 	c #D3D2D1",
"C 	c #D2CFCE",
"D 	c #D0CDCD",
"E 	c #D6D5D4",
"F 	c #DAD7D6",
"G 	c #D9D6D3",
"H 	c #C1C0C2",
"I 	c #C0BEC0",
"J 	c #D5D2D4",
"K 	c #CDCBCD",
"L 	c #D0CFCF",
"M 	c #D7D6D7",
"N 	c #D7D5D6",
"O 	c #CFCDCF",
"P 	c #CCCCCD",
"Q 	c #D3D3D3",
"R 	c #DAD9DA",
"S 	c #D6D5D6",
"T 	c #D5D5D5",
"U 	c #D9D7D8",
"V 	c #D4D3D3",
"W 	c #CFCECE",
"X 	c #D5D3D1",
"Y 	c #D8D7D7",
"Z 	c #D9D6D6",
"` 	c #D9D8D6",
" .	c #C9C9C9",
"..	c #C7C7C8",
"+.	c #CBCBCB",
"@.	c #D8D6D7",
"#.	c #CECDCF",
"$.	c #DADADA",
"%.	c #D9D8D9",
"&.	c #D2D1D3",
"*.	c #D9D9D9",
"=.	c #DAD8D9",
"-.	c #DBD9DA",
";.	c #DBDADB",
">.	c #D6D6D6",
",.	c #D0CECE",
"'.	c #D6D4D4",
").	c #D6D4D3",
"!.	c #DCDBDA",
"~.	c #DAD9D7",
"{.	c #D9D6D5",
"].	c #CDCDCE",
"^.	c #CDCDCD",
"/.	c #CECECF",
"(.	c #D2D2D3",
"_.	c #D9D8D8",
":.	c #D6D5D7",
"<.	c #D9D8DA",
"[.	c #D4D4D5",
"}.	c #DBDADA",
"|.	c #DCDADB",
"1.	c #D7D7D7",
"2.	c #D3D1D3",
"3.	c #D2CFD1",
"4.	c #D8D8D9",
"5.	c #DAD9D9",
"6.	c #D5D4D4",
"7.	c #D2D2D2",
"8.	c #DAD9D8",
"9.	c #D7D6D5",
"0.	c #DBD9D7",
"a.	c #D7D5D4",
"b.	c #D8D8D8",
"c.	c #D5D5D6",
"d.	c #D1CFD1",
"e.	c #D4D3D5",
"f.	c #DCDBDC",
"g.	c #D7D5D5",
"h.	c #D7D6D4",
"i.	c #D3D1CF",
"j.	c #D4D4D4",
"k.	c #D5D4D6",
"l.	c #D1D0D2",
"m.	c #D9D9DA",
"n.	c #D6D6D7",
"o.	c #D7D6D8",
"p.	c #DEDDDE",
"q.	c #D5D2D2",
"r.	c #D8D6D6",
"s.	c #D9D7D6",
"t.	c #D9D8D7",
"u.	c #DEDCDA",
"v.	c #D8D5D3",
"w.	c #D0D0D0",
"x.	c #D3D3D4",
"y.	c #DCDCDC",
"z.	c #DDDCDD",
"A.	c #DBDBDB",
"B.	c #D9D7D9",
"C.	c #DBDAD9",
"D.	c #D7D4D2",
"E.	c #DDDDDE",
"F.	c #DEDEDE",
"G.	c #DEDDDD",
"H.	c #DADADB",
"I.	c #DCDCDD",
"J.	c #D1CED0",
"K.	c #CFCCCD",
"L.	c #CFCDC9",
"M.	c #C4C3C4",
"N.	c #DDDCDE",
"O.	c #E0E0E1",
"P.	c #D6D4D6",
"Q.	c #D5D3D3",
"R.	c #DBDAD8",
"S.	c #CDCAC7",
"T.	c #BCBBBD",
"U.	c #D7D7D8",
"V.	c #D0D0D1",
"W.	c #DFDFDF",
"X.	c #E1E1E1",
"Y.	c #D6D4D7",
"Z.	c #D3D2D4",
"`.	c #D5D4D3",
" +	c #D8D6D5",
".+	c #CECBC9",
"++	c #BFBFBF",
"@+	c #D6D6D8",
"#+	c #E0E0E0",
"$+	c #DBDBDC",
"%+	c #D6D3D1",
"&+	c #C9C8C9",
"*+	c #DDDDDD",
"=+	c #D8D6D8",
"-+	c #DCDBDB",
";+	c #D8D7D6",
">+	c #DDDBDA",
",+	c #D1CECB",
"'+	c #C2C1C3",
")+	c #DEDEDF",
"!+	c #DBDADC",
"~+	c #D8D7D9",
"{+	c #D5D3D5",
"]+	c #D2CFD0",
"^+	c #CECBC8",
"/+	c #CBCBCC",
"(+	c #E0DFE0",
"_+	c #DAD9DB",
":+	c #DAD8D8",
"<+	c #D4D1CF",
"[+	c #C5C5C6",
"}+	c #CFCFD1",
"|+	c #D4D1D2",
"1+	c #D1CECF",
"2+	c #DBD9D9",
"3+	c #DBD9D8",
"4+	c #D3D3D5",
"5+	c #D7D5D7",
"6+	c #D0CDCB",
"7+	c #C1C0C0",
"8+	c #DFDFE0",
"9+	c #DCDADA",
"0+	c #C7C3C1",
"a+	c #DCDBDD",
"b+	c #E1E0E1",
"c+	c #DFDEE0",
"d+	c #E2E1E2",
"e+	c #E2E2E2",
"f+	c #DDDCDC",
"g+	c #CDCCCE",
"h+	c #E3E3E3",
"i+	c #CACACB",
"j+	c #CFCED0",
"k+	c #DFDEDE",
"l+	c #DFDEDF",
"m+	c #CBC9C6",
"n+	c #C5C4C5",
"o+	c #DEDDDF",
"p+	c #D5D2D1",
"q+	c #CBCACC",
"r+	c #DAD8DA",
"s+	c #E0DFE1",
"t+	c #D9D7D7",
"u+	c #C8C6C4",
"v+	c #D1D1D3",
"w+	c #D8D9D9",
"x+	c #DEDCDD",
"y+	c #D0CDCA",
"z+	c #CACACC",
"A+	c #D2D0CF",
"B+	c #D3D0CF",
"C+	c #D8D8DA",
"D+	c #E1E1E2",
"E+	c #CDCBCE",
"F+	c #D0CDCC",
"G+	c #E3E3E4",
"H+	c #E4E4E4",
"I+	c #E3E2E3",
"J+	c #E0DFDF",
"K+	c #CFCCCB",
"L+	c #E2E2E3",
"M+	c #D6D4D2",
"N+	c #D8D5D5",
"O+	c #DADADC",
"P+	c #D5D5D7",
"Q+	c #D2CECD",
"R+	c #D4D4D6",
"S+	c #E2E1E3",
"T+	c #DCDAD9",
"U+	c #D6D3D2",
"V+	c #C9C9CA",
"W+	c #CAC9CB",
"X+	c #E4E3E4",
"Y+	c #D1CDCC",
"Z+	c #D4D1D0",
"`+	c #CFCFCF",
" @	c #CECCCE",
".@	c #CFCDCC",
"+@	c #D4D2D2",
"@@	c #CCC9C8",
"#@	c #DCDCDB",
"$@	c #DAD7D8",
"%@	c #DDDDDF",
"&@	c #D8D8D7",
"*@	c #D6D3D3",
"=@	c #CBC9C8",
"-@	c #CDCAC9",
";@	c #CCC9CB",
">@	c #E1DFE0",
",@	c #D2D2D4",
"'@	c #D3D1D0",
")@	c #D2D0D3",
"!@	c #D1CFD2",
"~@	c #DFDDDE",
"{@	c #D4D2D1",
"]@	c #D0CED1",
"^@	c #CBC9CC",
"/@	c #D7D8D8",
"(@	c #CDCBCC",
"_@	c #D2CFCD",
":@	c #C9C8C8",
"<@	c #D0CED0",
"[@	c #D4D3D2",
"}@	c #C9C7C8",
"|@	c #C2C1C1",
"1@	c #C1C0C1",
"2@	c #CACACA",
"3@	c #CECCCB",
"4@	c #CBC8C8",
"5@	c #C8C6C8",
"6@	c #C3C2C3",
"7@	c #D1CFCD",
"8@	c #BFBEBF",
"9@	c #CAC7C9",
"0@	c #CCCACB",
"a@	c #D2D3D2",
"b@	c #C4C1C0",
"c@	c #C2C1C2",
"d@	c #C6C6C6",
"e@	c #D1D0CF",
"f@	c #C3C3C4",
"g@	c #C8C8C9",
"h@	c #C7C7C7",
"i@	c #CBCACA",
"j@	c #D2D1D0",
"k@	c #C6C4C3",
"l@	c #C0BFC0",
"m@	c #BDBBBC",
"n@	c #C8C6C7",
"o@	c #CAC8CA",
"p@	c #BEBDBE",
"q@	c #C4C2C3",
"r@	c #C6C5C5",
"s@	c #C9C6C7",
"t@	c #CCC9CA",
"u@	c #C6C4C4",
"v@	c #CCCACC",
"w@	c #C7C5C6",
"x@	c #C1C2C3",
"y@	c #C6C6C7",
"z@	c #C8C8C8",
"A@	c #C8C7C7",
"B@	c #C8C7C6",
"C@	c #B9B9BA",
"D@	c #B9B9B9",
"E@	c #BDBCBC",
"F@	c #CDCACB",
"G@	c #C0BFBF",
"H@	c #C4C3C3",
"I@	c #D0CFCE",
"J@	c #C9C7C6",
"K@	c #C1C1C1",
"L@	c #C5C3C4",
"M@	c #C9C7C9",
"N@	c #C7C4C4",
"O@	c #CCC8C9",
"P@	c #D5D2D3",
"Q@	c #D9D6D7",
"R@	c #CDCACC",
"S@	c #C0C0C1",
"T@	c #BFBFC0",
"U@	c #C5C5C5",
"V@	c #C5C4C4",
"W@	c #CCCCCB",
"X@	c #C3C3C3",
"Y@	c #C7C6C6",
"Z@	c #C9C8C7",
"`@	c #C8C6C6",
" #	c #CBCAC9",
".#	c #BBBABB",
"+#	c #BDBBBD",
"@#	c #C4C2C4",
"##	c #C8C5C7",
"$#	c #C9C5C6",
"%#	c #C2BFC0",
"&#	c #CECBCB",
"*#	c #C3C2C4",
"=#	c #BBBABC",
"-#	c #C3C2C2",
";#	c #CAC8C8",
">#	c #CDCDCC",
",#	c #C8C8C7",
"'#	c #C7C6C5",
")#	c #B9B7B9",
"!#	c #B9B8B9",
"~#	c #C2C0C1",
"{#	c #C7C6C8",
"]#	c #CBC8C9",
"^#	c #D4D0D1",
"/#	c #BDBDBE",
"(#	c #B8B7B8",
"_#	c #B3B2B2",
":#	c #B6B5B6",
"<#	c #B2B1B2",
"[#	c #C0BFC1",
"}#	c #BDBCBD",
"|#	c #CCCBCA",
"1#	c #C7C5C5",
"2#	c #C3C1C1",
"3#	c #B5B3B4",
"4#	c #BCBBBC",
"5#	c #B7B5B7",
"6#	c #BEBEBF",
"7#	c #B8B7B7",
"8#	c #BAB8B8",
"9#	c #BFBCBC",
"0#	c #C4C1C1",
"a#	c #CAC7C7",
"b#	c #CAC8C7",
"c#	c #D3D0D0",
"d#	c #CEC9C9",
"e#	c #D1CECE",
"f#	c #C7C3C3",
"g#	c #C4C0BF",
"h#	c #CECACB",
"i#	c #C7C5C7",
"j#	c #C9C6C8",
"k#	c #C4C0C2",
"l#	c #B6B4B6",
"m#	c #BAB9BB",
"n#	c #B6B5B7",
"o#	c #BBBBBB",
"p#	c #B3B2B3",
"q#	c #BBB9BB",
"r#	c #BAB9B9",
"s#	c #B7B6B6",
"t#	c #BBBAB9",
"u#	c #B8B6B6",
"v#	c #B8B6B8",
"w#	c #ACABAC",
"x#	c #B2B1B3",
"y#	c #B1B1B2",
"z#	c #BCBABB",
"A#	c #B9B7B7",
"B#	c #C3C1C3",
"C#	c #C2C0C0",
"D#	c #BEBCBB",
"E#	c #C3C1C2",
"F#	c #B5B3B3",
"G#	c #B6B4B4",
"H#	c #B8B5B6",
"I#	c #BBB9BA",
"J#	c #BBB8B9",
"K#	c #BBBABA",
"L#	c #C7C4C5",
"M#	c #C7C5C4",
"N#	c #D1CECD",
"O#	c #CDC9C8",
"P#	c #C7C4C3",
"Q#	c #C8C5C5",
"R#	c #CFCCCC",
"S#	c #CCC8C8",
"T#	c #CAC7C6",
"U#	c #BCB9BA",
"V#	c #C2BFC1",
"W#	c #B7B5B6",
"X#	c #C1BFC1",
"Y#	c #ACAAAD",
"Z#	c #A9A8AA",
"`#	c #A5A4A6",
" $	c #ACAAAC",
".$	c #AFADB0",
"+$	c #B0B0B0",
"@$	c #AAA9AA",
"#$	c #B7B6B7",
"$$	c #AAA9AB",
"%$	c #B1AFB0",
"&$	c #BAB8BA",
"*$	c #B1AEAF",
"=$	c #AFAEAF",
"-$	c #A09FA0",
";$	c #9D9C9E",
">$	c #A6A5A6",
",$	c #B9B7B8",
"'$	c #ADABAB",
")$	c #AEACAC",
"!$	c #B2B0B1",
"~$	c #BAB9BA",
"{$	c #B5B5B5",
"]$	c #B6B6B7",
"^$	c #B0AFAE",
"  . + + @ @ + # $ % & * = - ; * > , '   ) &   ! + ~ { ] ^ / ( _ * : & < [ & } | ; 1 = ; 1 2 < & _ ^ ; 3 4   % 5 6 7 8 9 0 9 a b ",
"c c d e f g h i ) _ ^ @ = j f $ ^ k l m * ) * * n o ) e p 2 q r s t 2 u v _ v g m r m w x f g @ p y n z p i y p A B k C D E F G ",
"H I + n J p 6 y j ) * K L _ < 2 e g M N r O P c Q M M s r e R m M $ e S T M ~ M o R U s p p V ~ ) m p ) A L 2 W p e o X Y Z F ` ",
" ...+.Q p p S V p @.f T 2 g m #.~ { $.$.* f $ f r R %.e ) m u u m &._ u R *.Y 2 =.-.;.>.n 2 ,.W V Y 2 e _ z e z V V A '.).!.~.{.",
"].~ ^./.$ (.+ _.v o @.2 ) . :.d f { <.%.(.u [.g }.}._.|.Y 1.;.2.:.< 3.%.4.S 5.6.}.=.%.u e ) p p 7.M T V r o r V 6.m 8.o 9.).0.a.",
"< m + ~ + T y M o m V z Q L 4.(.6.T b.c.(.d.$ e.*.R f.;.%.T c.* f S m u u z S ) @.V 5.p 1 m m z 1.b._.@._.@.v S m v _.g._.).h.i.",
"| [.j.( T k.y v n ) h * p ,.m n M l.m.n.*.+ f S -._.>.e 4.m.o.e n.:.~ p.R S N z q.r.M r g V v M 1.v S _.m M m e >.Y z s.E t.u.v.",
"w.T *.b.e m n.%.b.z 2 j.L $ 1.x.Q + m y.y.%.x.n R z.y.A.M %.M m.T B.M g.N R S 2.=.O ~ f ~ ( r y N o _.m r R M 1.Y >.o g.z 5.C.D.",
"^ M A.o R $.*.%.*.M b.T g >.*.[.c.[.E.F.R %.d u S G.z.R *.H.T I.;.m.e ;.M 6.p J.n ; h 2.e e S K.p 5.o r m ;.m Q 7.w.~ j t.).0.L.",
"M.Q n.%.:.u [.*.b.$.m m n n *.*.Q T *.m.m.A.* >.H.1.y.*.y.u N.O.I.n.M *.j.o ) } f [.e M S S P.V e e V @.6.o %.M T Y r Q.z _.R.S.",
"T.* 1.*.:.U.>.U.Q S c.u j.f Y n.].V.*.m.;.U.l V.c.b.F.m.H.A.E.W.X.c.S H.Y.n 2 e f v g r M Z.%.2 W * * S e %.m $ L }.6.Q.v `. +.+",
"++P n.u [.@+T z.H.R T >.T d y.[.l.$.f.b.m.e S n.1.f.E.y.H.*.R #+$+U.V.T %.o e e e.7.f M m n.e K.3.7.5.$.%.*.m T M b.M s a.g.s.%+",
"&+..m 1.{ (.c.1.M ;.P.u (.j.n.[.{ 4.n.E.*+H.S x.u m.H.I.;.A.X.W.y.f.S %.=+m e $ 2.[.z n ;.f.6.2 2 M @.R Y -+1.v >.R o N ;+8.>+,+",
"'+].V.Q m >.V.S $.n.[.n V.^ $.Q w.u I.U.$.A.S S $.M b.1.)+I.#+!+b.A.-+~+o.[.l.f N {+m r A.s r ]+6.r 1.}.b.%.u b.-+5.S =.r }.!.^+",
"..].7.x.U.[.[.M 1.m.d.[.e /+c.(./.A.(+E.*+T c.4.$._+[.R N.A.$+E.m.%.f.f.4.S m f ;.;.v s v _.b.s p r M -+*.;.%.z =.@.=.:+Y =.t.<+",
"[++ x.n.n.m.x.U.d b.f n.f /.4.[.~ U.)+$+U.b.1.}+b.$.m.%.R ;.z.$+$.H.f.H.}.e n.;.S %.5.t.@.W.S |+1+^ n u m ;.*.A.A.%.}.}.2+G.3+C ",
"..j.k.c.4+[.(.$+4.$+4.5+( n 1.n.n.n.E.y.R %.e c.:.e ;.$+N.y.E.I.M !+4.A.o }.x.2.A.z._.M ;.@.M r ]+z M ;.M M b.@.}._.5.@.s r.C.6+",
"7+V.c.m c.n.j.m.$+R M f z [.M (.&.m.R $.O._.~+U.S M *.I.N.p.E.8+I.H.*+R *.e c.m z.y._.$.%._.M ) N Y u ;.;.A.m U u S @.o N 9+g.0+",
"# Q u 4.f n.Q 4.z.A.z.m ~ &.a+U.c.I.*+b+O.(+U.H.)+c+b.)+#+d+e+X.E.8+;.R f+2.>.*.G.;.v *+y.f.%._ $.o S $.>.*.S b.Y M s e r N 9+S.",
"n :.>.[.^.M V m.S u b.e g+n.*+Z.(.W.O.h+E.)+;.R N.#+I.y.8+)+X.y.E.A.E.e+f+>.%.@.}.5.f.M F.%.z.t 1+V ~ *.*.1.Y }.o z L Q.h h ).9 ",
"i+d V.m 4.4.4.s s c.%.V.e.c.4.n j+$.E.*+*+)+A.u u *+H.H.)+W.)+$+z.F.a+O.k+*+;.-.l+$+A.8+E.p.$.M S S V.b.*.j.V._ U.n b.s v i a.m+",
"n+/.x.[.[.e.;.e.o.n.<.{ > d x.>.n I.8+I.A.$+y.n.$.$.$+I.A.E.I.)+A.H.n.R A.f.)+p.o+H.O.U.p.z.[.e T [.(.:.~++ S n.u u Q ~ n v }.6+",
"..T u M U.%.o.S e j.S $ + { $.[.f R )+8+E.E.m.a+y.m.%.W.E.o+8+8+E.H.I.)+z.O.*+E.z.%.u m $.B.$.[.N m u e.~ j.m 1.< n (.>.R n o p+",
"q+[.c.T c.u 4.M $ c.* M < V.M :.{ r+4.W.8+E.N.I.$+H.[.p.$+#+F.8+#+*+y.s+W.%.f.m.f.;.E.f.R -.v z |.%.u u 1.u M n T S >.N N S t+u+",
"].}+v+f n e e 1.;.n.w+V.n ].4.T n M E.I.y.U.a+U.j.E.R $+y.I.F.8+f.p.*+%.f.f+1.A.m.4.b.f+G.o x+P.z.A.%.7.1.M ;.u n S o @.r @.t+y+",
"j+j.l.T e S k.;.$.e l.{ * z+c.x.c.m.H.!+4.<.:.k.H.A.y.I.$+m.E.A.)+A.m.o+$+A.+ f.A.R f.(+p.R |._.R %.$.T e %.1.f ~ ~ S N S U A+B+",
"+ e ~ n.S o ~+4.$+;.n &.&.U.A.~ &.4.~+p.)+)+E.C+I.b+l+8+D+)+W.8+y.H.o+*+p.z.M m.$+4.u (+X.p.-+M f.y.E.;._+A.A.R M u 5.S U U t.0 ",
"x.Q S 1.:.~+m y.$+%.:.{+E+x.A.$ [.*.E.H.F.)+!+A.;.D+)+s+X.8+#+E.E.(+X.8+f.p.%.$+$+m.A.b+h+R l+-+z.y.$+$.A.y.z.y.m.$.S R U }.;+F+",
"x.T n.x.l.%.S ~+_+I.$+n j+Z.H.e.C+m.y.O.8+!+p.z.O.h+G+d+e+e+)+D+H+X.h+H+I+$+*.R b.z.A.X.f.F.J+!.G.F.E.y.u 5+4.R $.%.N Y o -.s.K+",
"* e c.u >.M ;.u _+R R e c.e 4.o.<.F.)+z.D+O.m.)+F.E.X.I+O.H+e+O.G+#+d+b+L+J+R 4.$.I.*+F.#+)+}.t+r.y.[.U.n.S m v N S U o 2 |.9.M+",
"e U.:.U.P.m.$+a+$+!+4.:.~ c.H.U.1.z.E.h+(+!+E.!+#+O.D+(+c+D+G+(+O.y.#+W.X.F.b.$+I.8+I.-+A.%.N+g.:+u -.%.S U.u l.m ~+M }._.) a.i.",
"j.*.M ] m H.A.E.u %.*.m &.{ O+P+(.f.E.A.)+F.m.o.E.8+E.*+)+l+X.D+e+D+e+#+h+E.M }.R F.E.*.$.b.5.%.2+A.v %.%.v m p b.;.b.5.=.-.s.Q+",
"Q c.1.n &.k.m.4.n.$.m.c.] l.R+j++ U.p.8+$.H.A.y.)+(+O.E.S+d+h+8+f+e+I+e+X.$+M $+z.$+F.W.u u 2+Q.-+f.*+-+U Y m >.u f.5.R 5.}.T+U+",
"T c.l e.o.r+R o.~+m.R /.V+&.:.W+Z.f.H.F.z.I.R m.z.W.W.z.#+O.e+e+G.8+h+8+k+z.[.H.y.H.z.A.A.y.U $.W.y.k+f.%.U u b.A.$.$.*.U }.t+K+",
"(.[.n.x.k.f.<.<.~+I.U.&.Q x.%.d m.$.H.E.)+$+_+;.)+8+b.I.8+8+e+D+)+#+X+h+)+f.%.b.y.E.y.F.;.A.$.%.A.)+-+f.r+*.f.R R >.1.}.M -.'.Y+",
"+.' [.$ ~ R u c.%.%.>.{ n T $.e.(.b.R $+c+;.I.p.I.W.#+y.y.#+8+#+)+W.e+X.D+O.;.5.$.*+4.A.A.I.b.U $.#+u $.u y.*.}.T $.e A.$.5.:+Z+",
"`+* V.x.O o.U.S Q m (.] V.x.b. @/+U.$+$+#+*+H.H.*+H.F.E.W.p.l+b+F.X.b+p.e+;.n.>.H.m.$.$.A.*.l+f.F.*+N R m.R @.$.$.$.v R ;.-+'..@",
"* + #.e.Z.u [.M 1.c.{ k.d T j.] V.m.I.8+8+(+u u E.E.A.F.I.I.F.E.F.X.D+#+X.R =.y.H.I.*.W.;.A.%.I.F.*+M a+A.U.R H.H.*.u S U >.+@@@",
"^ V.(.x.{ T :.m.k.R [.m < Q c.#.{ 1.A.N.f.W.l+u z._.u l+b+8+l+W.z.#+G+X+e+F.H.b+W.#+8+A.y.p.#@f.}.$.R N v b.I.*.j.A.6.s $@s j @@",
"$ > ~ O g+R e k._+b.[.~ `+f n.V.&.%@$.8+y.l+*+%.F.y.1.*+E.r+z.p.F.;.W.W.h+(+;.F.z.p.H.%.I.$+*.I.y.u S ;.$.A.M $.>.T _.U b.p '.6+",
"c f j+n e %.o.$.4.T f ^ $ e %.c.d )+%.f.)+*.U.u M I.$+A.R f.)+;.y.u W.)+F.$+f.c.f.b+U.y.z.*.H.%.$.<.>.*.$+1.Q &@b.f v M t _.*@=@",
"V.7.f &.u %.U.S T e.* V.j+w.M ~ c.a+<.[.A.b.~ A.a+$+;.y.z.I.#+E.p.(+b+8+X.z.z.H.I.*+R $.p.*.H.m.z.u u a+*.*.~ M U j.v S p N Q.-@",
"P $ g ;@T H.T >.%.c.e $ ].V.c.j.u ;.I._.;.R u z.p.p.p.X.*+F.#+#+G.J+>@X.l+W.H.8+O.E.m.f.A.u u S m.*.*.$.u >.S b.m T *.Y r z '.i.",
"' T $ f c.%.T S U.n.5+l.(.f (.,@n.H.I.B.M H.1.;.E.f.H.F.%.E.I.I.@.*+l+*+W.p.%.;.*.*+f.1.b.>.H.n.%.1.b.*.Y 1.;.v u >.R 5.v Q.Q.6+",
"> + /+m o.S U.e x.k.r f $ w.2.* n.I.y.u %.*.5.b.p.z.f.p.#+E.W.p.A.;.S p.*+4.A.z.*+A.*.*.M $.$.*.4.y.*.>.H.S m b.Q _.6.o _ g.'@.+",
"% (.{ ~ l.:.)@!@V e {+~ g+' $ g n *.z.I.$.E.f.$+p.y.;.y.u _.A.R ~@;.z.*.G.y.1.A.z.*+b.n m u b.V j.R R [.4.$.j.+ S S u v p y {@F+",
"@ w.#.$ [.%.m $ %.r ) < * n /.~ t *.1.A.$.*.b.S b.n.4.f.l+( $.-.z.N $.z.f.I.f.I.*.y.1.x.1.*.S f m >.S k.u >.7.j.M [.$ y ; '.'@F+",
"^.+ | < ]@s v f U.T  @ @O ^@g K + U./@$.;.$.m.$.m.c.m.%.;.R %.%.;.;.f.>.*+S A.b.b.c.>.>.1.e j.j.~ >.j.e >.7.h m Q >.~ y @ 9.A K+",
"+.^.l ] q+V.j.m * u e ~ (@> $ j+n V.1.%.S o u *.R b.>.>.s R M u %._.b.H.;.y.R 4.7.>.b.4.>.:.* { j.n V Q n U.U.1.1.Q n n h {@A+_@",
":@^ c [.<@$ ~ V.e + ^ f c g (.j+&.S 4.H.Y %.u %.%.n.M u S M j.5._.Y e A.*.>.*.u >.T $.1.>.T [.~ >.>.y >.Q +.[.>.7.v M m o [@{@K+",
"% }@q+{ g * [./.d ~ m f g g 7. @e u n.*.6.u m S b.c.c.e 1.n [.e v v v n R b.e 1.[.(.1.Q t >.b.j.~ W f |@w.* h Q # >.W `+_ [@6 a ",
"1@n+> g f x. @7.f m n } K < w.f V.x.m R r n + + T S n n.M L V.m j.*.f 2.* V S Q S >.x.e . `+j.[.e * $ ^.^ 2@>.~ 7.e < h &+h 3@4@",
"M.g 5@c f c f 1 n M 7.W t P e O n j.n M e m 7.~ M M e [.V.M y P.n >.S 6.S S 7.m c.j.' ' ' V d 7.^.&+].g l y ' 6@+ | f y # h h 7@",
"8@2@6@9@> $ K  @~ ~ :@& 0@* ) # >.k.7.b.m p n %.~ *.) f M n ) x.c.f 7.f m n.j.M w.S + a@^ . f + $ | < g c f @ z S + V S + L y b@",
"n+++c@d@}@l < ^ j.2.(@  ; g f f n P.( S n z < 1.T 5.@.f V s 2 s m [.+ m d < 7.e n `+/+/.^.`+^.w.V.$ ^.$   @ ' +.V y ~ 7.Q W e@=@",
"M.f@V+K c < x.j+$ * j+@ = &+~ & W s ^ ~ U +@p 6.o p f * N ) n * ^ d T * V+c (.c &+^ w.2@g@h@. +.h@].c * i@z < | w.+.+ + # ' j@k@",
"l@n+c m@n@% y o@^ $ $ (@1 & $ (@h e #.m S s t e n t &+:@p f * n < w.(.f : ..< g V.+./.c ../+* +. ./+ .. ].) < # w.i@~ 5 * :@y [ ",
"p@V+q@q@g@r@< ' c 0@s@t@u@2 ,.w * V m 7.z t@r ) j i & 8 i@V f 1 g /.[.v@q+w@$ ! #.^ V+ .x@[+/+y@. d@2@z@< . c > g +.A@V ^.y L B@",
"C@D@E@8@c # 1 g t   ,.}@& F@t 2 @ ; z@6.m ; ]+p (@& 1 ; $ 5 ~ 2 z &+^ ~ 5@< + V.: /.|@V+l@+.h@G@+.^. .W H@7 0@&+c ^..  .' i@I@J@",
"8@K@:   t@}@& 1 }@L@M@N@L@; O@& < ~ & y s P@Q@N ]+j e t n R@g ~ (@> { % 0@K@: 2@/+.. .S@T@M.U@V@W@X@! Y@+.0@Z@< < $ Y@> < `@ #8 ",
".#8@+#@#M@Y@n@O ##k u@  $#t@i ##= 1 ) r.g.3 r j z h 1 %#L &#n W t < }@: 6@*#M.: &+=#z@T@1@! -#& ' 2@;#@ 2@&+= B@V@5 > M.>#u@,#'#",
")#!#1@~#{#~#V@A@t@(@]#7 ^#_ % 0@w w L r =@K.t # ,.t _ 1 ;#D 5 & = 0@x }@n+/#U@! 7+(#.#_#L@:#M.q@l@c@<#[#> 8@}#Y@|#1#| X@8 2#M.3#",
"4#5#6#|@7#8#9#Y@[ 4 .@0#J@0 a#b#.@1 k i c#'@&#1+d#e#i f#g#h#t@i#j#k#l#l@l#m#n#o#p#q#r#s#t#<#l@u#v#w#x#y#z#- E@E@A#G@B#7+C#D#E#F#",
"G#H#I#J#K#A@L#M#J@e#N#O#, P#= P#0 n@Q#R#D 4@4@e#S#&#t@T#N@U#V#~#W#5#X#Y#Z#`# $.$+$5#@$#$$$%$&$*$=$-$;$>$,$'$=$)$!$~${$]$s#^$A#%$"};
