/* XPM */
static char * door_open_xpm[] = {
"64 64 562 2",
"  	c None",
". 	c #211926",
"+ 	c #483842",
"@ 	c #41323C",
"# 	c #382A33",
"$ 	c #372A33",
"% 	c #2F242E",
"& 	c #2B212C",
"* 	c #3C2E37",
"= 	c #463640",
"- 	c #6C5661",
"; 	c #65505A",
"> 	c #5C4851",
", 	c #58454E",
"' 	c #513F47",
") 	c #3F3039",
"! 	c #342731",
"~ 	c #604C55",
"{ 	c #6B555F",
"] 	c #977B88",
"^ 	c #967A87",
"/ 	c #957986",
"( 	c #8A707C",
"_ 	c #745E68",
": 	c #4F3E48",
"< 	c #A28492",
"[ 	c #7D6570",
"} 	c #53424C",
"| 	c #9C7F8D",
"1 	c #9D7F8D",
"2 	c #9E818E",
"3 	c #927784",
"4 	c #7A626D",
"5 	c #52414A",
"6 	c #51404A",
"7 	c #78616C",
"8 	c #927783",
"9 	c #745C67",
"0 	c #765E69",
"a 	c #836A76",
"b 	c #67515B",
"c 	c #41323B",
"d 	c #57454D",
"e 	c #6E5863",
"f 	c #6E5862",
"g 	c #6D5761",
"h 	c #503E47",
"i 	c #3D2E37",
"j 	c #4B3B43",
"k 	c #624E57",
"l 	c #69545D",
"m 	c #5A474F",
"n 	c #5D4952",
"o 	c #48373E",
"p 	c #69545E",
"q 	c #67525C",
"r 	c #524048",
"s 	c #604B55",
"t 	c #5B4750",
"u 	c #6D5762",
"v 	c #56434C",
"w 	c #48373F",
"x 	c #5F4C55",
"y 	c #45353C",
"z 	c #55424B",
"A 	c #534048",
"B 	c #76606A",
"C 	c #7E6771",
"D 	c #7E6671",
"E 	c #7F6772",
"F 	c #6C5760",
"G 	c #47363D",
"H 	c #3B2C35",
"I 	c #5B4952",
"J 	c #5F4B54",
"K 	c #46363E",
"L 	c #3A2C36",
"M 	c #362933",
"N 	c #5C4951",
"O 	c #7C646F",
"P 	c #5A4851",
"Q 	c #3A2C35",
"R 	c #765F6A",
"S 	c #7B636E",
"T 	c #44343B",
"U 	c #715B65",
"V 	c #6F5A64",
"W 	c #503F48",
"X 	c #54414A",
"Y 	c #69535E",
"Z 	c #4F3D47",
"` 	c #513E46",
" .	c #4A3840",
"..	c #6C5660",
"+.	c #634D57",
"@.	c #715A65",
"#.	c #634F59",
"$.	c #42323A",
"%.	c #6F5963",
"&.	c #503E46",
"*.	c #5F4A54",
"=.	c #493842",
"-.	c #413139",
";.	c #251618",
">.	c #2D1F26",
",.	c #59454F",
"'.	c #5F4B55",
").	c #513E48",
"!.	c #5A4852",
"~.	c #3C2D36",
"{.	c #3D2E38",
"].	c #2E2026",
"^.	c #3B2021",
"/.	c #4B2B2D",
"(.	c #47333C",
"_.	c #46363F",
":.	c #3C2D35",
"<.	c #2B1E24",
"[.	c #32252E",
"}.	c #6B5560",
"|.	c #403039",
"1.	c #3B2D36",
"2.	c #2E232C",
"3.	c #241B25",
"4.	c #4C353C",
"5.	c #5A3231",
"6.	c #4B2827",
"7.	c #341D21",
"8.	c #391E1C",
"9.	c #4D2622",
"0.	c #5A2D28",
"a.	c #4F2C2E",
"b.	c #4C2C2F",
"c.	c #3F2427",
"d.	c #26181B",
"e.	c #31232C",
"f.	c #644E58",
"g.	c #251C25",
"h.	c #18131D",
"i.	c #532E2F",
"j.	c #67342D",
"k.	c #562C28",
"l.	c #3A2024",
"m.	c #532924",
"n.	c #602F28",
"o.	c #6B352C",
"p.	c #6A352C",
"q.	c #552B25",
"r.	c #7D6670",
"s.	c #6A545F",
"t.	c #542924",
"u.	c #63332C",
"v.	c #6F3B32",
"w.	c #6C372E",
"x.	c #6D382F",
"y.	c #6F3C33",
"z.	c #592C27",
"A.	c #341E22",
"B.	c #34252D",
"C.	c #644F59",
"D.	c #703C33",
"E.	c #6C362D",
"F.	c #5D2E28",
"G.	c #4C2624",
"H.	c #64362E",
"I.	c #713F36",
"J.	c #6E3A31",
"K.	c #5A2D29",
"L.	c #3A2126",
"M.	c #3B2931",
"N.	c #4C3B44",
"O.	c #43333A",
"P.	c #4D3B44",
"Q.	c #36252E",
"R.	c #3A2125",
"S.	c #5C302B",
"T.	c #724037",
"U.	c #61312A",
"V.	c #3B2227",
"W.	c #443138",
"X.	c #523F48",
"Y.	c #352832",
"Z.	c #45353F",
"`.	c #5E4A54",
" +	c #5F3530",
".+	c #64352E",
"++	c #3C2B32",
"@+	c #5B4751",
"#+	c #40313A",
"$+	c #45353E",
"%+	c #5C2E29",
"&+	c #412325",
"*+	c #38262E",
"=+	c #623029",
"-+	c #502825",
";+	c #3E272E",
">+	c #462424",
",+	c #703D34",
"'+	c #6E3930",
")+	c #522925",
"!+	c #3E282E",
"~+	c #523F49",
"{+	c #43333C",
"]+	c #32262E",
"^+	c #2B2029",
"/+	c #261D27",
"(+	c #1E1721",
"_+	c #62322B",
":+	c #7B4337",
"<+	c #86493A",
"[+	c #763F33",
"}+	c #582C27",
"|+	c #41282E",
"1+	c #2D222C",
"2+	c #59464E",
"3+	c #54424B",
"4+	c #5E332E",
"5+	c #713E35",
"6+	c #965543",
"7+	c #BB6E55",
"8+	c #9F5B47",
"9+	c #66332C",
"0+	c #472B30",
"a+	c #332630",
"b+	c #7A636E",
"c+	c #7A636D",
"d+	c #735C67",
"e+	c #614C56",
"f+	c #5B2E2A",
"g+	c #6D3930",
"h+	c #8D4F42",
"i+	c #985645",
"j+	c #A25D49",
"k+	c #A05C49",
"l+	c #9D5B48",
"m+	c #9B5946",
"n+	c #8A4D3E",
"o+	c #6B3A32",
"p+	c #45292D",
"q+	c #45363F",
"r+	c #755E69",
"s+	c #4E3C45",
"t+	c #432E34",
"u+	c #492626",
"v+	c #5F2F29",
"w+	c #6B362D",
"x+	c #5B2D28",
"y+	c #472424",
"z+	c #A85F4D",
"A+	c #AF6550",
"B+	c #B56B53",
"C+	c #9B5A47",
"D+	c #6F3D34",
"E+	c #67352D",
"F+	c #6A3830",
"G+	c #6E3E36",
"H+	c #43282B",
"I+	c #42333D",
"J+	c #79626D",
"K+	c #6A545E",
"L+	c #4B3438",
"M+	c #532A27",
"N+	c #5F2F28",
"O+	c #6E382E",
"P+	c #804537",
"Q+	c #804437",
"R+	c #7A3F34",
"S+	c #7E473C",
"T+	c #7F483C",
"U+	c #814A3D",
"V+	c #784237",
"W+	c #69352D",
"X+	c #4F2927",
"Y+	c #5B322E",
"Z+	c #534148",
"`+	c #624D57",
" @	c #562A25",
".@	c #784235",
"+@	c #B16851",
"@@	c #B26651",
"#@	c #9F5848",
"$@	c #69362D",
"%@	c #4A2625",
"&@	c #6D3A32",
"*@	c #613530",
"=@	c #663932",
"-@	c #59454E",
";@	c #483338",
">@	c #482627",
",@	c #5A302B",
"'@	c #764237",
")@	c #9A5A47",
"!@	c #9A5848",
"~@	c #955345",
"{@	c #905041",
"]@	c #925343",
"^@	c #955745",
"/@	c #6F3E35",
"(@	c #6A3B33",
"_@	c #41262A",
":@	c #513E47",
"<@	c #423037",
"[@	c #3B2226",
"}@	c #7F473B",
"|@	c #A45C4B",
"1@	c #B16651",
"2@	c #B76C54",
"3@	c #65332C",
"4@	c #572D28",
"5@	c #372027",
"6@	c #4B3A43",
"7@	c #392830",
"8@	c #713B31",
"9@	c #7E463B",
"0@	c #824A3E",
"a@	c #844C3E",
"b@	c #69362E",
"c@	c #613028",
"d@	c #582B27",
"e@	c #2F1D25",
"f@	c #3F313A",
"g@	c #291F29",
"h@	c #403139",
"i@	c #57434D",
"j@	c #6C3C34",
"k@	c #5B2F2A",
"l@	c #63312A",
"m@	c #68332B",
"n@	c #5E2F28",
"o@	c #512824",
"p@	c #361F25",
"q@	c #2A1C27",
"r@	c #43343E",
"s@	c #5E4953",
"t@	c #392C35",
"u@	c #4A3943",
"v@	c #382730",
"w@	c #5F342F",
"x@	c #693A32",
"y@	c #4A2827",
"z@	c #5C2F2A",
"A@	c #592C26",
"B@	c #4F2825",
"C@	c #402224",
"D@	c #371F25",
"E@	c #281B26",
"F@	c #2E222D",
"G@	c #483741",
"H@	c #423036",
"I@	c #6A362E",
"J@	c #64322B",
"K@	c #6B3931",
"L@	c #4A2524",
"M@	c #482524",
"N@	c #442324",
"O@	c #3D2226",
"P@	c #37262E",
"Q@	c #422E34",
"R@	c #472526",
"S@	c #522927",
"T@	c #5B2E29",
"U@	c #613029",
"V@	c #3D2124",
"W@	c #4B2725",
"X@	c #582C26",
"Y@	c #572B25",
"Z@	c #503E48",
"`@	c #5D4852",
" #	c #452424",
".#	c #3F2224",
"+#	c #4F2724",
"@#	c #5E2E28",
"##	c #67332B",
"$#	c #69342B",
"%#	c #5D312C",
"&#	c #6B3B32",
"*#	c #68352D",
"=#	c #211923",
"-#	c #2F242D",
";#	c #342831",
">#	c #3F2225",
",#	c #462425",
"'#	c #4D2726",
")#	c #582B26",
"!#	c #5A2C26",
"~#	c #61332C",
"{#	c #6A3A32",
"]#	c #522926",
"^#	c #442D33",
"/#	c #4D3B45",
"(#	c #2E232B",
"_#	c #44343D",
":#	c #482425",
"<#	c #522A27",
"[#	c #41333B",
"}#	c #2C232B",
"|#	c #2C232C",
"1#	c #3E3039",
"2#	c #382A34",
"3#	c #552A24",
"4#	c #572B26",
"5#	c #532A26",
"6#	c #432425",
"7#	c #3E2124",
"8#	c #432527",
"9#	c #463238",
"0#	c #6B5660",
"a#	c #705B65",
"b#	c #715B66",
"c#	c #514049",
"d#	c #67342C",
"e#	c #6B3B33",
"f#	c #693931",
"g#	c #4E2724",
"h#	c #453238",
"i#	c #6F5863",
"j#	c #584650",
"k#	c #3B272E",
"l#	c #6E3B32",
"m#	c #703E35",
"n#	c #3A2226",
"o#	c #58464F",
"p#	c #35252D",
"q#	c #392025",
"r#	c #63352E",
"s#	c #432324",
"t#	c #592D28",
"u#	c #572C26",
"v#	c #2E1B1F",
"w#	c #372830",
"x#	c #4D3C46",
"y#	c #44353F",
"z#	c #291D26",
"A#	c #2C1A1D",
"B#	c #5D332E",
"C#	c #341D20",
"D#	c #633129",
"E#	c #502823",
"F#	c #26171A",
"G#	c #2A1F27",
"H#	c #4D3B43",
"I#	c #58444D",
"J#	c #3E2F39",
"K#	c #221823",
"L#	c #251619",
"M#	c #66342C",
"N#	c #59302C",
"O#	c #261719",
"P#	c #41211F",
"Q#	c #542925",
"R#	c #452220",
"S#	c #241619",
"T#	c #1C141C",
"U#	c #40323A",
"V#	c #473741",
"W#	c #25171A",
"X#	c #562B28",
"Y#	c #3F2F35",
"Z#	c #463136",
"`#	c #4C3337",
" $	c #4B3236",
".$	c #432B30",
"+$	c #3A262C",
"@$	c #2E212A",
"#$	c #201821",
"$$	c #251C27",
"%$	c #2F222A",
"&$	c #41282D",
"*$	c #472E33",
"=$	c #503234",
"-$	c #5A2E29",
";$	c #4D2725",
">$	c #5E4B53",
",$	c #5E4A53",
"'$	c #56444E",
")$	c #53424B",
"!$	c #322730",
"~$	c #4B3A41",
"{$	c #352934",
"]$	c #5B4851",
"^$	c #5C464E",
"/$	c #523335",
"($	c #482C2E",
"_$	c #3F292E",
":$	c #473941",
"<$	c #493A44",
"[$	c #765F69",
"}$	c #69535D",
"|$	c #3D3039",
"1$	c #342830",
"2$	c #40323C",
"3$	c #59464F",
"4$	c #4B3A42",
"5$	c #2D222A",
"6$	c #392C36",
"7$	c #5A4650",
"8$	c #5A464F",
"9$	c #735D67",
"0$	c #77606A",
"a$	c #49383F",
"b$	c #251C26",
"c$	c #40323B",
"d$	c #4C3B42",
"e$	c #4F3D45",
"f$	c #41333C",
"g$	c #4B3A44",
"h$	c #3B2E36",
"i$	c #31252D",
"j$	c #2A2029",
"k$	c #261C26",
"l$	c #30252D",
"m$	c #503D46",
"n$	c #4E3C43",
"o$	c #5C4751",
"p$	c #3A2D37",
"q$	c #2B2129",
"r$	c #46353C",
"s$	c #4C3A42",
"t$	c #4A3940",
"u$	c #534049",
"v$	c #523F47",
"w$	c #342832",
"x$	c #4A3942",
"y$	c #47373E",
"z$	c #45343C",
"A$	c #44343C",
"B$	c #2E232D",
"C$	c #46353D",
"D$	c #372933",
"E$	c #392B34",
"F$	c #43343D",
"G$	c #32252F",
"H$	c #43333B",
"I$	c #3D2E36",
"J$	c #362932",
"K$	c #3B2D35",
"L$	c #352831",
"M$	c #231B24",
"N$	c #40313B",
"O$	c #2B202B",
"P$	c #261D26",
"Q$	c #3E2F37",
"R$	c #2F232E",
"S$	c #251C28",
"T$	c #1C1620",
"U$	c #57444E",
"V$	c #42323C",
"W$	c #58444E",
"X$	c #221A23",
"Y$	c #322630",
"Z$	c #362832",
"`$	c #30242E",
" %	c #2A202A",
".%	c #3C2D37",
"+%	c #2A202B",
"@%	c #211925",
"#%	c #231B26",
"$%	c #241B28",
"%%	c #281E28",
"&%	c #1F1822",
"*%	c #1D1620",
"=%	c #271E27",
". . . . . . . . . . . . . .                                                                         . . . . . . . . . . . . . . ",
"+ + + + @ # # # # # # $ % &                                                                         & % $ # # # # * = + + + + + ",
"- - - - ; > > > > > , ' ) !                                                                         ! ) ' , > > > ~ { - - - - - ",
"] ] ] ] ^ / / / / / ( _ : !                                                                         ! : _ ( / / / ^ ] ] ] ] ] ] ",
"< < < < < < < < < < ^ [ } !                                                                         ! } [ ^ < < < < < < < < < < ",
"| | | | | | | | 1 2 3 4 5 !                                                                         ! 6 7 8 2 1 | | | | | | | | ",
"9 9 9 9 9 9 9 9 0 a [ b + !                                                                         ! c d 7 a 0 9 9 9 9 9 9 9 9 ",
"e e e e e e e e f g g g h i                                                                         i j k l g f e e e e e e e e ",
"[ [ [ [ [ [ [ [ 4 m k [ n o                                                                         o n [ k m 4 [ [ [ [ [ [ [ [ ",
"p p p p p p p p q r k [ n o                                                                         o n [ k r q p p p p p p p p ",
"s > t p u u u ; v w x [ n y                                                                         o n [ x w v ; u u u p t > s ",
"s z A B C D E F G H I [ J K L L L L M !                                                             o N O P Q G F E D C B A z s ",
"s z A B R g S F o T ~ C R U V V V V W !                                                             o X Y Z Q G F S g R B A z s ",
"`  .j g ..+.@.#.$.$.~ E E 4 %.%.%.%.W !                                                             o &.*.=.# -.#.@.+...g j  .` ",
";.>.i ,.'.'.'.).! ! !.E E %.o o o o ~.!                                                             o &.*.=.! ! ).'.'.'.,.{.].;.",
";.^./.(._._._.:.<.[.: }.}.~ o |.1.1.2.3.                                                            o &.*.=.[.<.:._._._.4.5.6.7.",
"8.9.0.a.b.b.b.c.d.e.: { f.t &.) ! ! g.h.                                                            o &.*.=.e.d.c.b.b.b.i.j.k.l.",
"m.n.o.p.p.p.p.q.d.e.!.r.s.s *._.! ! g.h.                                                            o &.*.=.e.d.q.p.p.p.o.o.k.l.",
"t.u.v.w.x.y.w.z.A.B.W ..C.s '._.! ! g.h.                                                            o &.*.=.B.A.z.w.y.D.v.E.F.G.",
"t.H.I.J.y.I.x.K.L.M.N.s s s '._.! ! g.h.                                                            O.P.*.=.Q.R.S.J.I.T.I.J.U.t.",
"t.H.T.T.T.I.x.K.V.W.X.s s s '._.! ! g.h.                                                            Y.Z.`.=.Q.R. +T.T.T.T.T..+t.",
"t.H.T.T.T.I.x.K.L.++P.s s @+X.#+! ! g.h.                                                            ! $+`.=.Q.R. +T.T.T.T.T.H.t.",
"t.H.T.T.T.I.x.%+&+*+=.s s , o 1.! ! g.h.                                                            ! $+`.=.Q.R. +T.T.T.T.T.H.t.",
"t.H.T.T.T.I.x.=+-+;+=.s s , o 1.! ! g.h.                                                            ! $+`.=.Q.R. +T.T.T.T.T.H.t.",
">+S.v.I.,+'+E.=+)+!+=.*.~+{+]+^+/+/+(+h.                                                    o o o o Q $+`.=.Q.R. +T.T.T.I.v._+t.",
"l.k.E.y.:+<+<+[+}+|+=.`.$+1+h.h.h.h.h.h.                                                    2+2+2+2+5 3+*.=.Q.R.4+5+T.T.5+w.n.t.",
"l.k.o.E.6+7+7+8+9+0+=.`.$+a+                                                                b+b+b+b+c+d+e+=.Q.R.f+g+I.T.5+w.n.t.",
"h+i+j+j+k+l+m+n+o+p+q+`.$+!                                                                 E E E E r+{ e+s+t+u+v+E.J.J.'+w+x+y+",
"z+A+B+B+C+D+E+F+G+H+I+`.$+!                                                                 B 7 J+J+K+s s r L+M+N+O+P+Q+R+p.M+l.",
"S+T+U+U+V+W+X+Y+G+H+I+`.$+!                                                                 Z+J ; ; `+s s r L+M+ @.@+@@@#@$@%@l.",
"T.T.T.T.5+&@*@=@G+H+I+`.$+!                                                                 o -@s s s s s r ;@>@,@'@)@!@~@{@]@^@",
"T.T.T.T.I.5+5+/@(@_@I+`.$+!                                                                 o -@s s s s s :@<@[@ +T.5+5+}@|@1@2@",
"T.T.T.T.y.w.w.3@4@5@I+`.$+!                                                                 o -@s s s s s 6@7@R. +5+x.w.8@9@0@a@",
"v.v.v.v.b@c@c@d@y+e@I+`.f@g@                                                                h@i@s s s s s =.Q.R. +j@k@l@w.I.T.T.",
"m@m@m@m@n@o@o@y+p@q@r@s@t@h.                                                                Y.z s s s s s u@v@R.w@x@y@z@g+I.T.T.",
"A@A@A@A@B@C@C@D@E@F@G@s@t@h.                                                                Y.z s s s s s :@H@[@k@I@J@K@5+T.T.T.",
"L@L@L@L@M@y+y+N@O@P@=.s@t@h.                                                                Y.z s s s s s s+Q@R@S@T@U@b@v.v.v.v.",
"V@V@V@V@W@X@Y@ @)+!+=.s@t@h.                                                                a+Z@@+@+@+`@s =.!+)+ #.#+#@###$#$#$#",
"+#+#+#+#%#&#*#N+)+!+=.s@t@h.                                                                =#-#;#;#;#$+`.=.!+)+>#e@.#,#'#)#!#!#",
"t.A@N+~#{#I.x.=+]#^#/#s@t@h.                                                                h.h.h.h.(#_#`.=.!+)+:#># #>+y+L@L@L@",
"t.n.w.5+T.I.x.=+<#L+r `.[#}#|#t@1#1#2#!                                                             o &.*.=.!+)+3# @4#4#5#6#7#V@",
"t.n.w.5+T.I.x.%+8#9#r e+0#V V a#b#b#c#!                                                             o &.*.=.!+)+N+d#{#e#f#_+}+g#",
"t.n.w.5+T.I.x.K.V.h#r e+i#7 E E E E j#!                                                             o &.*.=.k#%@v+x.I.T.I.l#_+t.",
"m.n.w.m#T.5+x.K.n#W.X.s s ..D D D D o#!                                                             o &.*.=.p#q#K.x.5+T.T.T.r#m.",
"s#t#w+x.g+x.E.u#v#w#N.s s C.s.s.s.s.x#!                                                             o &.*.y#z#A#u#E.x.g+J.I.B#s#",
"C#B@D#D#D#D#D#E#F#G#_.s s s s s s s G@!                                                             o H#I#J#K#L#E#D#D#D#M#l#N#l.",
"O#P#Q#Q#Q#Q#t.R#S#T#U#s s s s s s s V#!                                                             o o o ;#K#W#R#t.t.t.A@m@X#l.",
"Y#Z#`#`#`# $.$+$@$#$U#s s t :@:@:@:@#+!                                                             o o o ;#$$%$+$&$&$*$=$-$;$l.",
">$>$>$>$>$,$o#'$)$!$U#s s t ` ~$o o ~.!                                                             o o o ;#{$} '$'$'$]$^$/$($_$",
"D D D D D D D D c+:$U#s s s *.` o o ~.!                                                             o o o ;#<$b+D D D D [$A o o ",
"- - - - - - - - }$|$U#e+%.f s :@o o 1$g.                                                            o H#I#J#2$Y - - - - g %.%.%.",
"s s s s s s s s `@$ U#e+@.u 3$4$O.O.5$h.                                                            o &.*.I+6$`@s *.7$8$~ 9$0$0$",
"s s s s s s s s `@$ U#s e+8$a$i Y.Y.b$h.                                                            o &.*.c$$ `@s @+d$a$e$*.`+`+",
"s s s s s s s s `@6$f$*.g$h$i$j$k$k$=#                                                              o &.*.U#l$m$r &.a$o n$n s s ",
"s s *.o$7$t *.s `@p$I+s@t@h.h.h.h.h.                                                                o &.*.U#q$r$o o o o s$I#7$7$",
"s s n e$t$H#@+s `@p$I+s@t@h.                                                                        o &.*.U#q$r$o o o o o t$t$t$",
"u$u$v$t$o a$` u$h w$I+s@t@h.                                                                        i x$*.U#q$r$o o o o o o o o ",
"o o y$z$T A$G o r$B$I+s@* =#                                                                        ! $+`.U#q$r$o G A$T T T T T ",
"o o C$H D$E$A$o r$q$c$`.F$G$                                                                        ! $+`.U#q$r$o A$E$D$D$D$D$D$",
"o H$I$J$! Y.~.K$L$M$U#`.N$O$                                                                        ! $+`.U#P$~.Q$~.Y.! ! ! ! ! ",
"A$i ! ! ! ! ! R$S$T$* U$6$.                                                                         ! V$W$* X$Y$! ! ! ! ! ! ! ! ",
"$ Z$! ! ! ! ! a+`$=# %.%& .                                                                         ! D$*  %X$Y$! ! ! ! ! ! ! ! ",
"& & & & & & & & +%@%#%O$$%.                                                                         %%%%%%&%*%=%%%%%%%%%%%%%%%%%",
". . . . . . . . . . . . . .                                                                         h.h.h.h.h.h.h.h.h.h.h.h.h.h."};
