/* XPM */
static char * grey_door_xpm[] = {
"64 64 536 2",
"  	c #656C5F",
". 	c #656C5D",
"+ 	c #666D60",
"@ 	c #666C5E",
"# 	c #62685C",
"$ 	c #5F6758",
"% 	c #62695C",
"& 	c #60685A",
"* 	c #656C5E",
"= 	c #5F685C",
"- 	c #5B6354",
"; 	c #5F675B",
"> 	c #636B5E",
", 	c #5F6859",
"' 	c #656B5D",
") 	c #60685C",
"! 	c #61685B",
"~ 	c #606859",
"{ 	c #62685A",
"] 	c #5C6358",
"^ 	c #5B6356",
"/ 	c #616758",
"( 	c #5C6357",
"_ 	c #60675A",
": 	c #5F675C",
"< 	c #5F675A",
"[ 	c #626858",
"} 	c #5F6858",
"| 	c #6B7061",
"1 	c #6A7061",
"2 	c #686D60",
"3 	c #676D5F",
"4 	c #686D5E",
"5 	c #656C60",
"6 	c #676D60",
"7 	c #676C5F",
"8 	c #676C5C",
"9 	c #656C5C",
"0 	c #676D5E",
"a 	c #6D7163",
"b 	c #6D7264",
"c 	c #6D7162",
"d 	c #6A7063",
"e 	c #717565",
"f 	c #6B7163",
"g 	c #6A7062",
"h 	c #6A7163",
"i 	c #707564",
"j 	c #6D7263",
"k 	c #6D7161",
"l 	c #676D5C",
"m 	c #6B7162",
"n 	c #6C7162",
"o 	c #676C5D",
"p 	c #BBB7A1",
"q 	c #BAB6A0",
"r 	c #737667",
"s 	c #767969",
"t 	c #767A69",
"u 	c #737768",
"v 	c #737668",
"w 	c #707566",
"x 	c #707568",
"y 	c #707668",
"z 	c #707567",
"A 	c #737665",
"B 	c #717666",
"C 	c #717566",
"D 	c #747666",
"E 	c #696D5F",
"F 	c #707464",
"G 	c #565F56",
"H 	c #A5A28F",
"I 	c #A5A290",
"J 	c #A4A18F",
"K 	c #7B7E6D",
"L 	c #7A7E6C",
"M 	c #787A6B",
"N 	c #787B6B",
"O 	c #797A69",
"P 	c #787A69",
"Q 	c #767A6C",
"R 	c #7E7F6E",
"S 	c #7A7D6C",
"T 	c #7A7E6E",
"U 	c #7B7E6C",
"V 	c #787A6A",
"W 	c #787A68",
"X 	c #75796B",
"Y 	c #5F685E",
"Z 	c #A7A591",
"` 	c #A7A692",
" .	c #A7A691",
"..	c #A8A692",
"+.	c #858574",
"@.	c #848474",
"#.	c #848574",
"$.	c #808473",
"%.	c #808372",
"&.	c #7D7F6F",
"*.	c #808371",
"=.	c #818473",
"-.	c #858575",
";.	c #808472",
">.	c #7E7E6D",
",.	c #7E7F70",
"'.	c #818472",
").	c #818371",
"!.	c #363E3B",
"~.	c #363D3B",
"{.	c #373E3C",
"].	c #363E3C",
"^.	c #8A8B7A",
"/.	c #8D8D7A",
"(.	c #8A8A78",
"_.	c #8C8D7B",
":.	c #8A8978",
"<.	c #878977",
"[.	c #8B8A79",
"}.	c #8B8B7A",
"|.	c #8D8E7C",
"1.	c #8A8A79",
"2.	c #8C8C7A",
"3.	c #8A8977",
"4.	c #878876",
"5.	c #858573",
"6.	c #8B8A77",
"7.	c #878875",
"8.	c #8B8A78",
"9.	c #8C8D7A",
"0.	c #858473",
"a.	c #848473",
"b.	c #8B8977",
"c.	c #91917F",
"d.	c #959382",
"e.	c #8F8E7D",
"f.	c #959380",
"g.	c #929280",
"h.	c #969380",
"i.	c #959280",
"j.	c #8F8F7E",
"k.	c #929282",
"l.	c #908E7C",
"m.	c #91927F",
"n.	c #8F8E7C",
"o.	c #92927F",
"p.	c #8F8D7B",
"q.	c #8F8E7B",
"r.	c #8D8B79",
"s.	c #C3BCA9",
"t.	c #C3BDAA",
"u.	c #C6BDAB",
"v.	c #C2BCA9",
"w.	c #C1B8A9",
"x.	c #C0B8A3",
"y.	c #C2BCA6",
"z.	c #C3BCA7",
"A.	c #C0B8A8",
"B.	c #C6BDAA",
"C.	c #C0B7A5",
"D.	c #BDB7A2",
"E.	c #B9AF99",
"F.	c #BEB7A2",
"G.	c #C0B8A6",
"H.	c #C1B8A6",
"I.	c #B9B4A1",
"J.	c #2E3331",
"K.	c #3F4743",
"L.	c #404844",
"M.	c #404843",
"N.	c #3B433F",
"O.	c #3F4744",
"P.	c #3F4845",
"Q.	c #404845",
"R.	c #3F4844",
"S.	c #0C0F17",
"T.	c #A2A18F",
"U.	c #A1A08C",
"V.	c #A2A18D",
"W.	c #9F9C8A",
"X.	c #9F9B87",
"Y.	c #9E9B8A",
"Z.	c #9F9C89",
"`.	c #9C9784",
" +	c #A1A08E",
".+	c #757968",
"++	c #535F57",
"@+	c #7B7B69",
"#+	c #7B7F6F",
"$+	c #7D7F70",
"%+	c #7D8071",
"&+	c #7D7F71",
"*+	c #10131A",
"=+	c #AAA794",
"-+	c #848370",
";+	c #818370",
">+	c #848472",
",+	c #7E7E6B",
"'+	c #818372",
")+	c #868875",
"!+	c #858471",
"~+	c #A7A693",
"{+	c #6C7268",
"]+	c #7D7E6D",
"^+	c #14171E",
"/+	c #AEAB97",
"(+	c #AEAA97",
"_+	c #12161D",
":+	c #13161D",
"<+	c #13171E",
"[+	c #13171D",
"}+	c #AFAB98",
"|+	c #6F766B",
"1+	c #14171D",
"2+	c #AAA692",
"3+	c #141820",
"4+	c #B3AE9B",
"5+	c #B3AF9B",
"6+	c #13171F",
"7+	c #171C21",
"8+	c #171C22",
"9+	c #181C22",
"0+	c #181D22",
"a+	c #B1AE9B",
"b+	c #898B78",
"c+	c #757A6F",
"d+	c #AFAB97",
"e+	c #B7B3A1",
"f+	c #B6B29E",
"g+	c #7B7E6A",
"h+	c #181D24",
"i+	c #1B2126",
"j+	c #1B2025",
"k+	c #1B2125",
"l+	c #B3AF9D",
"m+	c #8E907B",
"n+	c #787B6F",
"o+	c #B3AE9E",
"p+	c #B2AE9E",
"q+	c #1C2126",
"r+	c #B2AE9C",
"s+	c #B3AE9C",
"t+	c #B9B3A1",
"u+	c #7B7E6B",
"v+	c #191C22",
"w+	c #1C2228",
"x+	c #1C2229",
"y+	c #1C2128",
"z+	c #1B2128",
"A+	c #B8B3A1",
"B+	c #91917D",
"C+	c #777C71",
"D+	c #B8B3A0",
"E+	c #B6B2A0",
"F+	c #1B2228",
"G+	c #1E252A",
"H+	c #1F262A",
"I+	c #1F252A",
"J+	c #1E2529",
"K+	c #92917E",
"L+	c #191D23",
"M+	c #1B2127",
"N+	c #1E262B",
"O+	c #1F262B",
"P+	c #1F272C",
"Q+	c #8F907C",
"R+	c #777B6E",
"S+	c #B9B39F",
"T+	c #1F272B",
"U+	c #B6B29F",
"V+	c #B6B29D",
"W+	c #232B2E",
"X+	c #222B2E",
"Y+	c #222A2E",
"Z+	c #20272C",
"`+	c #8C8C78",
" @	c #20272D",
".@	c #B3AE9A",
"+@	c #B1AE99",
"@@	c #B4AE99",
"#@	c #B1AD9A",
"$@	c #72776B",
"%@	c #B0AD98",
"&@	c #ACAA95",
"*@	c #20262C",
"=@	c #A9A693",
"-@	c #191D25",
";@	c #1F262C",
">@	c #252C2F",
",@	c #252D31",
"'@	c #252C30",
")@	c #242C30",
"!@	c #252C31",
"~@	c #252B2F",
"{@	c #1A2127",
"]@	c #A9A694",
"^@	c #A5A18D",
"/@	c #A2A18C",
"(@	c #273032",
"_@	c #262F32",
":@	c #272F32",
"<@	c #A5A18E",
"[@	c #A2A08D",
"}@	c #676E65",
"|@	c #A2A08C",
"1@	c #A2A08B",
"2@	c #9E9B88",
"3@	c #9C9A88",
"4@	c #9A9682",
"5@	c #545E55",
"6@	c #9C9A86",
"7@	c #656D61",
"8@	c #646C62",
"9@	c #96927F",
"0@	c #9A9684",
"a@	c #979682",
"b@	c #95917C",
"c@	c #505A52",
"d@	c #596359",
"e@	c #5B645B",
"f@	c #92927E",
"g@	c #8A8976",
"h@	c #13181F",
"i@	c #908D79",
"j@	c #92917C",
"k@	c #0F131A",
"l@	c #8F8D7A",
"m@	c #46504B",
"n@	c #20262B",
"o@	c #525B54",
"p@	c #555F57",
"q@	c #8A8875",
"r@	c #8B8976",
"s@	c #20262A",
"t@	c #0F1319",
"u@	c #878774",
"v@	c #878874",
"w@	c #1C2127",
"x@	c #84836E",
"y@	c #49514C",
"z@	c #515A52",
"A@	c #7E7E6A",
"B@	c #81826D",
"C@	c #81836F",
"D@	c #81836D",
"E@	c #0E1219",
"F@	c #80826F",
"G@	c #3A423E",
"H@	c #7B7D6A",
"I@	c #7E816C",
"J@	c #414B46",
"K@	c #525B52",
"L@	c #7D7E67",
"M@	c #7A7D6A",
"N@	c #1D2127",
"O@	c #181D25",
"P@	c #787A66",
"Q@	c #0B0F17",
"R@	c #7E7F6C",
"S@	c #363D39",
"T@	c #3D4743",
"U@	c #505950",
"V@	c #787966",
"W@	c #7C7E69",
"X@	c #737664",
"Y@	c #71745E",
"Z@	c #7B7D69",
"`@	c #343D39",
" #	c #757964",
".#	c #767967",
"+#	c #3A4240",
"@#	c #4E564E",
"##	c #767965",
"$#	c #707563",
"%#	c #707562",
"&#	c #0C1018",
"*#	c #333937",
"=#	c #797D69",
"-#	c #797A67",
";#	c #4F564D",
">#	c #737564",
",#	c #7E826C",
"'#	c #14181F",
")#	c #3C4742",
"!#	c #525A50",
"~#	c #1D2227",
"{#	c #191D22",
"]#	c #3A4340",
"^#	c #878772",
"/#	c #48504B",
"(#	c #566058",
"_#	c #91907C",
":#	c #464F4A",
"<#	c #92917B",
"[#	c #4F5A53",
"}#	c #5B6359",
"|#	c #8C8C79",
"1#	c #979582",
"2#	c #4F5951",
"3#	c #59635A",
"4#	c #979580",
"5#	c #979581",
"6#	c #10141C",
"7#	c #1B2227",
"8#	c #A29F89",
"9#	c #686E61",
"0#	c #686E63",
"a#	c #9F9B89",
"b#	c #666D62",
"c#	c #242B2F",
"d#	c #AAA793",
"e#	c #737666",
"f#	c #6D7266",
"g#	c #B3AE99",
"h#	c #B2AE97",
"i#	c #72766B",
"j#	c #B1AD98",
"k#	c #B1AE98",
"l#	c #787C6A",
"m#	c #B8B29E",
"n#	c #BEB8A5",
"o#	c #BDB7A5",
"p#	c #262F31",
"q#	c #BEB7A3",
"r#	c #7D8073",
"s#	c #BCB7A2",
"t#	c #BCB7A3",
"u#	c #BEB8A3",
"v#	c #97957F",
"w#	c #7D8175",
"x#	c #C1BCA7",
"y#	c #C0BBA6",
"z#	c #171D24",
"A#	c #C3BDA7",
"B#	c #C2BCA7",
"C#	c #9D9A83",
"D#	c #808477",
"E#	c #171D23",
"F#	c #BEB8A2",
"G#	c #7E8073",
"H#	c #B6AE99",
"I#	c #8D8C79",
"J#	c #B4AE9A",
"K#	c #A8A28C",
"L#	c #707569",
"M#	c #98927D",
"N#	c #535E55",
"O#	c #666D61",
"P#	c #969583",
"Q#	c #9C9B88",
"R#	c #9D9B87",
"S#	c #8C8974",
"T#	c #8F8C79",
"U#	c #191E25",
"V#	c #908E7B",
"W#	c #5C645A",
"X#	c #82836E",
"Y#	c #7D8270",
"Z#	c #777A67",
"`#	c #747968",
" $	c #6C705D",
".$	c #737968",
"+$	c #2F3836",
"@$	c #49504A",
"#$	c #0B0F18",
"$$	c #6C705F",
"%$	c #747664",
"&$	c #323936",
"*$	c #38423E",
"=$	c #485049",
"-$	c #727562",
";$	c #787965",
">$	c #171B20",
",$	c #4E5650",
"'$	c #181C20",
")$	c #7A7A69",
"!$	c #4E554E",
"~$	c #171B1F",
"{$	c #566056",
"]$	c #586359",
"^$	c #999684",
"/$	c #676D61",
"($	c #5F6860",
"_$	c #979684",
":$	c #979683",
"<$	c #6A7065",
"[$	c #ACAA97",
"}$	c #AEAB99",
"|$	c #AEAA98",
"1$	c #AEAA99",
"2$	c #ACAA99",
"3$	c #A7A592",
"4$	c #A5A28E",
"5$	c #A7A593",
"6$	c #9C9A89",
"7$	c #999685",
"8$	c #707565",
"9$	c #656D63",
"0$	c #9C9A87",
"a$	c #9A9786",
"b$	c #323A3C",
"c$	c #303A3B",
"d$	c #31393B",
"e$	c #313A3B",
"f$	c #2F3A3B",
"g$	c #323A3B",
"h$	c #5F685D",
"i$	c #56605A",
"j$	c #394344",
"k$	c #384344",
"l$	c #374344",
"m$	c #374244",
"n$	c #3A4344",
"o$	c #374243",
"p$	c #384242",
"q$	c #8C8E7B",
"r$	c #7E7F6D",
"s$	c #515A53",
"t$	c #787A67",
"u$	c #7B7B6A",
"v$	c #767A6B",
"w$	c #6C715F",
"x$	c #6A6E60",
"y$	c #6D7160",
"z$	c #4B554E",
"A$	c #6C7164",
"B$	c #6C7060",
"C$	c #5F6355",
"D$	c #6B705F",
"E$	c #6A705F",
"F$	c #5E6353",
"G$	c #676C5B",
"H$	c #6D7061",
"I$	c #676C59",
"J$	c #687061",
"K$	c #0B1018",
"  . + @ # $ % % . & * # = @ & - ; @ % > , ' = = = ; @ % ; ) ) = ) ! ) = ~ { ] ^ / ( % % % = _ ; ; : < < _ [ $ < & ( , < ) < ( } ",
"| 1 1 2 1 3 3 3 2 * { @ 4 3 @ 2 3 3 3 3   2 + *     3 2 2 5 * + 5 6 2   @ 7 @ @ 2 8 2 2 2 3 [ *   + 9 9 @ 0 *   4 4 5 + 3 { 9 { ",
"a b c c d e c c c # f g c c a a a a c c d c a c g c f d c a h f d i j g k l a m d n g a 2 o 1 m d c c | c d m 5 p q p q q p q p ",
"r s r c e t r u v w w w t x r y s r r z A B u y A a C r r B r x t D z y D a w w w w B c c B E i w B w F w x w G H I J I H H I I ",
"K L M N N L O P K M N Q R S T K L K U K V N M K M N V K L L K M S K K K N L K s W O X O P s P X V K N M N V N Y Z `  .`  . .Z ..",
"+.@.#.$.+.#.%.$.#.&.*.&.+.#.+.+.#.#.#.#.=.-.+.$.;.&.>.%.&.,.%.%.&.#.%.+.+.*.'.,.).*.+.*.=.%.%.=.=.$.$.%.=.#.*.b !.!.!.!.~.{.].{.",
"^./.(.(.(.(.(._.^.:.(.<.[.}.|.[.1.2.[.[.[.(.(.(.3.+.4.<.@.[.(.@.5.<.(.(.(.3.+.@.6.4.7.<.<.#.(.(.<.8.(.:.:.9.(.0.4.a.+.+.<.4.b.[.",
"c.d.c.c.c.e.f.g.h.g.i.e.j.d.k.g.e.l.m.m.m.m.n.l.g.g.g.e.e.g.o.c.l.l.l.l.p.l.}.q.q.r.l.n.l.j.c.m.m.g.c.m.g.c.e.n.n.l.n.l.l.e.n.l.",
"s.t.u.t.v.t.s.s.w.x.y.z.A.t.B.C.D.E.F.G.v.y.G.z.t.t.v.H.t.t.t.I.J.K.L.M.N.L.L.O.K.P.P.L.P.Q.O.O.O.R.Q.O.Q.R.Q.K.R.P.O.L.L.O.O.S.",
"T.U.V.V.V.U.U.W.U.X.V.Y.Y.U.V.V.Z.`.X.W.Z.W.Z.W.V.V.U.Y.V. +U..+++,.&.T T T @+&.#+=.T *.$+=.$+%+&+$+=.;.;.&.L ,.,.,.&.,.&.&.K *+",
"=+=+b.4.7.4.7.-+;++.>+*.a.+.7.7.*.,+5.'+5.,+a.0.4.#.)+!+7.=+~+&.{+J d.*.,.]+*.5.'+*.=.%.*.*.*.a.a.*.*.*.*.).*.&.R ]+*.'+R  + +^+",
"/+(+B _+:+^+<+[+[+_+[+[+<+:+<+[+[+[+_+<+:+<+[+[+:+<+:+:+[+}+(+%.|+(+(+:+:+[+[+[+<+[+[+<+^+1+:+<+_+:+:+_+<+^+[+:+<+<+:+:+[+2+=+3+",
"4+5+s [+6+7+7+8+7+7+7+9+7+7+7+7+7+8+8+0+7+0+8+7+7+8+7+:+[+a+a+b+c+5+4+[+6+7+7+9+7+7+7+7+7+7+7+7+7+7+7+7+7+8+7+8+8+7+7+1+<+(+d+3+",
"e+f+g+1+3+7+h+i+i+i+i+i+i+i+i+j+i+i+k+j+j+i+i+i+i+i+7+^+[+f+l+m+n+o+p+^+3+8+h+i+i+i+i+j+j+i+i+i+i+i+j+i+q+i+i+i+i+i+7+^+[+r+s+7+",
"t+t+u+^+7+v+j+w+x+w+x+w+y+x+w+x+w+w+z+x+w+x+w+x+w+i+9+^+[+t+A+B+C+t+D+^+7+9+i+w+w+w+w+w+x+w+w+y+x+x+w+z+z+y+w+x+x+i+9+1+<+E+A+7+",
"D+t+K [+7+v+F+G+H+H+G+I+H+H+H+I+J+H+J+H+H+H+H+H+H+i+9+^+[+t+t+K+C+t+t+^+7+L+M+G+G+H+H+I+H+J+G+H+H+H+H+H+H+H+H+I+H+i+9+[+[+A+t+8+",
"t+D+S ^+7+v+F+H+N+N+N+N+O+O+P+N+N+P+P+N+O+O+N+I+H+i+L+[+[+E+E+Q+R+5+S+^+7+L+M+H+N+O+N+P+N+T+O+P+T+O+N+N+N+N+P+H+H+j+L+1+<+U+f+7+",
"V+4+t ^+7+L+z+G+N+W+X+W+X+W+X+Y+X+X+X+X+X+Y+Z+I+I+i+L+3+<+4+s+`+n+4+4+1+8+9+x+G+O+W+X+W+Y+W+X+X+W+X+X+W+W+W+ @G+H+i+L+6+<+5+.@7+",
"+@@@i ^+7+h+z+H+Z+Y+Y+W+X+Y+X+X+W+W+Y+W+Y+W+Z+H+H+j+9+3+[++@#@0.$@%@&@^+7+h+x+H+*@W+W+X+W+W+X+X+Y+W+Y+Y+X+Y+Z+H+G+i+L+3+[+d+(+3+",
"=@&@3 ^+8+-@w+G+;@X+>@,@'@)@)@,@!@,@,@)@~@X+Y+H+H+{@9+3+_+=+]@L {+=+2+^+8+-@z+H+Z+X+~@)@!@!@)@)@!@,@)@!@>@Y+W+H+H+M+9+6+:+=+=+^+",
"^@/@= ^+7+h+x+G+Z+X+X+'@(@(@_@(@(@:@(@_@>@W+Z+N+I+{@L+3+[+<@[@C }@|@1@^+8+h+x+H+Z+W+W+)@:@(@(@_@(@_@:@(@>@W+Z+O+I+F+L+3+1+2@V.<+",
"3@4@5@[+7+h+M+H+N+Z+X+>@)@!@'@!@!@!@!@)@W+W+Z+H+H+i+9+8+^+6@6@7@8@4@9@^+7+h+F+H+P+;@X+~@)@!@)@)@)@,@)@'@X+Y+Z+H+I+i+v+7+1+4@0@_+",
"a@b@c@6+9+L+j+w+H+J+;@X+Y+W+W+Y+Y+W+W+X+Z+ @G+x+y+q+9+7+^+K+K+d@e@f@g@h@7+9+i+x+H+H+ @X+X+X+W+Y+W+W+X+W+Z+Z+J+w+w+j+v+8+^+i@j@k@",
"l@9.m@6+7+9+h+i+i+x+J+n@;@Z+;@ @Z+*@*@;@H+H+w+i+j+h+7+8+^+`+`+o@p@q@r@6+7+L+h+i+F+x+G+s@Z+ @Z+Z+Z+ @;@;@H+G+x+i+i+h+7+8+^+7.3.t@",
"u@v@L.6+7+9+-@i+i+w@H+I+H+G+G+G+G+H+J+H+H+w+i+i+h+9+7+8+^+!+x@y@z@A@B@h@7+7+h+i+i+w@G+H+H+G+H+G+G+I+H+H+G+x+i+i+h+L+7+7+^+C@D@E@",
";+F@G@6+9+7+-@i+i+w@G+H+H+I+H+H+H+G+H+H+H+w+i+i+-@L+0+7+^+H@I@J@K@L@M@3+9+7+h+j+i+N@H+H+H+H+H+H+H+I+H+G+H+w+i+i+O@9+7+7+^+H@P@Q@",
"R@D@S@3+7+7+h+i+j+N@G+G+J+G+J+G+H+I+I+J+H+x+i+i+h+L+7+7+1+P@H@T@U@V@W@6+9+7+h+j+i+q+H+H+H+H+H+H+H+H+G+H+G+w+i+j+h+L+8+7+1+X@Y@Q@",
"H@Z@`@6+7+7+h+i+i+w@I+H+G+J+H+G+G+H+H+H+G+x+i+i+h+9+0+7+1+ #.#+#@###.#6+8+7+-@i+j+q+G+G+I+H+G+H+G+G+J+G+H+w+i+i+h+9+7+8+^+$#%#&#",
"g+g+*#6+7+7+h+i+i+N@H+G+H+H+H+H+H+G+H+H+J+z+i+i+h+9+7+7+[+=#-#+#;###-#6+7+7+h+j+i+N@H+G+H+H+I+H+H+H+H+H+G+z+i+i+h+9+7+8+^+%#>#Q@",
",#B@!.'#7+7+h+i+i+N@H+J+H+H+G+H+H+H+H+H+I+z+i+i+-@9+7+7+[+H@g+)#!#H@=#h@7+7+h+i+j+~#H+H+I+G+H+H+H+H+G+H+H+w+i+i+h+{#8+8+[+##.#Q@",
"C@;+]#6+9+7+h+i+i+~#H+H+H+H+H+H+H+G+G+H+H+x+i+i+h+L+8+8+:+;+F@J@K@;+,+6+8+7+h+i+i+q+J+H+H+G+H+H+J+G+H+H+H+x+j+i+h+9+7+7+^+H@g+t@",
"!+^#M.6+9+8+h+i+i+q+G+G+I+G+H+I+H+H+J+H+I+x+k+i+h+L+8+9+^+4.7./#(#v@u@6+7+7+-@i+i+N@H+H+G+G+I+H+H+H+H+H+H+w+i+i+-@9+7+7+^+u@u@E@",
"_#9.:#3+7+7+h+k+i+q+H+G+H+G+H+J+H+G+G+H+G+w+i+j+-@L+7+8+^+<#j@[#}#|#9.3+7+7+h+i+i+q+H+H+H+G+H+H+G+H+H+H+G+x+j+j+-@L+7+7+[+`+9.*+",
"1#1#2#6+7+7+h+i+i+N@G+H+H+H+H+I+I+H+I+H+H+x+i+j+h+L+8+7+[+1#1#3#Y 4#4#3+7+9+-@i+i+w@I+G+J+H+I+H+H+H+H+H+H+x+i+i+h+9+9+8+^+a@5#6#",
"/@1@d@3+7+h+i+w+G+J+Z+X+X+W+W+W+X+W+Y+W+Z+n@H+z+7#i+L+8+^+8#X.9#0#X.1@3+8+h+j+x+H+H+;@W+W+W+X+Y+X+W+X+W+ @n@H+w+F+j+9+7+^+V.a#[+",
"&@&@b#'#8+h+z+H+N+X+Y+,@,@)@)@)@!@'@!@,@c#X+ @I+I+{@L+7+[+2+d#e#f# .2+6+8+-@y+H+O+W+W+)@'@)@!@'@)@!@)@,@~@W+ @H+H+F+9+7+^+~+Z ^+",
".@.@B 3+8+-@y+N+ @W+~@_@:@(@(@(@(@:@(@(@~@X+W+N+J+w+h+7+^+g#h#*.i#%@j#3+9+h+w+N+;@X+>@:@(@:@(@:@(@(@:@(@~@W+Y+O+H+w+h+7+^+k#%@7+",
"S+S+l#3+7+h+w+P+ @W+>@!@:@(@(@:@_@:@(@(@'@Y+Y+Z+H+w+h+8+[+U+5+`+R+m#f+3+8+-@w+T+;@X+'@)@_@(@(@:@_@(@(@_@,@W+X+ @H+w+h+8+^+f+f+8+",
"n#o#F@6+7+-@w+N+;@X+'@,@(@_@(@p#(@(@(@(@!@W+X+N+H+w+L+7+:+q#p `+r#s#t#3+7+O@y+N+Z+W+~@)@:@(@(@:@p#_@_@(@,@W+X+N+H+x+9+7+[+u#u#7+",
"z.z.u@^+7+h+x+N+Z+Y+~@'@(@_@(@p#_@_@:@_@!@W+W+N+I+{@L+8+[+n#u#v#w#q#n#^+7+h+x+P+Z+W+c#'@(@:@(@_@(@(@(@(@!@X+W+N+I+F+9+7+^+x#y#z#",
"A#B#u@^+7+h+w+P+ @Y+'@)@_@_@p#(@(@(@_@_@)@W+W+N+G+{@9+3+1+y#n#C#D#z.y#[+7+h+x+N+Z+W+>@)@(@_@(@:@_@(@(@_@)@X+W+N+H+F+9+6+^+x#x#E#",
"F.F#R@1+7+O@w+N+;@Y+~@,@(@(@(@_@(@:@_@(@c#W+W+O+H+F+v+6+^+u#n#v#G#n#D.^+8+h+w+P+Z+X+'@!@_@(@(@(@(@:@_@(@~@W+W+N+H+{@L+'#[+n#n#E#",
"H#@@X@^+8+h+w+H+;@Y+~@,@!@)@!@)@)@!@!@!@'@W+W+H+H+{@L+6+:+f+U+I#n+4+J#^+8+-@w+H+;@Z+>@,@'@'@,@)@!@'@'@'@>@W+X+H+I+{@9+h@<+f+f+9+",
"d#K#2 ^+7+-@i+H+J+Z+W+~@!@~@)@)@~@>@!@'@W+X+;@H+H+i+L+6+[+2+&@K L#..=@[+7+h+i+I+I+;@Y+~@!@~@)@!@~@~@'@!@Y+Y+ @H+G+i+9+3+<+=@=@^+",
"4@M#N#^+7+7+i+j+x+H+H+;@Z+*@Z+;@;@;@;@;@n@H+w+i+i+h+8+6+[+0@6@f O#6@P#[+7+7+i+j+w+G+H+Z+Z+ @;@;@ @;@ @Z+n@G+x+i+i+-@8+3+<+Q#R#[+",
"S#T#y@^+8+8+9+U#h+i+N@x+H+H+H+G+H+H+H+G+x+i+i+-@9+7+7+^+_+9.V#N#W#`+V#^+7+7+L+h+h+i+q+x+H+H+H+G+H+I+H+I+w+i+i+h+9+8+8+^+<+(./.*+",
"X#*.)#^+7+7+v+h+h+i+N@w+H+H+H+I+H+G+H+H+y+q+i+h+9+0+7+1+_+*.).m@o@*.).^+8+7+L+h+h+i+w@y+J+I+I+G+J+G+H+I+w+i+i+h+L+7+7+^+[+Y#).t@",
"##-#`@^+3+8+7+h+-@i+w@x+G+G+H+H+I+I+H+I+q+i+j+h+v+7+8+^+[+.#-#)#@#.#Z#[+6+7+9+h+h+i+w@w+H+H+I+H+H+H+G+J+N@i+i+h+L+7+9+^+[+`#.#&#",
" $.$+$^+'#8+7+{#h+i+~#x+x+w+w+x+w+x+y+w+w@i+i+L+v+8+7+^+[+%#i {.@$i i 1+h@7+8+L+h+i+~#w+x+w+x+x+y+y+z+x+q+i+i+L+9+8+7+^+<+e i #$",
"$$%$&$1+h@7+7+L+h+i+w@x+x+w+w+x+w+z+z+w+w@i+i+9+9+8+7+^+<+>#F *$=$e -$^+6+7+7+9+h+j+w@w+w+x+y+x+w+x+x+w+N@i+i+9+L+7+7+[+[+F i &#",
"V@;$!.^+^+9+7+L+h+i+i+w@w+w+w+x+x+w+w+w+q+j+h+L+9+0+>$1+[+.#s Q.,$##-$^+^+7+7+9+h+i+j+q+x+w+x+w+w+w+x+x+w@j+h+9+L+7+'$^+<+.#t Q@",
"!+>+Q._+^+8+8+9+h+i+i+w@w+x+w+w+y+x+w+x+w@q+h+9+9+7+'$[+[+*.5.y@z@C@)$<+[+7+7+L+-@i+i+w@y+x+w+x+w+y+w+w+N@i+-@v+v+7+'$^+<+).*.k@",
"f@l.!$[+1+8+7+9+L+i+i+q+q+q+N@w@w@w@w@w@q+i+h+9+L+7+~$[+_+|#9.{$]$b.b.[+1+7+7+9+L+q+i+N@N@w@N@q+q+N@w@~#~#i+O@9+9+7+~$1+<+(.[.k@",
"3@6@G <+[+7+L+9+h+i+q+i+j+j+q+i+i+j+i+i+j+i+i+9+L+7+~$1+:+P#^$/$($_$4@<+^+7+L+9+h+j+j+i+i+i+i+i+i+i+j+i+i+j+i+9+L+7+[+1+[+h.:$:+",
"^@H 3 [+^+7+{#h+i+j+i+q+i+j+i+i+i+i+q+i+i+j+k+i+h+7+7+:+_+J U.P <$J V.[+1+8+L+h+j+j+i+i+i+i+i+i+j+i+i+j+i+i+i+i+h+7+8+1+[+T.W.1+",
"(+[$w :+[+7+-@i+i+i+i+i+i+j+i+i+i+i+i+i+i+i+i+j+i+h+8+1+_+=+=+)+|+=+[$[+1+7+-@i+i+i+i+i+j+i+i+j+q+i+i+i+i+j+i+i+j+h+8+^+:+]@=+^+",
"(+a+.#:+[+8+h+j+i+j+i+i+i+i+i+i+i+i+q+i+i+j+i+j+i+h+7+1+:+(+(+`+|+(+}$:+[+8+h+j+i+i+i+i+i+j+j+i+k+i+i+i+i+j+i+j+i+h+7+^+_+|$1$7+",
"(+(+i [+^+7+h+j+i+i+i+i+q+i+i+i+i+j+j+i+i+i+i+i+i+-@8+1+[+(+=@7.|+1$/+:+[+7+h+i+i+j+i+j+i+j+i+i+i+j+i+i+j+j+i+j+i+h+7+^+_+2$[$7+",
"=+3$c <+^+7+L+9+h+-@h+h+h+h+h+h+h+h+h+h+h+U#h+-@O@L+9+^+<+H 4$*.{+5$H <+^+7+L+9+h+h+h+-@-@h+h+h+h+h+h+h+h+h+h+h+-@v+8+^+<+H I [+",
"W.6$Y :+[+:+:+^+1+^+^+[+1+[+^+^+1+^+^+[+^+1+[+^+[+1+_+[+[+h.7$8$9$3@0$_+_+[+:+1+1+[+[+^+^+^+^+^+^+1+^+[+1+^+[+^+^+^+<+<+:+a$a$_+",
"g.o.5@b$c$d$e$e$b$e$b$b$f$e$b$b$b$e$b$e$c$e$e$e$g$c$b$b$e$3._.h$i$n.l.j$k$k$k$k$k$l$l$k$k$m$k$k$n$k$o$k$l$k$k$j$k$k$k$k$p$q$_.t@",
"+.+.>+5.a.+.0.]+>+%.*.0.*.*.%.r$*.]+R R ,.R P *.;.%.>.]+]+&.>.,$s$R *.*.R ,.,.,.R t$-#]+*.R *.&.).&.R R R ,.u$,+&.&.&.,.R r$&.k@",
"v$t .+.#s >#.#e#s X@%$X@w$.#x$X@A B k A 8$a i t s s >#k y$e#A L.z$%$A n e#A a X@a k k k k i n A w D e#D A e A A A w c $$i B >#Q@",
"i n a A$c B$B$C$k k 8 D$E$n F$G$H$m I$o @ | 4 k n c 1 { o 2 J$!.Q@&#K$&#&#Q@&#&#Q@K$&#Q@Q@&#&#Q@Q@&#&#Q@Q@Q@&#Q@Q@Q@&#&#Q@&#Q@&#"};
