/* XPM */
static char * left_size_door_xpm[] = {
"33 64 376 2",
"  	c #656C5F",
". 	c #656C5D",
"+ 	c #666D60",
"@ 	c #666C5E",
"# 	c #62685C",
"$ 	c #5F6758",
"% 	c #62695C",
"& 	c #60685A",
"* 	c #656C5E",
"= 	c #5F685C",
"- 	c #5B6354",
"; 	c #61685B",
"> 	c #62685A",
", 	c #5F675B",
"' 	c #60685C",
") 	c #6B7061",
"! 	c #6A7061",
"~ 	c #686D60",
"{ 	c #676D5F",
"] 	c #686D5E",
"^ 	c #656C60",
"/ 	c #6D7163",
"( 	c #6D7264",
"_ 	c #6D7162",
": 	c #6A7063",
"< 	c #717565",
"[ 	c #6B7163",
"} 	c #6A7062",
"| 	c #737667",
"1 	c #767969",
"2 	c #767A69",
"3 	c #737768",
"4 	c #737668",
"5 	c #707566",
"6 	c #707568",
"7 	c #707668",
"8 	c #707564",
"9 	c #707565",
"0 	c #707567",
"a 	c #7B7E6D",
"b 	c #7A7E6C",
"c 	c #787A6B",
"d 	c #787B6B",
"e 	c #797A69",
"f 	c #787A69",
"g 	c #767A6C",
"h 	c #7E7F6E",
"i 	c #7A7D6C",
"j 	c #7A7E6E",
"k 	c #787A68",
"l 	c #7B7E6C",
"m 	c #858574",
"n 	c #848474",
"o 	c #848574",
"p 	c #808473",
"q 	c #808372",
"r 	c #7D7F6F",
"s 	c #808371",
"t 	c #818473",
"u 	c #7E7E6D",
"v 	c #818372",
"w 	c #7E7F6F",
"x 	c #818371",
"y 	c #8A8B7A",
"z 	c #8D8D7A",
"A 	c #8A8A78",
"B 	c #8C8D7B",
"C 	c #8A8978",
"D 	c #878977",
"E 	c #8B8A79",
"F 	c #8B8B7A",
"G 	c #8D8E7C",
"H 	c #878875",
"I 	c #848472",
"J 	c #91917F",
"K 	c #959382",
"L 	c #8F8E7D",
"M 	c #959380",
"N 	c #929280",
"O 	c #969380",
"P 	c #959280",
"Q 	c #8F8F7E",
"R 	c #929282",
"S 	c #8F8D7B",
"T 	c #91927F",
"U 	c #908E7C",
"V 	c #8F8E7C",
"W 	c #C3BCA9",
"X 	c #C3BDAA",
"Y 	c #C6BDAB",
"Z 	c #C2BCA9",
"` 	c #C1B8A9",
" .	c #C0B8A3",
"..	c #C2BCA6",
"+.	c #C3BCA7",
"@.	c #C0B8A8",
"#.	c #C6BDAA",
"$.	c #C0B7A5",
"%.	c #B7AF99",
"&.	c #BEB7A1",
"*.	c #C1B9A4",
"=.	c #BEB8A3",
"-.	c #C1B8A6",
";.	c #1C2127",
">.	c #A2A18F",
",.	c #A1A08C",
"'.	c #A2A18D",
").	c #9F9C8A",
"!.	c #9F9B87",
"~.	c #9E9B8A",
"{.	c #9D9784",
"].	c #9F9B89",
"^.	c #9E9B88",
"/.	c #A2A08D",
"(.	c #0F131A",
"_.	c #AAA794",
":.	c #8B8977",
"<.	c #878876",
"[.	c #848370",
"}.	c #818370",
"|.	c #848473",
"1.	c #7E7E6B",
"2.	c #80826F",
"3.	c #858471",
"4.	c #858473",
"5.	c #A2A08F",
"6.	c #A7A593",
"7.	c #0F141C",
"8.	c #AEAB97",
"9.	c #AEAA97",
"0.	c #717666",
"a.	c #12161D",
"b.	c #13161D",
"c.	c #14171E",
"d.	c #13171E",
"e.	c #13171D",
"f.	c #AFAB98",
"g.	c #B3AE9B",
"h.	c #B3AF9B",
"i.	c #13171F",
"j.	c #171C21",
"k.	c #171C22",
"l.	c #181C22",
"m.	c #B1AE9B",
"n.	c #B0AD9A",
"o.	c #B7B3A1",
"p.	c #B6B29E",
"q.	c #7B7E6A",
"r.	c #14171D",
"s.	c #141820",
"t.	c #181D24",
"u.	c #1B2126",
"v.	c #1B2025",
"w.	c #191D25",
"x.	c #B6B29F",
"y.	c #B9B3A1",
"z.	c #7B7E6B",
"A.	c #191C22",
"B.	c #1C2228",
"C.	c #1C2229",
"D.	c #1C2128",
"E.	c #1B2128",
"F.	c #B9B4A1",
"G.	c #1B2127",
"H.	c #1F262A",
"I.	c #1E252A",
"J.	c #1F252A",
"K.	c #1E2529",
"L.	c #181D22",
"M.	c #1F272B",
"N.	c #20272C",
"O.	c #1F262C",
"P.	c #20262C",
"Q.	c #20272D",
"R.	c #1E262B",
"S.	c #1C2126",
"T.	c #232B2E",
"U.	c #222A2E",
"V.	c #222B2E",
"W.	c #B3AE9A",
"X.	c #AFAA96",
"Y.	c #252C2F",
"Z.	c #252B2F",
"`.	c #242B2F",
" +	c #AFAB96",
".+	c #A7A591",
"++	c #A5A28E",
"@+	c #252C30",
"#+	c #273032",
"$+	c #272F32",
"%+	c #252C31",
"&+	c #A7A692",
"*+	c #A1A08B",
"=+	c #59635A",
"-+	c #1B2228",
";+	c #1F272C",
">+	c #242C30",
",+	c #252D31",
"'+	c #9F9C89",
")+	c #9C9B88",
"!+	c #999684",
"~+	c #928E79",
"{+	c #525B52",
"]+	c #191D23",
"^+	c #232B2F",
"/+	c #979684",
"(+	c #979682",
"_+	c #91917D",
":+	c #92927E",
"<+	c #4B544D",
"[+	c #1D2127",
"}+	c #92917D",
"|+	c #8F907C",
"1+	c #92917C",
"2+	c #898B77",
"3+	c #8C8C79",
"4+	c #444C48",
"5+	c #84836F",
"6+	c #878774",
"7+	c #878874",
"8+	c #3C4742",
"9+	c #1D2227",
"0+	c #81836F",
"a+	c #81826D",
"b+	c #7E826F",
"c+	c #38423E",
"d+	c #13181F",
"e+	c #7D7E69",
"f+	c #7B7D6A",
"g+	c #787C6A",
"h+	c #7B7D68",
"i+	c #333D3B",
"j+	c #14181F",
"k+	c #767862",
"l+	c #767966",
"m+	c #333937",
"n+	c #767965",
"o+	c #767967",
"p+	c #797D69",
"q+	c #7A7D6A",
"r+	c #7E7F6C",
"s+	c #343D39",
"t+	c #7B7D69",
"u+	c #7E816C",
"v+	c #373E3C",
"w+	c #7E826C",
"x+	c #81836D",
"y+	c #878772",
"z+	c #3D4743",
"A+	c #858573",
"B+	c #8B8976",
"C+	c #414B46",
"D+	c #8D8C79",
"E+	c #8C8C78",
"F+	c #96937F",
"G+	c #4D5650",
"H+	c #95927E",
"I+	c #989580",
"J+	c #9D9B87",
"K+	c #545F56",
"L+	c #9D9B86",
"M+	c #5F685E",
"N+	c #1B2227",
"O+	c #A7A590",
"P+	c #A8A58F",
"Q+	c #A5A18D",
"R+	c #B1AE99",
"S+	c #6A7164",
"T+	c #262F32",
"U+	c #AEAA95",
"V+	c #ACA994",
"W+	c #ACAA95",
"X+	c #262F31",
"Y+	c #B3AE99",
"Z+	c #BBB6A2",
"`+	c #1F262B",
" @	c #BCB7A3",
".@	c #B9B39F",
"+@	c #C1BCA7",
"@@	c #C0BBA6",
"#@	c #BEB7A3",
"$@	c #C2BCA7",
"%@	c #181D25",
"&@	c #C0B8A6",
"*@	c #B9B29D",
"=@	c #BBB7A2",
"-@	c #AFAA95",
";@	c #AFAA94",
">@	c #6D7161",
",@	c #B1AD98",
"'@	c #B0AD98",
")@	c #A6A18D",
"!@	c #A09B86",
"~@	c #191D22",
"{@	c #908D79",
"]@	c #95917D",
"^@	c #505A52",
"/@	c #979582",
"(@	c #878572",
"_@	c #878976",
":@	c #424C47",
"<@	c #191E25",
"[@	c #37413E",
"}@	c #6C705D",
"|@	c #737968",
"1@	c #2F3836",
"2@	c #6C705F",
"3@	c #747664",
"4@	c #323936",
"5@	c #787966",
"6@	c #787965",
"7@	c #363E3B",
"8@	c #737563",
"9@	c #404845",
"0@	c #4E554E",
"a@	c #8A8977",
"b@	c #10131A",
"c@	c #9C9A88",
"d@	c #9C9A86",
"e@	c #565F56",
"f@	c #9A9684",
"g@	c #9A9784",
"h@	c #A5A28F",
"i@	c #A5A290",
"j@	c #A5A18E",
"k@	c #A1A08E",
"l@	c #ACAA97",
"m@	c #A9A693",
"n@	c #A9A694",
"o@	c #AAA795",
"p@	c #ACA996",
"q@	c #AFAB97",
"r@	c #ABA796",
"s@	c #A9A795",
"t@	c #14161C",
"u@	c #A7A592",
"v@	c #A4A18F",
"w@	c #A5A291",
"x@	c #9C9A89",
"y@	c #9A9786",
"z@	c #92927F",
"A@	c #545E55",
"B@	c #323A3C",
"C@	c #303A3B",
"D@	c #31393B",
"E@	c #313A3B",
"F@	c #2F3A3B",
"G@	c #303A3C",
"H@	c #323A3B",
"I@	c #8D8E7E",
"J@	c #7D7E6D",
"K@	c #7E7F6D",
"L@	c #0F1219",
"M@	c #767A6B",
"N@	c #757968",
"O@	c #737564",
"P@	c #737666",
"Q@	c #737664",
"R@	c #6C715F",
"S@	c #6A6E60",
"T@	c #6D7061",
"U@	c #0F1319",
"V@	c #6C7162",
"W@	c #6C7164",
"X@	c #6C7060",
"Y@	c #5F6355",
"Z@	c #676C5C",
"`@	c #6B705F",
" #	c #6A705F",
".#	c #5E6353",
"+#	c #676C5B",
"@#	c #676C5D",
"##	c #626858",
"$#	c #656C5B",
"%#	c #63695B",
"&#	c #676D60",
"  . + @ # $ % % . & * # = @ & - % % ; @ # > # = ; , . % ' = > = , ",
") ! ! ~ ! { { { ~ * > @ ] { @ ~ ~ ~ ~ {   { ^   +   {   ~ { * @ { ",
"/ ( _ _ : < _ _ _ # [ } _ _ / / / / : / _ : _ / : _ _ } _ / _ [ _ ",
"| 1 | _ < 2 | 3 4 5 5 5 2 6 | 7 | | 7 3 6 8 9 4 5 / 5 9 | | | 0 7 ",
"a b c d d b e f a c d g h i j a a a a a d k a c d c d l b a l b a ",
"m n o p m o q p o r s r m o m m o o t m t m o m t s u v w r t t x ",
"y z A A A A A B y C A D E F G E B B C z E E A A H H n D D D E A I ",
"J K J J J L M N O N P L Q K R N S S T U J J N V J T J J L T N T L ",
"W X Y X Z X W W `  ...+.@.X #.$.%.%.&.*.X +.+.=.Z Z -.W -.X X Z ;.",
">.,.'.'.'.,.,.).,.!.'.~.~.,.'.'.{.{.{.].~.].^.^.~.'.~./.,.'.,.'.(.",
"_._.:.<.H <.H [.}.m I s |.m H H 1.1.2.|.|.1.3.I I <.H I 4.5.6._.7.",
"8.9.0.a.b.c.d.e.e.a.e.e.d.b.d.e.d.d.d.e.c.a.c.a.d.a.d.e.b.8.8.f.7.",
"g.h.1 e.i.j.j.k.j.j.j.l.j.j.j.j.k.k.j.j.j.j.j.j.j.j.l.j.e.m.m.n.e.",
"o.p.q.r.s.j.t.u.u.u.u.u.u.u.u.v.v.v.u.u.u.v.v.u.u.v.w.j.c.p.p.x.d.",
"y.y.z.c.j.A.v.B.C.B.C.B.D.C.B.C.E.E.D.B.C.E.C.C.B.B.t.j.r.y.y.y.b.",
"F.y.u c.j.l.G.H.H.I.H.H.H.H.J.J.K.K.H.J.H.H.I.H.K.B.t.L.c.y.F.F.d.",
"x.p.1 e.j.l.D.H.M.N.N.N.O.O.O.N.P.P.N.Q.N.N.N.R.H.B.S.j.e.p.x.p.e.",
"g.g.5 e.j.w.C.H.Q.T.T.T.T.T.U.V.U.U.T.U.T.U.V.O.H.E.u.k.c.W.g.h.d.",
"9.X.: c.j.t.E.H.P.U.Y.Z.Y.Z.Y.Y.Y.Y.`.Z.Y.Y.U.N.H.E.v.l.e. +X.f.e.",
".+++, e.j.t.C.R.N.V.Z.@+#+#+$+$+#+#+$+$+%+Z.V.O.M.B.u.j.e..+&+.+e.",
"*+!.=+c.j.w.-+H.;+V.U.@+%+>+>+>+>+>+>+>+,+V.V.R.K.C.t.j.c.'+)+)+b.",
"!+~+{+c.j.]+v.H.K.O.^+T.T.Y.U.Y.@+@+Z.T.U.V.N.H.H.G.t.k.r./+(+(+e.",
"_+:+<+s.k.]+u.S.B.K.H.N.P.O.O.P.N.N.N.Q.N.H.I.C.[+u.l.j.i.}+|+1+d.",
"2+3+4+i.j.L.w.u.u.;.H.I.H.H.H.K.H.H.H.I.H.H.;.u.u.w.k.j.s.5+6+7+e.",
"7+7+8+i.j.j.t.v.v.9+H.I.K.H.I.I.H.H.H.H.H.H.;.u.u.t.j.k.i.0+0+a+e.",
"b+}.c+s.l.j.t.u.v.;.K.H.K.K.H.J.H.H.I.H.H.I.;.v.u.t.j.k.d+e+f+g+e.",
"f+h+i+j+j.j.t.u.u.[+I.H.H.H.H.H.H.H.I.H.H.H.;.u.u.t.j.k.d+k+l+h+b.",
"h+h+m+i.j.k.t.u.v.9+H.I.J.H.H.H.H.H.I.H.H.K.;.u.u.t.j.j.s.n+o+p+e.",
"q+r+s+s.j.j.t.u.u.[+H.I.H.H.H.H.H.H.K.H.H.H.S.u.v.w.j.k.s.h+h+t+a.",
"u+2.v+d+j.k.t.u.u.[+J.J.I.H.H.I.J.J.H.H.H.K.;.u.v.w.k.L.i.u+w+x+b.",
"3.y+z+s.j.k.t.u.u.;.H.J.H.I.H.J.J.J.H.H.H.H.[+u.u.t.j.j.s.A+4.I e.",
"B+7+C+i.k.j.t.S.v.S.H.J.H.I.I.I.H.H.I.J.H.I.9+S.u.t.j.j.i.D+D+E+a.",
"B+7+C+i.k.j.t.S.v.S.H.J.H.I.I.I.H.H.I.J.H.I.9+S.u.t.j.j.i.D+D+E+a.",
"F+:+G+i.j.l.t.u.u.;.I.I.H.K.H.I.H.H.I.H.I.J.S.u.u.t.k.j.s.H+:+I+d.",
"J+J+K+i.j.l.u.u.E.H.H.N.O.O.O.N.P.P.O.P.P.H.H.B.u.t.l.j.i.J+L+J+e.",
".+&+M+s.j.t.N+H.H.P.V.T.V.U.V.T.T.T.U.Y.V.T.O.H.H.-+t.j.s.O+P+Q+b.",
"R+R+S+i.l.t.E.R.O.T.V.>+T+T+#+$+#+#+T+#+>+Y.V.O.R.K.u.j.s.U+V+W+a.",
"p.x.2 s.j.t.C.H.N.V.@+>+#+X+#+#+T+T+#+#+>+Z.T.Q.O.H.u.j.d+g.h.Y+e.",
"Z+Z+a s.j.t.B.R.P.T.Z.%+#+$+T+$+#+#+T+#+@+`.T.N.`+C.u.L.d+ @.@.@e.",
"+@@@s c.j.t.B.R.N.V.Y.%+#+#+#+#+$+$+$+#+>+Y.V.N.R.C.u.k.r.#@=.#@d.",
"$@+.H c.k.%@E.R.O.T.Y.@+#+#+#+T+#+#+#+#+@+Y.V.O.`+B.u.j.r...=.+.e.",
" .=.3.e.k.t.C.R.N.U.Y.>+#+#+#+#+#+#+#+$+%+Z.V.O.R.E.t.k.c.&@+@=.b.",
"*@*@a+c.j.w.D.J.Q.V.Y.@+@+@+>+%+,+,+>+>+>+Z.V.Q.H.C.v.j.r.=@ @ @b.",
"-@;@>@c.j.t.B.J.P.Q.V.Y.,+@+%+>+>+>+>+>+Z.T.O.M.H.C.t.k.r.R+,@'@a.",
")@!@' e.j.~@u.B.I.H.O.V.U.V.U.U.T.T.U.V.T.O.H.K.C.u.t.k.c.'+,.,.d.",
"{@]@^@e.k.j.l.u.v.S.I.J.I.J.H.H.H.H.I.K.J.I.;.u.u.t.j.j.e.I+(+/@e.",
"(@_@:@c.j.j.l.t.<@v.;.B.I.I.I.H.H.H.I.H.B.S.u.t.t.]+j.L.c.<.H H e.",
"h+1.[@e.j.l.]+t.t.u.;.B.H.H.H.H.H.H.H.I.B.;.u.t.<@]+j.j.e.1.f+f+a.",
"}@|@1@c.j+k.j.~@t.u.9+C.C.B.B.C.C.C.B.B.B.S.u.w.~@k.j.i.c.8 8 8 e.",
"2@3@4@r.d+j.j.]+t.u.;.C.C.B.B.C.E.E.D.C.E.;.u.t.l.j.j.s.r.8 9 < e.",
"5@6@7@c.c.l.j.]+t.u.u.;.B.B.B.C.B.B.B.B.;.u.v.%@l.j.j.c.c.8@1 e b.",
"3.I 9@a.c.k.k.l.t.u.u.;.B.C.B.B.C.C.C.B.[+v.u.t.l.k.j.e.d.x s v 7.",
":+U 0@e.r.k.j.l.]+u.u.S.S.S.[+;.;.;.S.S.;.u.u.A.l.j.j.r.e.G a@3+b@",
"c@d@e@d.e.j.]+l.t.u.S.u.v.v.S.u.u.u.u.u.u.S.u.<@]+j.k.r.e.f@g@!+7.",
"Q+h@{ e.c.j.~@t.u.v.u.S.u.v.u.u.u.u.u.v.u.u.u.v.S.l.j.e.d.i@j@k@(.",
"9.l@5 b.e.j.w.u.u.u.u.u.u.v.u.u.u.u.u.u.u.u.S.u.u.t.j.c.b.m@n@o@b@",
"9.m.o+b.e.k.t.v.u.v.u.u.u.u.u.u.u.u.u.u.u.u.u.u.u.u.l.c.b.9.p@q@b@",
"9.9.8 e.c.j.t.v.u.u.u.u.S.u.u.u.u.u.u.u.u.u.u.u.v.u.]+c.e.p@r@s@t@",
"_.u@_ d.c.j.]+l.t.w.t.t.t.t.t.t.t.t.t.t.t.t.t.t.t.]+]+r.e.v@].w@b@",
").x@M+b.e.b.b.c.r.c.c.e.r.e.c.c.c.c.c.e.c.r.c.c.c.c.d.e.d.g@f@y@(.",
"N z@A@B@C@D@E@E@B@E@B@B@F@E@B@B@G@G@B@B@E@H@D@B@E@D@B@B@B@A B I@b@",
"m m I A+|.m 4.J@I q s 4.s s q K@s s J@2.h b K@h q p r h h h r h L@",
"M@2 N@o+1 O@o+P@1 Q@3@Q@R@o+S@Q@3 3 _ Q@P@_ 8 o+2 2 P@>@>@T@9 O@U@",
"8 V@/ W@_ X@X@Y@>@>@Z@`@ #V@.#+#) ) @# #]  #@###_ / : $#%#~ ! &#(."};
