/* XPM */
static char * right_door_xpm[] = {
"32 64 377 2",
"  	c #60685C",
". 	c #61685B",
"+ 	c #5F685C",
"@ 	c #606859",
"# 	c #62685A",
"$ 	c #5C6358",
"% 	c #5B6356",
"& 	c #616758",
"* 	c #5C6357",
"= 	c #62695C",
"- 	c #60675A",
"; 	c #5F675B",
"> 	c #5F675C",
", 	c #5F675A",
"' 	c #626858",
") 	c #5F6758",
"! 	c #60685A",
"~ 	c #5F6859",
"{ 	c #5F6858",
"] 	c #656C60",
"^ 	c #676D60",
"/ 	c #686D60",
"( 	c #656C5F",
"_ 	c #666C5E",
": 	c #676C5F",
"< 	c #676C5C",
"[ 	c #676D5F",
"} 	c #656C5E",
"| 	c #666D60",
"1 	c #656C5C",
"2 	c #676D5E",
"3 	c #686D5E",
"4 	c #6A7063",
"5 	c #707564",
"6 	c #6D7263",
"7 	c #6A7062",
"8 	c #6D7161",
"9 	c #676D5C",
"0 	c #6D7163",
"a 	c #6B7162",
"b 	c #6C7162",
"c 	c #676C5D",
"d 	c #6A7061",
"e 	c #6D7162",
"f 	c #6B7061",
"g 	c #BBB7A1",
"h 	c #BAB6A0",
"i 	c #767A69",
"j 	c #747666",
"k 	c #707567",
"l 	c #707668",
"m 	c #707566",
"n 	c #717666",
"o 	c #696D5F",
"p 	c #707464",
"q 	c #707568",
"r 	c #565F56",
"s 	c #A5A28F",
"t 	c #A5A290",
"u 	c #A4A18F",
"v 	c #7A7D6C",
"w 	c #7B7E6D",
"x 	c #787B6B",
"y 	c #7A7E6C",
"z 	c #767969",
"A 	c #787A68",
"B 	c #797A69",
"C 	c #75796B",
"D 	c #787A69",
"E 	c #787A6A",
"F 	c #787A6B",
"G 	c #5F685E",
"H 	c #A7A591",
"I 	c #A7A692",
"J 	c #A7A691",
"K 	c #A8A692",
"L 	c #7D7F6F",
"M 	c #848574",
"N 	c #808372",
"O 	c #858574",
"P 	c #808371",
"Q 	c #818472",
"R 	c #7E7F70",
"S 	c #818371",
"T 	c #818473",
"U 	c #808473",
"V 	c #6D7264",
"W 	c #363E3B",
"X 	c #363D3B",
"Y 	c #373E3C",
"Z 	c #363E3C",
"` 	c #858573",
" .	c #878977",
"..	c #8A8A78",
"+.	c #8A8977",
"@.	c #848474",
"#.	c #8B8A77",
"$.	c #878876",
"%.	c #878875",
"&.	c #8B8A78",
"*.	c #8A8978",
"=.	c #8C8D7A",
"-.	c #858473",
";.	c #848473",
">.	c #8B8977",
",.	c #8B8A79",
"'.	c #908E7C",
").	c #8F8D7B",
"!.	c #8B8B7A",
"~.	c #8F8E7B",
"{.	c #8D8B79",
"].	c #8F8E7C",
"^.	c #8F8F7E",
"/.	c #91917F",
"(.	c #91927F",
"_.	c #929280",
":.	c #8F8E7D",
"<.	c #2E3331",
"[.	c #3F4743",
"}.	c #404844",
"|.	c #404843",
"1.	c #3B433F",
"2.	c #3F4744",
"3.	c #3F4845",
"4.	c #404845",
"5.	c #3F4844",
"6.	c #0C0F17",
"7.	c #535F57",
"8.	c #7A7E6E",
"9.	c #7B7B69",
"0.	c #7B7F6F",
"a.	c #7D7F70",
"b.	c #7D8071",
"c.	c #7D7F71",
"d.	c #808472",
"e.	c #10131A",
"f.	c #6C7268",
"g.	c #959382",
"h.	c #7D7E6D",
"i.	c #818372",
"j.	c #7E7F6E",
"k.	c #A1A08E",
"l.	c #14171E",
"m.	c #6F766B",
"n.	c #AEAA97",
"o.	c #13161D",
"p.	c #13171D",
"q.	c #13171E",
"r.	c #14171D",
"s.	c #12161D",
"t.	c #AAA692",
"u.	c #AAA794",
"v.	c #141820",
"w.	c #757A6F",
"x.	c #B3AF9B",
"y.	c #B3AE9B",
"z.	c #13171F",
"A.	c #171C21",
"B.	c #181C22",
"C.	c #171C22",
"D.	c #AFAB97",
"E.	c #787B6F",
"F.	c #B3AE9E",
"G.	c #B2AE9E",
"H.	c #181D24",
"I.	c #1B2126",
"J.	c #1B2025",
"K.	c #1C2126",
"L.	c #B2AE9C",
"M.	c #B3AE9C",
"N.	c #777C71",
"O.	c #B9B3A1",
"P.	c #B8B3A0",
"Q.	c #1C2228",
"R.	c #1C2229",
"S.	c #1C2128",
"T.	c #1B2128",
"U.	c #B6B2A0",
"V.	c #B8B3A1",
"W.	c #191D23",
"X.	c #1B2127",
"Y.	c #1E252A",
"Z.	c #1F262A",
"`.	c #1F252A",
" +	c #1E2529",
".+	c #777B6E",
"++	c #B9B39F",
"@+	c #1E262B",
"#+	c #1F262B",
"$+	c #1F272C",
"%+	c #1F272B",
"&+	c #B6B29F",
"*+	c #B6B29E",
"=+	c #232B2E",
"-+	c #222B2E",
";+	c #222A2E",
">+	c #20272D",
",+	c #B3AE9A",
"'+	c #72776B",
")+	c #B0AD98",
"!+	c #ACAA95",
"~+	c #20262C",
"{+	c #20272C",
"]+	c #191D25",
"^+	c #252B2F",
"/+	c #242C30",
"(+	c #252C31",
"_+	c #252D31",
":+	c #252C2F",
"<+	c #676E65",
"[+	c #A2A08C",
"}+	c #A2A08B",
"|+	c #272F32",
"1+	c #273032",
"2+	c #262F32",
"3+	c #1B2228",
"4+	c #9E9B88",
"5+	c #A2A18D",
"6+	c #646C62",
"7+	c #9A9682",
"8+	c #96927F",
"9+	c #1F262C",
"0+	c #252C30",
"a+	c #191C22",
"b+	c #9A9684",
"c+	c #5B645B",
"d+	c #92927E",
"e+	c #8A8976",
"f+	c #13181F",
"g+	c #908D79",
"h+	c #92917C",
"i+	c #0F131A",
"j+	c #555F57",
"k+	c #8A8875",
"l+	c #8B8976",
"m+	c #20262A",
"n+	c #0F1319",
"o+	c #515A52",
"p+	c #7E7E6A",
"q+	c #81826D",
"r+	c #1C2127",
"s+	c #81836F",
"t+	c #81836D",
"u+	c #0E1219",
"v+	c #525B52",
"w+	c #7D7E67",
"x+	c #7A7D6A",
"y+	c #1D2127",
"z+	c #181D25",
"A+	c #7B7D6A",
"B+	c #787A66",
"C+	c #0B0F17",
"D+	c #505950",
"E+	c #787966",
"F+	c #7C7E69",
"G+	c #737664",
"H+	c #71745E",
"I+	c #4E564E",
"J+	c #767965",
"K+	c #767967",
"L+	c #707563",
"M+	c #707562",
"N+	c #0C1018",
"O+	c #4F564D",
"P+	c #797A67",
"Q+	c #737564",
"R+	c #525A50",
"S+	c #797D69",
"T+	c #1D2227",
"U+	c #191D22",
"V+	c #818370",
"W+	c #7E7E6B",
"X+	c #7B7E6A",
"Y+	c #566058",
"Z+	c #878874",
"`+	c #878774",
" @	c #5B6359",
".@	c #8C8C79",
"+@	c #8C8C78",
"@@	c #979580",
"#@	c #979682",
"$@	c #979581",
"%@	c #10141C",
"&@	c #686E63",
"*@	c #9F9B87",
"=@	c #20262B",
"-@	c #9F9B89",
";@	c #6D7266",
">@	c #A7A693",
",@	c #72766B",
"'@	c #B1AD98",
")@	c #B1AE98",
"!@	c #B8B29E",
"~@	c #7D8073",
"{@	c #BCB7A2",
"]@	c #BCB7A3",
"^@	c #262F31",
"/@	c #BEB8A3",
"(@	c #7D8175",
"_@	c #BEB7A3",
":@	c #BEB8A5",
"<@	c #242B2F",
"[@	c #C1BCA7",
"}@	c #C0BBA6",
"|@	c #171D24",
"1@	c #808477",
"2@	c #C3BCA7",
"3@	c #171D23",
"4@	c #7E8073",
"5@	c #BDB7A2",
"6@	c #1A2127",
"7@	c #14181F",
"8@	c #B4AE9A",
"9@	c #707569",
"0@	c #A9A693",
"a@	c #666D61",
"b@	c #9C9A86",
"c@	c #969583",
"d@	c #9C9B88",
"e@	c #9D9B87",
"f@	c #5C645A",
"g@	c #908E7B",
"h@	c #8D8D7A",
"i@	c #525B54",
"j@	c #7D8270",
"k@	c #777A67",
"l@	c #747968",
"m@	c #49504A",
"n@	c #717565",
"o@	c #0B0F18",
"p@	c #485049",
"q@	c #727562",
"r@	c #4E5650",
"s@	c #181C20",
"t@	c #7A7A69",
"u@	c #586359",
"v@	c #171B1F",
"w@	c #5F6860",
"x@	c #979684",
"y@	c #969380",
"z@	c #979683",
"A@	c #6A7065",
"B@	c #A2A18F",
"C@	c #9F9C8A",
"D@	c #ACAA97",
"E@	c #A9A694",
"F@	c #AEAB99",
"G@	c #1B2125",
"H@	c #AEAA98",
"I@	c #AEAA99",
"J@	c #AEAB97",
"K@	c #ACAA99",
"L@	c #A7A593",
"M@	c #656D63",
"N@	c #9C9A88",
"O@	c #9C9A87",
"P@	c #9A9786",
"Q@	c #56605A",
"R@	c #394344",
"S@	c #384344",
"T@	c #374344",
"U@	c #374244",
"V@	c #3A4344",
"W@	c #374243",
"X@	c #384242",
"Y@	c #8C8E7B",
"Z@	c #8C8D7B",
"`@	c #515A53",
" #	c #787A67",
".#	c #7B7B6A",
"+#	c #7E7F6D",
"@#	c #4B554E",
"##	c #747664",
"$#	c #737665",
"%#	c #737666",
"&#	c #6C705F",
"*#	c #0B1018",
"  .   + @ # $ % & * = = = + - ; ; > , , - ' ) , ! * ~ ,   , * { ",
"] ^ / ( _ : _ _ / < / / / [ ' } ( | 1 1 _ 2 } ( 3 3 ] | [ # 1 # ",
"4 5 6 7 8 9 0 a 4 b 7 0 / c d a 4 e e f e 4 a ] g h g h h g h g ",
"i j k l j 0 m m m m n e e n o 5 m n m p m q m r s t u t s s t t ",
"v w w w x y w z A B C B D z D C E w x F x E x G H I J I J J H K ",
"L M N O O P Q R S P O P T N N T T U U N T M P V W W W W X Y Z Y ",
"`  .......+.O @.#.$.%. . .M .... .&...*.*.=...-.$.;.O O  .$.>.,.",
"'.'.'.'.).'.!.~.~.{.'.].'.^./.(.(._./.(._./.:.].].'.].'.'.:.].'.",
"<.[.}.|.1.}.}.2.[.3.3.}.3.4.2.2.2.5.4.2.4.5.4.[.5.3.2.}.}.2.2.6.",
"7.R L 8.8.8.9.L 0.T 8.P a.T a.b.c.a.T d.d.L y R R R L R L L w e.",
"f.u g.P R h.P ` i.P T N P P P ;.;.P P P P S P L j.h.P i.j.k.k.l.",
"m.n.n.o.o.p.p.p.q.p.p.q.l.r.o.q.s.o.o.s.q.l.p.o.q.q.o.o.p.t.u.v.",
"w.x.y.p.z.A.A.B.A.A.A.A.A.A.A.A.A.A.A.A.A.C.A.C.C.A.A.r.q.n.D.v.",
"E.F.G.l.v.C.H.I.I.I.I.J.J.I.I.I.I.I.J.I.K.I.I.I.I.I.A.l.p.L.M.A.",
"N.O.P.l.A.B.I.Q.Q.Q.Q.Q.R.Q.Q.S.R.R.Q.T.T.S.Q.R.R.I.B.r.q.U.V.A.",
"N.O.O.l.A.W.X.Y.Y.Z.Z.`.Z. +Y.Z.Z.Z.Z.Z.Z.Z.Z.`.Z.I.B.p.p.V.O.C.",
".+x.++l.A.W.X.Z.@+#+@+$+@+%+#+$+%+#+@+@+@+@+$+Z.Z.J.W.r.q.&+*+A.",
"E.y.y.r.C.B.R.Y.#+=+-+=+;+=+-+-+=+-+-+=+=+=+>+Y.Z.I.W.z.q.x.,+A.",
"'+)+!+l.A.H.R.Z.~+=+=+-+=+=+-+-+;+=+;+;+-+;+{+Z.Y.I.W.v.p.D.n.v.",
"f.u.t.l.C.]+T.Z.{+-+^+/+(+(+/+/+(+_+/+(+:+;+=+Z.Z.X.B.z.o.u.u.l.",
"<+[+}+l.C.H.R.Z.{+=+=+/+|+1+1+2+1+2+|+1+:+=+{+#+`.3+W.v.r.4+5+q.",
"6+7+8+l.A.H.3+Z.$+9+-+^+/+(+/+/+/+_+/+0+-+;+{+Z.`.I.a+A.r.7+b+s.",
"c+d+e+f+A.B.I.R.Z.Z.>+-+-+-+=+;+=+=+-+=+{+{+ +Q.Q.J.a+C.l.g+h+i+",
"j+k+l+z.A.W.H.I.3+R.Y.m+{+>+{+{+{+>+9+9+Z.Y.R.I.I.H.A.C.l.%.+.n+",
"o+p+q+f+A.A.H.I.I.r+Y.Z.Z.Y.Z.Y.Y.`.Z.Z.Y.R.I.I.H.W.A.A.l.s+t+u+",
"v+w+x+v.B.A.H.J.I.y+Z.Z.Z.Z.Z.Z.Z.`.Z.Y.Z.Q.I.I.z+B.A.A.l.A+B+C+",
"D+E+F+z.B.A.H.J.I.K.Z.Z.Z.Z.Z.Z.Z.Z.Y.Z.Y.Q.I.J.H.W.C.A.r.G+H+C+",
"I+J+K+z.C.A.]+I.J.K.Y.Y.`.Z.Y.Z.Y.Y. +Y.Z.Q.I.I.H.B.A.C.l.L+M+N+",
"O+J+P+z.A.A.H.J.I.y+Z.Y.Z.Z.`.Z.Z.Z.Z.Z.Y.T.I.I.H.B.A.C.l.M+Q+C+",
"R+A+S+f+A.A.H.I.J.T+Z.Z.`.Y.Z.Z.Z.Z.Y.Z.Z.Q.I.I.H.U+C.C.p.J+K+C+",
"v+V+W+z.C.A.H.I.I.K. +Z.Z.Y.Z.Z. +Y.Z.Z.Z.R.J.I.H.B.A.A.l.A+X+n+",
"Y+Z+`+z.A.A.]+I.I.y+Z.Z.Y.Y.`.Z.Z.Z.Z.Z.Z.Q.I.I.]+B.A.A.l.`+`+u+",
" @.@=.v.A.A.H.I.I.K.Z.Z.Z.Y.Z.Z.Y.Z.Z.Z.Y.R.J.J.]+W.A.A.p.+@=.e.",
"G @@@@v.A.B.]+I.I.r+`.Y. +Z.`.Z.Z.Z.Z.Z.Z.R.I.I.H.B.B.C.l.#@$@%@",
"&@*@}+v.C.H.J.R.Z.Z.9+=+=+=+-+;+-+=+-+=+>+=@Z.Q.3+J.B.A.l.5+-@p.",
";@J t.z.C.]+S.Z.#+=+=+/+0+/+(+0+/+(+/+_+^+=+>+Z.Z.3+B.A.l.>@H l.",
",@)+'@v.B.H.Q.@+9+-+:+|+1+|+1+|+1+1+|+1+^+=+;+#+Z.Q.H.A.l.)@)+A.",
".+!@*+v.C.]+Q.%+9+-+0+/+2+1+1+|+2+1+1+2+_+=+-+>+Z.Q.H.C.l.*+*+C.",
"~@{@]@v.A.z+S.@+{+=+^+/+|+1+1+|+^@2+2+1+_+=+-+@+Z.R.B.A.p./@/@A.",
"(@_@:@l.A.H.R.$+{+=+<@0+1+|+1+2+1+1+1+1+(+-+=+@+`.3+B.A.l.[@}@|@",
"1@2@}@p.A.H.R.@+{+=+:+/+1+2+1+|+2+1+1+2+/+-+=+@+Z.3+B.z.l.[@[@3@",
"4@:@5@l.C.H.Q.$+{+-+0+(+2+1+1+1+1+|+2+1+^+=+=+@+Z.6@W.7@p.:@:@3@",
"E.y.8@l.C.]+Q.Z.9+{+:+_+0+0+_+/+(+0+0+0+:+=+-+Z.`.6@B.f+q.*+*+B.",
"9@K 0@p.A.H.I.`.`.9+;+^+(+^+/+(+^+^+0+(+;+;+>+Z.Y.I.B.v.q.0@0@l.",
"a@b@c@p.A.A.I.J.Q.Y.Z.{+{+>+9+9+>+9+>+{+=@Y.R.I.I.]+C.v.q.d@e@p.",
"f@+@g@l.A.A.W.H.H.I.K.R.Z.Z.Z.Y.Z.`.Z.`.Q.I.I.H.B.C.C.l.q...h@e.",
"i@P S l.C.A.W.H.H.I.r+S. +`.`.Y. +Y.Z.`.Q.I.I.H.W.A.A.l.p.j@S n+",
"I+K+k@p.z.A.B.H.H.I.r+Q.Z.Z.`.Z.Z.Z.Y. +y+I.I.H.W.A.B.l.p.l@K+N+",
"m@5 5 r.f+A.C.W.H.I.T+Q.R.Q.R.R.S.S.T.R.K.I.I.W.B.C.A.l.q.n@5 o@",
"p@n@q@l.z.A.A.B.H.J.r+Q.Q.R.S.R.Q.R.R.Q.y+I.I.B.W.A.A.p.p.p 5 N+",
"r@J+q@l.l.A.A.B.H.I.J.K.R.Q.R.Q.Q.Q.R.R.r+J.H.B.W.A.s@l.q.K+i C+",
"o+s+t@q.p.A.A.W.]+I.I.r+S.R.Q.R.Q.S.Q.Q.y+I.]+a+a+A.s@l.q.S P i+",
"u@>.>.p.r.A.A.B.W.K.I.y+y+r+y+K.K.y+r+T+T+I.z+B.B.A.v@r.q...,.i+",
"w@x@7+q.l.A.W.B.H.J.J.I.I.I.I.I.I.I.J.I.I.J.I.B.W.A.p.r.p.y@z@o.",
"A@u 5+p.r.C.W.H.J.J.I.I.I.I.I.I.J.I.I.J.I.I.I.I.H.A.C.r.p.B@C@r.",
"m.u.D@p.r.A.]+I.I.I.I.I.J.I.I.J.K.I.I.I.I.J.I.I.J.H.C.l.o.E@u.l.",
"m.n.F@o.p.C.H.J.I.I.I.I.I.J.J.I.G@I.I.I.I.J.I.J.I.H.A.l.s.H@I@A.",
"m.I@J@o.p.A.H.I.I.J.I.J.I.J.I.I.I.J.I.I.J.J.I.J.I.H.A.l.s.K@D@A.",
"f.L@s q.l.A.W.B.H.H.H.]+]+H.H.H.H.H.H.H.H.H.H.H.]+a+C.l.q.s t p.",
"M@N@O@s.s.p.o.r.r.p.p.l.l.l.l.l.l.r.l.p.r.l.p.l.l.l.q.q.o.P@P@s.",
"Q@].'.R@S@S@S@S@S@T@T@S@S@U@S@S@V@S@W@S@T@S@S@R@S@S@S@S@X@Y@Z@n+",
"`@j.P P j.R R R j. #P+h.P j.P L S L j.j.j.R .#W+L L L R j.+#L i+",
"@###$#b %#$#0 G+0 8 8 8 8 5 b $#m j %#j $#n@$#$#$#m e &#5 n Q+C+",
"C+N+*#N+N+C+N+N+C+*#N+C+C+N+N+C+C+N+N+C+C+C+N+C+C+C+N+N+C+N+C+N+"};
