/* XPM */
static char * blue_portal_xpm[] = {
"64 64 594 2",
"  	c None",
". 	c #0090BA",
"+ 	c #009CC6",
"@ 	c #00A5D0",
"# 	c #00A1CB",
"$ 	c #00A0C9",
"% 	c #00A4D0",
"& 	c #0098C1",
"* 	c #0094BB",
"= 	c #0094BC",
"- 	c #008FB8",
"; 	c #0093BD",
"> 	c #009FC8",
", 	c #00A2CC",
"' 	c #0094BE",
") 	c #0082AC",
"! 	c #007AA5",
"~ 	c #0077A2",
"{ 	c #0077A6",
"] 	c #007AAA",
"^ 	c #007BAA",
"/ 	c #0082B6",
"( 	c #0090C5",
"_ 	c #0092C2",
": 	c #008CB8",
"< 	c #0090B7",
"[ 	c #00A3CC",
"} 	c #0096C2",
"| 	c #007AA7",
"1 	c #005B83",
"2 	c #00415F",
"3 	c #004764",
"4 	c #004560",
"5 	c #003F5A",
"6 	c #004F6F",
"7 	c #004565",
"8 	c #004972",
"9 	c #005D91",
"0 	c #0074AF",
"a 	c #008CC5",
"b 	c #0087B4",
"c 	c #0097C2",
"d 	c #00769F",
"e 	c #005075",
"f 	c #004564",
"g 	c #003D52",
"h 	c #002029",
"i 	c #002933",
"j 	c #002D38",
"k 	c #003E4F",
"l 	c #004254",
"m 	c #00485C",
"n 	c #00526E",
"o 	c #004F7D",
"p 	c #0063A7",
"q 	c #0085CB",
"r 	c #008ABF",
"s 	c #0093BF",
"t 	c #00A3CD",
"u 	c #009CC7",
"v 	c #00739C",
"w 	c #005D7F",
"x 	c #003A4D",
"y 	c #002C38",
"z 	c #003644",
"A 	c #00242D",
"B 	c #00212A",
"C 	c #001E26",
"D 	c #000A0C",
"E 	c #000F14",
"F 	c #001920",
"G 	c #002934",
"H 	c #003E4E",
"I 	c #00465D",
"J 	c #005479",
"K 	c #005E9B",
"L 	c #0080CC",
"M 	c #008EC7",
"N 	c #009ECA",
"O 	c #00729C",
"P 	c #004562",
"Q 	c #002D3A",
"R 	c #002B36",
"S 	c #001E25",
"T 	c #001B22",
"U 	c #000F13",
"V 	c #000000",
"W 	c #000303",
"X 	c #000E13",
"Y 	c #002631",
"Z 	c #003746",
"` 	c #004256",
" .	c #004D6E",
"..	c #0076BB",
"+.	c #008BC9",
"@.	c #009EC8",
"#.	c #009BC7",
"$.	c #006C96",
"%.	c #00516E",
"&.	c #002B38",
"*.	c #000D11",
"=.	c #00080C",
"-.	c #000203",
";.	c #000001",
">.	c #000508",
",.	c #002833",
"'.	c #002E3C",
").	c #003E5C",
"!.	c #005390",
"~.	c #0074C7",
"{.	c #0089CB",
"].	c #009EC9",
"^.	c #0076A2",
"/.	c #005271",
"(.	c #002733",
"_.	c #000405",
":.	c #000101",
"<.	c #000A0E",
"[.	c #001D25",
"}.	c #003C4C",
"|.	c #004C6B",
"1.	c #005A99",
"2.	c #0079D6",
"3.	c #008BCE",
"4.	c #00A6D4",
"5.	c #007DA9",
"6.	c #005377",
"7.	c #003546",
"8.	c #001F28",
"9.	c #001318",
"0.	c #002129",
"a.	c #003544",
"b.	c #005679",
"c.	c #0065A9",
"d.	c #007DD3",
"e.	c #0097BF",
"f.	c #0091BE",
"g.	c #006189",
"h.	c #000B0F",
"i.	c #002731",
"j.	c #002F3B",
"k.	c #00374B",
"l.	c #005482",
"m.	c #006BBF",
"n.	c #0080C6",
"o.	c #009DCA",
"p.	c #00A0CC",
"q.	c #006D9A",
"r.	c #004865",
"s.	c #003442",
"t.	c #00070A",
"u.	c #001218",
"v.	c #00475A",
"w.	c #005071",
"x.	c #005FA4",
"y.	c #0075D0",
"z.	c #0096CC",
"A.	c #0096BF",
"B.	c #008BBD",
"C.	c #005E89",
"D.	c #003F53",
"E.	c #001117",
"F.	c #000608",
"G.	c #003D4D",
"H.	c #004C64",
"I.	c #005C87",
"J.	c #006AC0",
"K.	c #0084CA",
"L.	c #00A2D0",
"M.	c #0073A4",
"N.	c #004A68",
"O.	c #00303D",
"P.	c #005476",
"Q.	c #0077CF",
"R.	c #009AD0",
"S.	c #0091BD",
"T.	c #0097C9",
"U.	c #006492",
"V.	c #004055",
"W.	c #000E12",
"X.	c #003C4B",
"Y.	c #004056",
"Z.	c #005385",
"`.	c #006AC2",
" +	c #0084C1",
".+	c #0097C0",
"++	c #007EAF",
"@+	c #005077",
"#+	c #002936",
"$+	c #001319",
"%+	c #005C80",
"&+	c #0060AE",
"*+	c #0075CE",
"=+	c #009FD2",
"-+	c #009ECD",
";+	c #006C9F",
">+	c #005573",
",+	c #002A35",
"'+	c #00232C",
")+	c #00445D",
"!+	c #005F99",
"~+	c #006FC7",
"{+	c #0091C2",
"]+	c #0095C2",
"^+	c #0091C0",
"/+	c #005E8C",
"(+	c #00394C",
"_+	c #001E27",
":+	c #00191F",
"<+	c #004A60",
"[+	c #00608D",
"}+	c #006BC2",
"|+	c #0085C2",
"1+	c #009FCC",
"2+	c #007CAE",
"3+	c #005E82",
"4+	c #003D4E",
"5+	c #000709",
"6+	c #003A4A",
"7+	c #005D84",
"8+	c #0065B4",
"9+	c #007CCB",
"0+	c #0097C4",
"a+	c #006C9A",
"b+	c #00506A",
"c+	c #002D39",
"d+	c #000102",
"e+	c #000406",
"f+	c #003543",
"g+	c #00597A",
"h+	c #0063AA",
"i+	c #0071CB",
"j+	c #00A2DB",
"k+	c #0093C2",
"l+	c #0096C9",
"m+	c #00638F",
"n+	c #005973",
"o+	c #001C24",
"p+	c #004F69",
"q+	c #00629D",
"r+	c #006CD0",
"s+	c #0098CB",
"t+	c #0088BB",
"u+	c #006088",
"v+	c #00495E",
"w+	c #001A21",
"x+	c #004156",
"y+	c #006392",
"z+	c #0068D0",
"A+	c #008BC2",
"B+	c #0097C5",
"C+	c #0083C0",
"D+	c #00628A",
"E+	c #00475B",
"F+	c #003948",
"G+	c #00303C",
"H+	c #00495D",
"I+	c #00688E",
"J+	c #0066BB",
"K+	c #007EC6",
"L+	c #008FBB",
"M+	c #0079B1",
"N+	c #005E84",
"O+	c #0064B2",
"P+	c #0077D4",
"Q+	c #0094C5",
"R+	c #0075B0",
"S+	c #005D80",
"T+	c #003B4B",
"U+	c #00181F",
"V+	c #004658",
"W+	c #005674",
"X+	c #0066A3",
"Y+	c #0073CE",
"Z+	c #00A5DD",
"`+	c #0098CC",
" @	c #0072AD",
".@	c #002630",
"+@	c #00161D",
"@@	c #00313E",
"#@	c #005B79",
"$@	c #005DA0",
"%@	c #0070CC",
"&@	c #009AD2",
"*@	c #0069A3",
"=@	c #00405A",
"-@	c #00181E",
";@	c #005E7C",
">@	c #005CA2",
",@	c #006FC4",
"'@	c #0095CD",
")@	c #00639A",
"!@	c #004A63",
"~@	c #005D7B",
"{@	c #005CA3",
"]@	c #006EC6",
"^@	c #00A7E3",
"/@	c #0090CB",
"(@	c #005F96",
"_@	c #00475F",
":@	c #000304",
"<@	c #00516D",
"[@	c #005E9E",
"}@	c #006BCE",
"|@	c #00A6E2",
"1@	c #0093D2",
"2@	c #005A94",
"3@	c #003A51",
"4@	c #00171D",
"5@	c #004759",
"6@	c #005E7B",
"7@	c #00639B",
"8@	c #006EC4",
"9@	c #00A6E0",
"0@	c #0092D3",
"a@	c #00629E",
"b@	c #004863",
"c@	c #004456",
"d@	c #005975",
"e@	c #006098",
"f@	c #006DCB",
"g@	c #00A6DF",
"h@	c #008AC1",
"i@	c #0069A0",
"j@	c #005F7F",
"k@	c #005166",
"l@	c #005A76",
"m@	c #006097",
"n@	c #006BC9",
"o@	c #00A6DD",
"p@	c #006BA6",
"q@	c #005170",
"r@	c #003D4C",
"s@	c #000C10",
"t@	c #004C68",
"u@	c #005E9C",
"v@	c #006BD2",
"w@	c #00A7DF",
"x@	c #008FC9",
"y@	c #006CAE",
"z@	c #005576",
"A@	c #003645",
"B@	c #00070B",
"C@	c #004455",
"D@	c #005676",
"E@	c #0060A2",
"F@	c #006BD1",
"G@	c #00ABE5",
"H@	c #0093CC",
"I@	c #006FB3",
"J@	c #004B6F",
"K@	c #002C39",
"L@	c #00151B",
"M@	c #00232D",
"N@	c #003847",
"O@	c #005174",
"P@	c #0063AF",
"Q@	c #0077CC",
"R@	c #00AEEB",
"S@	c #0095CE",
"T@	c #0075BB",
"U@	c #004E74",
"V@	c #006CC5",
"W@	c #0083D1",
"X@	c #007DC8",
"Y@	c #005887",
"Z@	c #003F52",
"`@	c #00252F",
" #	c #003B4D",
".#	c #006292",
"+#	c #0093C9",
"@#	c #008AB9",
"##	c #0084CD",
"$#	c #00568E",
"%#	c #002E3A",
"&#	c #00080B",
"*#	c #00313D",
"=#	c #005772",
"-#	c #006AA3",
";#	c #0068D8",
">#	c #0099CC",
",#	c #0089D2",
"'#	c #0063A1",
")#	c #00516F",
"!#	c #00323F",
"~#	c #004B67",
"{#	c #0064A4",
"]#	c #006ECC",
"^#	c #009DD0",
"/#	c #008BC8",
"(#	c #0068B3",
"_#	c #004C72",
":#	c #004D62",
"<#	c #00222B",
"[#	c #003340",
"}#	c #005173",
"|#	c #005FAE",
"1#	c #0074D5",
"2#	c #00A5DF",
"3#	c #008FC4",
"4#	c #007BC5",
"5#	c #005684",
"6#	c #00374A",
"7#	c #001F27",
"8#	c #000202",
"9#	c #001C23",
"0#	c #003C4E",
"a#	c #0064CA",
"b#	c #0084D4",
"c#	c #0084D7",
"d#	c #0063A0",
"e#	c #00526D",
"f#	c #00222A",
"g#	c #00090C",
"h#	c #004152",
"i#	c #004760",
"j#	c #005C99",
"k#	c #0065D6",
"l#	c #0091C8",
"m#	c #0087CE",
"n#	c #0066B4",
"o#	c #00587C",
"p#	c #00485B",
"q#	c #00232B",
"r#	c #000506",
"s#	c #00090D",
"t#	c #004052",
"u#	c #005F85",
"v#	c #006FD5",
"w#	c #009CD8",
"x#	c #008DC6",
"y#	c #0076C7",
"z#	c #005C8A",
"A#	c #004E65",
"B#	c #003A49",
"C#	c #002B37",
"D#	c #001116",
"E#	c #00252E",
"F#	c #003E54",
"G#	c #006293",
"H#	c #0069CA",
"I#	c #0083C5",
"J#	c #0090C0",
"K#	c #007FCA",
"L#	c #00639F",
"M#	c #005370",
"N#	c #00161C",
"O#	c #003342",
"P#	c #005B7F",
"Q#	c #0060B1",
"R#	c #006DD1",
"S#	c #009BD3",
"T#	c #0089C9",
"U#	c #006EC0",
"V#	c #004A61",
"W#	c #002935",
"X#	c #00141A",
"Y#	c #003D54",
"Z#	c #005990",
"`#	c #0063D2",
" $	c #0082CB",
".$	c #00A4E3",
"+$	c #0079D7",
"@$	c #0065AD",
"#$	c #006288",
"$$	c #005D75",
"%$	c #002832",
"&$	c #003848",
"*$	c #00486D",
"=$	c #0058AC",
"-$	c #006FD0",
";$	c #009FD6",
">$	c #007DBD",
",$	c #006CCF",
"'$	c #005A97",
")$	c #004355",
"!$	c #003441",
"~$	c #000609",
"{$	c #002028",
"]$	c #002E3B",
"^$	c #004058",
"/$	c #00568A",
"($	c #0063CC",
"_$	c #007DCB",
":$	c #00A5E4",
"<$	c #008EBD",
"[$	c #0079BD",
"}$	c #0068AF",
"|$	c #005A85",
"1$	c #00475D",
"2$	c #00141B",
"3$	c #003745",
"4$	c #00394B",
"5$	c #00507A",
"6$	c #0060B2",
"7$	c #006ED2",
"8$	c #009EDD",
"9$	c #008DBE",
"0$	c #0074CB",
"a$	c #0066A8",
"b$	c #00567A",
"c$	c #003A4B",
"d$	c #000B0E",
"e$	c #003443",
"f$	c #004567",
"g$	c #0057A0",
"h$	c #0084C8",
"i$	c #0084C5",
"j$	c #00569B",
"k$	c #004463",
"l$	c #004362",
"m$	c #0065CB",
"n$	c #007DC7",
"o$	c #00A8E8",
"p$	c #009CCC",
"q$	c #007BCF",
"r$	c #0068CD",
"s$	c #005D95",
"t$	c #003E50",
"u$	c #004C6A",
"v$	c #005991",
"w$	c #0074D7",
"x$	c #00A8EA",
"y$	c #009ED3",
"z$	c #0076D1",
"A$	c #0065C2",
"B$	c #005B95",
"C$	c #004F70",
"D$	c #00262F",
"E$	c #002E39",
"F$	c #003C4D",
"G$	c #00496C",
"H$	c #005796",
"I$	c #0061CB",
"J$	c #0073D7",
"K$	c #00A1DC",
"L$	c #0094C9",
"M$	c #0071D6",
"N$	c #0064D1",
"O$	c #005EA2",
"P$	c #005D87",
"Q$	c #004960",
"R$	c #003447",
"S$	c #005388",
"T$	c #005CA7",
"U$	c #0065CF",
"V$	c #0073D6",
"W$	c #00A2DE",
"X$	c #009BD0",
"Y$	c #007AC8",
"Z$	c #0069D0",
"`$	c #0064BA",
" %	c #005CA1",
".%	c #005A8D",
"+%	c #004E75",
"@%	c #00384F",
"#%	c #003146",
"$%	c #00354F",
"%%	c #004469",
"&%	c #004C7F",
"*%	c #005B9E",
"=%	c #0064C1",
"-%	c #0065D8",
";%	c #007CC6",
">%	c #00A1E2",
",%	c #008DC2",
"'%	c #0075C8",
")%	c #0068CF",
"!%	c #0066C5",
"~%	c #005FB8",
"{%	c #005AA4",
"]%	c #005693",
"^%	c #005391",
"/%	c #00589C",
"(%	c #0063CD",
"_%	c #006BD3",
":%	c #00ACEE",
"<%	c #0097CA",
"[%	c #008EBE",
"}%	c #0081BC",
"|%	c #0072CA",
"1%	c #0068D2",
"2%	c #0067D1",
"3%	c #0066D6",
"4%	c #0066D8",
"5%	c #0083C7",
"6%	c #009AD4",
"7%	c #00A0E1",
"8%	c #0096CA",
"9%	c #0093CB",
"0%	c #0098D2",
"a%	c #00A0DD",
"b%	c #00A3E1",
"c%	c #00A9EA",
"                                                                                                                                ",
"                                                                                                                                ",
"                                                                                                                                ",
"                                                                                                                                ",
"                                                      . + @ # $ % & * = -                                                       ",
"                                                  ; > , ' ) ! ~ { ] ^ / ( _ :                                                   ",
"                                                < [ } | 1 2 3 4 5 6 7 8 9 0 a b                                                 ",
"                                            c , @ d e f g h i j h k l m n o p q r                                               ",
"                                          s t u v w x y z A B C D E F G H I J K L M                                             ",
"                                          $ N O P Q R S T U V V V V W X Y Z `  .9 ..+.                                          ",
"                                        @.#.$.%.&.*.=.-.;.V V V V V V V >.C ,.'.).!.~.{.                                        ",
"                                      c ].^./.(.X _.V V V V V V V V V V :.<.[.}.m |.1.2.3.                                      ",
"                                    4.@ 5.6.7.8.*.V V V V V V V V V V V V V -.9.0.a.b.c.d.                                      ",
"                                    e.f.g.I G T U V V V V V V V V V V V V V V h.i.j.k.l.m.n.                                    ",
"                                  o.p.q.r.s.,.t.V V V V V V V V V V V V V V V ;.u.z v.w.x.y.z.                                  ",
"                                  A.B.C.D.i.E.:.V V V V V V V V V V V V V V V V F.B G.H.I.J.K.                                  ",
"                                  L.M.N.O.X V V V V V V V V V V V V V V V V V V V *.R l P.x.Q.R.                                ",
"                                S.T.U.V.W.V V V V V V V V V V V V V V V V V V V V :.[.X.Y.Z.`. +                                ",
"                                .+++@+#+T -.V V V V V V V V V V V V V V V V V V V V V $+k %+&+*+=+                              ",
"                                -+;+>+,+F.V V V V V V V V V V V V V V V V V V V V V V -.'+)+!+~+{+                              ",
"                              ]+^+/+(+_+:.V V V V V V V V V V V V V V V V V V V V V V V :+<+[+}+|+                              ",
"                              1+2+3+4+5+V V V V V V V V V V V V V V V V V V V V V V V V W.6+7+8+9+                              ",
"                              0+a+b+c+S d+V V V V V V V V V V V V V V V V V V V V V V V e+f+g+h+i+j+                            ",
"                            k+l+m+n+v.o+V V V V V V V V V V V V V V V V V V V V V V V V -.B p+q+r+s+                            ",
"                            s t+u+v+Z w+V V V V V V V V V V V V V V V V V V V V V V V V :.i.x+y+z+A+                            ",
"                            B+C+D+E+F+e+V V V V V V V V V V V V V V V V V V V V V V V V -.G+H+I+J+K+                            ",
"                            L+M+N+Z $+V V V V V V V V V V V V V V V V V V V V V V V V V V h l g+O+P+                            ",
"                            Q+R+S+T+h.V V V V V V V V V V V V V V V V V V V V V V V V V V U+V+W+X+Y+Z+                          ",
"                            `+ @ ..@:.V V V V V V V V V V V V V V V V V V V V V V V V V V +@@@#@$@%@                            ",
"                            &@*@=@-@_.V V V V V V V V V V V V V V V V V V V V V V V V V V E R ;@>@,@                            ",
"                            '@)@!@,.$+V V V V V V V V V V V V V V V V V V V V V V V V V V =.c+~@{@]@^@                          ",
"                            /@(@_@i u.V V V V V V V V V V V V V V V V V V V V V V V V V V :@F+<@[@}@|@                          ",
"                            1@2@3@4@_.V V V V V V V V V V V V V V V V V V V V V V V V V V e+5@6@7@8@9@                          ",
"                            0@a@b@G+d+V V V V V V V V V V V V V V V V V V V V V V V V V V _.c@d@e@f@g@                          ",
"                            h@i@j@k@t.V V V V V V V V V V V V V V V V V V V V V V V V V V e+k l@m@n@o@                          ",
"                            h@p@q@r@s@V V V V V V V V V V V V V V V V V V V V V V V V V V -.F+t@u@v@w@                          ",
"                            x@y@z@A@+@V V V V V V V V V V V V V V V V V V V V V V V V V V B@C@D@E@F@G@                          ",
"                            H@I@J@K@L@V V V V V V V V V V V V V V V V V V V V V V V V V V M@N@O@P@Q@R@                          ",
"                            S@T@U@&.-@;.V V V V V V V V V V V V V V V V V V V V V V V V -.,.E+D+V@W@                            ",
"                            ( X@Y@Z@s@V V V V V V V V V V V V V V V V V V V V V V V V V X `@ #.#n@+#                            ",
"                            @###$#Y.%#-.V V V V V V V V V V V V V V V V V V V V V V V V &#*#=#-#;#>#                            ",
"                              ,#'#)#!#<.V V V V V V V V V V V V V V V V V V V V V V V -.[.%#~#{#]#^#                            ",
"                              /#(#_#:#s.>.V V V V V V V V V V V V V V V V V V V V V V F.<#[#}#|#1#2#                            ",
"                              3#4#5#6#!#7#:.V V V V V V V V V V V V V V V V V V V V V 8#9#0#C.a#b#                              ",
"                                c#d#e#H f#g#V V V V V V V V V V V V V V V V V V V V V 9#h#i#j#k#l#                              ",
"                                m#n#o#v.p#q#r#V V V V V V V V V V V V V V V V V V V s#G t#u#O+v#w#                              ",
"                                x#y#z#A#B#C#D#V V V V V V V V V V V V V V V V V V V $+E#F#G#H#I#                                ",
"                                J#K#L#M#6+A N#-.V V V V V V V V V V V V V V V V V V _.O#P#Q#R#S#                                ",
"                                  T#U#[+V#y W#+@8#V V V V V V V V V V V V V V V V X#Z Y#Z#`# $.$                                ",
"                                    +$@$#$$$X.%$E#L@:.V V V V V V V V V V V V d+W.i &$*$=$-$;$                                  ",
"                                    >$,$'$t@)$!$T ~$V V V V V V V V V V V V V r#{$]$^$/$($_$:$                                  ",
"                                    <$[$}$|$1$!#8.e+V V V V V V V V V V V -.2$!#3$4$5$6$7$8$                                    ",
"                                      9$0$a$b$c$3$`@d$_.;.V V V V V V :.W.G y G+e$f$g$k#h$                                      ",
"                                        i$,$j$k$O.E#,.7#5+:.V V V V _.-@9#%#z C#l$'$m$n$o$                                      ",
"                                        p$q$r$s$3 &$B#s..@N#:@d+d+d$X#.@[#!#t$u$v$a#w$x$                                        ",
"                                          y$z$A$B$C$Z@f+}.!#y C#D$G+!$E$F$g G$H$I$J$K$                                          ",
"                                            L$M$N$O$P$/.Q$a.j.G+,+%$Z R$f S$T$U$V$W$                                            ",
"                                              X$Y$Z$`$ %.%+%f @%#%$%%%&%*%=%-%;%>%                                              ",
"                                                  ,%'%)%!%~%{%]%^%/%6$(%_%K+S#:%                                                ",
"                                                    <%[%}%|%1%2%3%4%i+5%6%7%                                                    ",
"                                                          S#8%9%0%a%b%c%                                                        ",
"                                                                                                                                ",
"                                                                                                                                ",
"                                                                                                                                "};
