/* XPM */
static char * orange_portal_xpm[] = {
"64 64 617 2",
"  	c None",
". 	c #BC6900",
"+ 	c #C76C00",
"@ 	c #D17000",
"# 	c #CC6D00",
"$ 	c #CB6D01",
"% 	c #D17101",
"& 	c #C26901",
"* 	c #BD6600",
"= 	c #BD6700",
"- 	c #BA6700",
"; 	c #BF6A00",
"> 	c #C96C00",
", 	c #CD6E00",
"' 	c #BE6901",
") 	c #AC6402",
"! 	c #A46302",
"~ 	c #A16202",
"{ 	c #A46603",
"] 	c #A86902",
"^ 	c #A96902",
"/ 	c #B57002",
"( 	c #C57802",
"_ 	c #C37001",
": 	c #B96900",
"< 	c #B86400",
"[ 	c #CD6D00",
"} 	c #C26D01",
"| 	c #A66602",
"1 	c #825302",
"2 	c #5F3E01",
"3 	c #643E01",
"4 	c #603B01",
"5 	c #5A3901",
"6 	c #6E4401",
"7 	c #644201",
"8 	c #704D02",
"9 	c #8F6403",
"0 	c #AD7503",
"a 	c #C47B03",
"b 	c #B46901",
"c 	c #C46C00",
"d 	c #9E5F02",
"e 	c #744C02",
"f 	c #634001",
"g 	c #523000",
"h 	c #291700",
"i 	c #341B00",
"j 	c #391E00",
"k 	c #291600",
"l 	c #502A00",
"m 	c #552D00",
"n 	c #5D3300",
"o 	c #6E4101",
"p 	c #7B5802",
"q 	c #A37A05",
"r 	c #C98A04",
"s 	c #BF7402",
"t 	c #C06B00",
"u 	c #CE6E00",
"v 	c #C76D01",
"w 	c #9C5E02",
"x 	c #7F4D01",
"y 	c #4E2C00",
"z 	c #381E00",
"A 	c #452500",
"B 	c #2E1800",
"C 	c #2A1600",
"D 	c #261400",
"E 	c #0C0500",
"F 	c #140900",
"G 	c #201000",
"H 	c #4F2A00",
"I 	c #5D3500",
"J 	c #784D01",
"K 	c #987004",
"L 	c #C88E05",
"M 	c #C67B02",
"N 	c #CB6D00",
"O 	c #CB7001",
"P 	c #9B5F02",
"Q 	c #623D01",
"R 	c #3B2000",
"S 	c #361D00",
"T 	c #251300",
"U 	c #221200",
"V 	c #130900",
"W 	c #000000",
"X 	c #030200",
"Y 	c #130800",
"Z 	c #321900",
"` 	c #472500",
" .	c #573000",
"..	c #6E4501",
"+.	c #906403",
"@.	c #B88305",
"#.	c #C88103",
"$.	c #CA6D00",
"%.	c #C86E01",
"&.	c #955C02",
"*.	c #6E4201",
"=.	c #381F00",
"-.	c #110800",
";.	c #010000",
">.	c #080300",
",.	c #331B00",
"'.	c #3C2100",
").	c #5C3D01",
"!.	c #8D6C04",
"~.	c #C39306",
"{.	c #C98703",
"].	c #C36C00",
"^.	c #CA6E01",
"/.	c #714501",
"(.	c #331C00",
"_.	c #050200",
":.	c #010100",
"<.	c #0E0500",
"[.	c #4D2900",
"}.	c #5D3200",
"|.	c #6B4301",
"1.	c #967104",
"2.	c #D1A207",
"3.	c #CC8803",
"4.	c #D67600",
"5.	c #A96502",
"6.	c #764B01",
"7.	c #472800",
"8.	c #281500",
"9.	c #110700",
"0.	c #030100",
"a.	c #190B00",
"b.	c #452600",
"c.	c #794B01",
"d.	c #A57B04",
"e.	c #CE9B06",
"f.	c #C06800",
"g.	c #BE6C02",
"h.	c #885502",
"i.	c #341C00",
"j.	c #0F0600",
"k.	c #311900",
"l.	c #3B1F00",
"m.	c #4B2D00",
"n.	c #815A02",
"o.	c #BA9106",
"p.	c #C48903",
"q.	c #CC7100",
"r.	c #CD7101",
"s.	c #986002",
"t.	c #653F01",
"u.	c #432400",
"v.	c #0A0400",
"w.	c #190A00",
"x.	c #452400",
"y.	c #5B3100",
"z.	c #704701",
"A.	c #A17B04",
"B.	c #CB9E07",
"C.	c #CE7B00",
"D.	c #C16A00",
"E.	c #BC7102",
"F.	c #885802",
"G.	c #532F00",
"H.	c #321A00",
"I.	c #170A00",
"J.	c #080400",
"K.	c #4E2900",
"L.	c #643800",
"M.	c #875902",
"N.	c #BB9406",
"O.	c #C88A03",
"P.	c #D17401",
"Q.	c #A36802",
"R.	c #684101",
"S.	c #3E2000",
"T.	c #130700",
"U.	c #371D00",
"V.	c #542D00",
"W.	c #764901",
"X.	c #A17A04",
"Y.	c #CA9B06",
"Z.	c #D27C00",
"`.	c #BE6B00",
" +	c #C97502",
".+	c #915F02",
"++	c #553100",
"@+	c #120800",
"#+	c #251200",
"$+	c #4C2800",
"%+	c #563200",
"&+	c #835E03",
"*+	c #BD9606",
"=+	c #C07F02",
"-+	c #C26A00",
";+	c #AE6C02",
">+	c #764E02",
",+	c #361F00",
"'+	c #190C00",
")+	c #502B00",
"!+	c #805001",
"~+	c #A98505",
"{+	c #C99C06",
"]+	c #D57A00",
"^+	c #CD7301",
"/+	c #9D6703",
"(+	c #734401",
"_+	c #361C00",
":+	c #2C1700",
"<+	c #5D3800",
"[+	c #976C03",
"}+	c #C29707",
"|+	c #C47100",
"1+	c #C36D00",
"2+	c #C07002",
"3+	c #8B5D02",
"4+	c #4D2D00",
"5+	c #271400",
"6+	c #1F1000",
"7+	c #613500",
"8+	c #8D5D02",
"9+	c #BD9506",
"0+	c #C17E02",
"a+	c #CD7000",
"b+	c #AD6D02",
"c+	c #825101",
"d+	c #090400",
"e+	c #4B2900",
"f+	c #845401",
"g+	c #B08905",
"h+	c #C79505",
"i+	c #C56E01",
"j+	c #996202",
"k+	c #6B3E00",
"l+	c #251400",
"m+	c #020100",
"n+	c #060200",
"o+	c #442400",
"p+	c #7A4A01",
"q+	c #A67F05",
"r+	c #C69D06",
"s+	c #DD8100",
"t+	c #C37000",
"u+	c #C97602",
"v+	c #8E5D02",
"w+	c #734000",
"x+	c #5B3000",
"y+	c #241200",
"z+	c #2A1500",
"A+	c #693D00",
"B+	c #9B6F03",
"C+	c #CAA608",
"D+	c #CD7700",
"E+	c #C06C00",
"F+	c #BB7202",
"G+	c #885602",
"H+	c #5E3300",
"I+	c #462500",
"J+	c #211000",
"K+	c #311A00",
"L+	c #573100",
"M+	c #916102",
"N+	c #CAA908",
"O+	c #C27802",
"P+	c #C67000",
"Q+	c #BE7D03",
"R+	c #895701",
"S+	c #5B3200",
"T+	c #482600",
"U+	c #3D2000",
"V+	c #8E5501",
"W+	c #B69006",
"X+	c #C28C04",
"Y+	c #BC6A01",
"Z+	c #AF7203",
"`+	c #845201",
" @	c #472600",
".@	c #291500",
"+@	c #7A4B01",
"@@	c #AE8805",
"#@	c #CEA506",
"$@	c #C57201",
"%@	c #AE7503",
"&@	c #804E01",
"*@	c #1F0F00",
"=@	c #592F00",
"-@	c #744501",
";@	c #A17403",
">@	c #C9A007",
",@	c #DF8300",
"'@	c #CC7802",
")@	c #AB7503",
"!@	c #301900",
"~@	c #1D0E00",
"{@	c #3F2100",
"]@	c #794601",
"^@	c #9D7704",
"/@	c #C79E07",
"(@	c #D17D02",
"_@	c #A17003",
":@	c #5A3800",
"<@	c #1E0F00",
"[@	c #7D4801",
"}@	c #9E7B04",
"|@	c #BF9506",
"1@	c #CC7D02",
"2@	c #986A03",
"3@	c #643A00",
"4@	c #7B4701",
"5@	c #A07C05",
"6@	c #C29906",
"7@	c #E58900",
"8@	c #CA7F03",
"9@	c #946703",
"0@	c #5F3700",
"a@	c #180B00",
"b@	c #040200",
"c@	c #492600",
"d@	c #6D4001",
"e@	c #9B7404",
"f@	c #C8A508",
"g@	c #E48900",
"h@	c #D18503",
"i@	c #926B04",
"j@	c #513100",
"k@	c #1D0F00",
"l@	c #060300",
"m@	c #5A3000",
"n@	c #7C4601",
"o@	c #996C03",
"p@	c #C09606",
"q@	c #E28600",
"r@	c #D18703",
"s@	c #9B6F04",
"t@	c #643C01",
"u@	c #572E00",
"v@	c #754300",
"w@	c #966A03",
"x@	c #C59E07",
"y@	c #E18300",
"z@	c #C07802",
"A@	c #9E6C03",
"B@	c #7F4A01",
"C@	c #673600",
"D@	c #774400",
"E@	c #956903",
"F@	c #C39D07",
"G@	c #E08200",
"H@	c #A37103",
"I@	c #704501",
"J@	c #100600",
"K@	c #683F01",
"L@	c #997003",
"M@	c #CBAA08",
"N@	c #E18200",
"O@	c #C87C02",
"P@	c #AB7B04",
"Q@	c #1D0D00",
"R@	c #0B0400",
"S@	c #562E00",
"T@	c #764701",
"U@	c #9F7704",
"V@	c #E78700",
"W@	c #CB7C02",
"X@	c #B07F04",
"Y@	c #6E4901",
"Z@	c #391F00",
"`@	c #1B0D00",
" #	c #2E1700",
".#	c #482700",
"+#	c #744A01",
"@#	c #AB8505",
"##	c #C79B06",
"$#	c #ED8B00",
"%#	c #CE7F01",
"&#	c #B88405",
"*#	c #744D01",
"=#	c #5C3200",
"-#	c #895601",
";#	c #BF9806",
">#	c #CE9905",
",#	c #C67701",
"'#	c #C58D05",
")#	c #855B02",
"!#	c #532E00",
"~#	c #100700",
"{#	c #2F1900",
"]#	c #CA7D02",
"^#	c #BA6D00",
"/#	c #CA8B04",
"(#	c #8C6603",
"_#	c #573200",
":#	c #3A1F00",
"<#	c #0B0500",
"[#	c #3E2100",
"}#	c #724100",
"|#	c #D1B309",
"1#	c #CE7700",
"2#	c #D08F04",
"3#	c #9E7204",
"4#	c #6F4401",
"5#	c #402200",
"6#	c #0E0600",
"7#	c #673F01",
"8#	c #A17604",
"9#	c #C6A007",
"0#	c #D27800",
"a#	c #C78003",
"b#	c #AF8505",
"c#	c #724D02",
"d#	c #633500",
"e#	c #432300",
"f#	c #2B1600",
"g#	c #412300",
"h#	c #724801",
"i#	c #AA8705",
"j#	c #CEA907",
"k#	c #C47701",
"l#	c #C28A05",
"m#	c #835A02",
"n#	c #4A2B00",
"o#	c #231200",
"p#	c #4F2C00",
"q#	c #885902",
"r#	c #C3A608",
"s#	c #D19B05",
"t#	c #D39905",
"u#	c #9D7203",
"v#	c #4F2900",
"w#	c #532C00",
"x#	c #603A00",
"y#	c #977004",
"z#	c #CFB309",
"A#	c #C97A01",
"B#	c #CC8C04",
"C#	c #7C4E01",
"D#	c #5C3100",
"E#	c #0D0500",
"F#	c #532D00",
"G#	c #845301",
"H#	c #AE8705",
"I#	c #CEAC08",
"J#	c #DA8400",
"K#	c #C57B02",
"L#	c #C49206",
"M#	c #885B02",
"N#	c #653900",
"O#	c #492700",
"P#	c #553300",
"Q#	c #926302",
"R#	c #C4A107",
"S#	c #C48803",
"T#	c #C27100",
"U#	c #C78D05",
"V#	c #9D7103",
"W#	c #714301",
"X#	c #4B2800",
"Y#	c #7F4F01",
"Z#	c #AC8A05",
"`#	c #CBA708",
" $	c #D57F00",
".$	c #C78403",
"+$	c #BC9006",
"@$	c #8C5D02",
"#$	c #613700",
"$$	c #351B00",
"%$	c #1E0E00",
"&$	c #1A0B00",
"*$	c #543200",
"=$	c #8E6703",
"-$	c #CAB009",
";$	c #C89104",
">$	c #E58A00",
",$	c #D1A307",
"'$	c #A98104",
")$	c #885401",
"!$	c #763F00",
"~$	c #492800",
"{$	c #6C4901",
"]$	c #A78A06",
"^$	c #CAA507",
"/$	c #D87F00",
"($	c #BC8103",
"_$	c #C9A408",
":$	c #946F04",
"<$	c #683E01",
"[$	c #422200",
"}$	c #583500",
"|$	c #886103",
"1$	c #C5A908",
"2$	c #C79504",
"3$	c #E68C00",
"4$	c #BF6E00",
"5$	c #BA8404",
"6$	c #AC8005",
"7$	c #845802",
"8$	c #5E3500",
"9$	c #402100",
"0$	c #291400",
"a$	c #1B0C00",
"b$	c #4C2B00",
"c$	c #795302",
"d$	c #AD8B06",
"e$	c #CCA908",
"f$	c #DF8A00",
"g$	c #BF7001",
"h$	c #C79906",
"i$	c #A57A04",
"j$	c #794D01",
"k$	c #4B2A00",
"l$	c #442600",
"m$	c #674501",
"n$	c #9C7D05",
"o$	c #C78A02",
"p$	c #C48503",
"q$	c #C9A508",
"r$	c #977704",
"s$	c #3E2200",
"t$	c #1E1000",
"u$	c #231300",
"v$	c #371E00",
"w$	c #624001",
"x$	c #946E04",
"y$	c #C4A508",
"z$	c #C49004",
"A$	c #EA8F00",
"B$	c #CE7300",
"C$	c #CB9B05",
"D$	c #C7A608",
"E$	c #936A03",
"F$	c #4A2700",
"G$	c #422300",
"H$	c #1C0E00",
"I$	c #1A0C00",
"J$	c #412200",
"K$	c #3F2200",
"L$	c #502C00",
"M$	c #6A4101",
"N$	c #8F6803",
"O$	c #D1AC07",
"P$	c #EB9000",
"Q$	c #D47B00",
"R$	c #CCA106",
"S$	c #BC9A07",
"T$	c #926B03",
"U$	c #381D00",
"V$	c #3A1E00",
"W$	c #4D2A00",
"X$	c #6B4601",
"Y$	c #937004",
"Z$	c #D1AD07",
"`$	c #DD8500",
" %	c #CA7800",
".%	c #D0AB07",
"+%	c #CAAE09",
"@%	c #9F7904",
"#%	c #875802",
"$%	c #724501",
"%%	c #3C2000",
"&%	c #472700",
"*%	c #472A00",
"=%	c #644101",
"-%	c #866103",
";%	c #A38105",
">%	c #C8AA08",
",%	c #D0AC07",
"'%	c #E08600",
")%	c #D27A00",
"!%	c #C49205",
"~%	c #CAA808",
"{%	c #B59206",
"]%	c #9E7A04",
"^%	c #8B6202",
"/%	c #744F02",
"(%	c #4F3100",
"_%	c #462D00",
":%	c #4E3401",
"<%	c #684801",
"[%	c #7D5D03",
"}%	c #9A7604",
"|%	c #BB9A07",
"1%	c #D1B509",
"2%	c #C38E04",
"3%	c #E48D00",
"4%	c #C27601",
"5%	c #C49805",
"6%	c #C9A908",
"7%	c #BF9C07",
"8%	c #B39406",
"9%	c #A07E05",
"0%	c #916E04",
"a%	c #8E6D04",
"b%	c #987604",
"c%	c #C6AB08",
"d%	c #CDAC08",
"e%	c #C48E04",
"f%	c #D48001",
"g%	c #F09200",
"h%	c #CC7800",
"i%	c #C07000",
"j%	c #BB7D02",
"k%	c #C59D06",
"l%	c #CBAD08",
"m%	c #CAAC08",
"n%	c #CEB209",
"o%	c #D0B509",
"p%	c #C69F06",
"q%	c #C68B03",
"r%	c #D68100",
"s%	c #E38C00",
"t%	c #D57E00",
"u%	c #CD7900",
"v%	c #CC7B00",
"w%	c #D38100",
"x%	c #DE8700",
"y%	c #E38900",
"z%	c #EC8F00",
"                                                                                                                                ",
"                                                                                                                                ",
"                                                                                                                                ",
"                                                                                                                                ",
"                                                      . + @ # $ % & * = -                                                       ",
"                                                  ; > , ' ) ! ~ { ] ^ / ( _ :                                                   ",
"                                                < [ } | 1 2 3 4 5 6 7 8 9 0 a b                                                 ",
"                                            c [ % d e f g h i j k l m n o p q r s                                               ",
"                                          t u v w x y z A B C D E F G i H I J K L M                                             ",
"                                          N O P Q R S T U V W W W W X Y Z `  ...+.@.#.                                          ",
"                                        $.%.&.*.=.-.E X ;.W W W W W W W >.D ,.'.).!.~.{.                                        ",
"                                      ].^.~ /.(.Y _.W W W W W W W W W W :.<.T [.}.|.1.2.3.                                      ",
"                                    4.% 5.6.7.8.9.W W W W W W W W W W W W W 0.a.C b.c.d.e.                                      ",
"                                    f.g.h.I i.U V W W W W W W W W W W W W W W j.k.l.m.n.o.p.                                    ",
"                                  q.r.s.t.u.,.v.W W W W W W W W W W W W W W W ;.w.x.y.z.A.B.C.                                  ",
"                                  D.E.F.G.H.I.:.W W W W W W W W W W W W W W W W J.C K.L.M.N.O.                                  ",
"                                  P.Q.R.S.T.W W W W W W W W W W W W W W W W W W W 9.U.V.W.X.Y.Z.                                ",
"                                `. +.+++@+W W W W W W W W W W W W W W W W W W W W ;.#+$+%+&+*+=+                                ",
"                                -+;+>+,+U 0.W W W W W W W W W W W W W W W W W W W W W '+)+!+~+{+]+                              ",
"                                ^+/+(+_+>.W W W W W W W W W W W W W W W W W W W W W W 0.:+<+[+}+|+                              ",
"                              1+2+3+4+5+:.W W W W W W W W W W W W W W W W W W W W W W W 6+7+8+9+0+                              ",
"                              a+b+c+H d+W W W W W W W W W W W W W W W W W W W W W W W W @+e+f+g+h+                              ",
"                              i+j+k+j l+m+W W W W W W W W W W W W W W W W W W W W W W W n+o+p+q+r+s+                            ",
"                            t+u+v+w+x+y+W W W W W W W W W W W W W W W W W W W W W W W W 0.z+A+B+C+D+                            ",
"                            E+F+G+H+I+J+W W W W W W W W W W W W W W W W W W W W W W W W :.K+L+M+N+O+                            ",
"                            P+Q+R+S+T+n+W W W W W W W W W W W W W W W W W W W W W W W W 0.U+H+V+W+X+                            ",
"                            Y+Z+`+ @'+W W W W W W W W W W W W W W W W W W W W W W W W W W .@m +@@@#@                            ",
"                            $@%@&@$+j.W W W W W W W W W W W W W W W W W W W W W W W W W W *@=@-@;@>@,@                          ",
"                            '@)@..!@:.W W W W W W W W W W W W W W W W W W W W W W W W W W ~@{@]@^@/@                            ",
"                            (@_@:@<@_.W W W W W W W W W W W W W W W W W W W W W W W W W W F _+[@}@|@                            ",
"                            1@2@3@,.'+W W W W W W W W W W W W W W W W W W W W W W W W W W E j 4@5@6@7@                          ",
"                            8@9@0@,.a@W W W W W W W W W W W W W W W W W W W W W W W W W W b@c@d@e@f@g@                          ",
"                            h@i@j@k@_.W W W W W W W W W W W W W W W W W W W W W W W W W W l@m@n@o@p@q@                          ",
"                            r@s@t@U+m+W W W W W W W W W W W W W W W W W W W W W W W W W W _.u@v@w@x@y@                          ",
"                            z@A@B@C@v.W W W W W W W W W W W W W W W W W W W W W W W W W W l@H D@E@F@G@                          ",
"                            z@H@I@[.J@W W W W W W W W W W W W W W W W W W W W W W W W W W X c@K@L@M@N@                          ",
"                            O@P@W.A Q@W W W W W W W W W W W W W W W W W W W W W W W W W W R@S@T@U@M@V@                          ",
"                            W@X@Y@Z@`@W W W W W W W W W W W W W W W W W W W W W W W W W W  #.#+#@###$#                          ",
"                            %#&#*#=.<@;.W W W W W W W W W W W W W W W W W W W W W W W W 0.,.=#-#;#>#                            ",
"                            ,#'#)#!#~#W W W W W W W W W W W W W W W W W W W W W W W W W Y {#y M+F@]#                            ",
"                            ^#/#(#_#:#0.W W W W W W W W W W W W W W W W W W W W W W W W <#[#}#_@|#1#                            ",
"                              2#3#4#5#6#W W W W W W W W W W W W W W W W W W W W W W W 0.T :#7#8#9#0#                            ",
"                              a#b#c#d#e#>.W W W W W W W W W W W W W W W W W W W W W W >.f#g#h#i#j#q@                            ",
"                              k#l#m#n#{@5+:.W W W W W W W W W W W W W W W W W W W W W m+o#p#q#r#s#                              ",
"                                t#u#o v#C E W W W W W W W W W W W W W W W W W W W W W y+w#x#y#z#A#                              ",
"                                B#g+C#y.D#:+l@W W W W W W W W W W W W W W W W W W W E#i F#G#H#I#J#                              ",
"                                K#L#M#N#O#U.I.W W W W W W W W W W W W W W W W W W W '+B P#Q#R#S#                                ",
"                                T#U#V#W#X#B ~@0.W W W W W W W W W W W W W W W W W W _.u.Y#Z#`# $                                ",
"                                  .$+$@$#$z $$%$m+W W W W W W W W W W W W W W W W &$` *$=$-$;$>$                                ",
"                                    ,$'$)$!$$+H.{#`@;.W W W W W W W W W W W W m+@+i ~${$]$^$/$                                  ",
"                                    ($_$:$<$S@[$U d+W W W W W W W W W W W W W l@8.R }$|$1$2$3$                                  ",
"                                    4$5$6$7$8$9$0$n+W W W W W W W W W W W 0.a$9$I+b$c$d$e$f$                                    ",
"                                      g$h$i$j$k$I+{#6#_.;.W W W W W W :.@+i.z U+l$m$n$z#o$                                      ",
"                                        p$q$r$f s$B ,.5+d+;.W W W W _.t$u$:#o+v$w$x$y$z$A$                                      ",
"                                        B$C$D$E$3 ~$F$G$K+H$b@m+m+6#I$K+J$K$L$M$N$y$O$P$                                        ",
"                                          Q$R$S$T$z.G.u.$+{@U$U.!@U+G$V$W$g X$Y$1$Z$`$                                          ",
"                                             %.%+%@%#%$%#$A l.%%_+,.&%*%=%-%;%>%,%'%                                            ",
"                                              )%!%~%{%]%^%/%=%(%_%:%<%[%}%|%1%2%3%                                              ",
"                                                  4%5%6%7%8%9%0%a%b%d$c%d%e%f%g%                                                ",
"                                                    h%i%j%k%l%m%n%o%p%q%r%s%                                                    ",
"                                                          t%u%v%w%x%y%z%                                                        ",
"                                                                                                                                ",
"                                                                                                                                ",
"                                                                                                                                "};
